<?xml version="1.0" encoding="utf-8"?>
<!-- Generator: Adobe Illustrator 16.0.0, SVG Export Plug-In . SVG Version: 6.00 Build 0)  -->
<!DOCTYPE svg PUBLIC "-//W3C//DTD SVG 1.1//EN" "http://www.w3.org/Graphics/SVG/1.1/DTD/svg11.dtd">
<svg version="1.1" id="Layer_1" xmlns="http://www.w3.org/2000/svg" xmlns:xlink="http://www.w3.org/1999/xlink" x="0px" y="0px"
	 width="100px" height="116px" viewBox="0 0 100 116" enable-background="new 0 0 100 116" xml:space="preserve">
<g>
	<defs>
		<path id="SVGID_1_" d="M63.688,51.758c-2.403,0-4.734-0.141-6.977-0.393c-0.164,0-0.32,0.021-0.482,0.021H38.374
			c-13.25,0-24,10.75-24,24v12.977c0-0.512,0.052-1.016,0.155-1.514c0.022-0.127,0.053-0.252,0.09-0.379
			c0.253-0.988,0.705-1.945,1.336-2.865c0.074-0.111,0.156-0.23,0.245-0.342c0.282-0.387,0.601-0.773,0.958-1.145
			c0.074-0.082,0.156-0.17,0.244-0.252c1.039-1.061,2.332-2.049,3.839-2.947c0.147-0.096,0.311-0.186,0.468-0.273
			c0.311-0.188,0.639-0.363,0.973-0.527c0.164-0.096,0.334-0.178,0.504-0.26c0.319-0.164,0.646-0.32,0.974-0.461
			c0.036-0.023,0.065-0.037,0.096-0.045c0.297-0.141,0.601-0.275,0.913-0.395c0.631-0.266,1.284-0.518,1.953-0.748
			c0.252-0.096,0.512-0.178,0.771-0.268c0.008,0,0.015-0.008,0.021-0.008c0.372-0.125,0.75-0.244,1.136-0.355
			c0.112-0.037,0.216-0.066,0.32-0.096c0.349-0.098,0.696-0.201,1.054-0.291c0.438-0.119,0.876-0.23,1.329-0.334
			c0.445-0.104,0.897-0.207,1.358-0.297c0.342-0.074,0.683-0.141,1.023-0.201c0.372-0.074,0.75-0.133,1.129-0.199
			c0.326-0.053,0.653-0.104,0.98-0.148c0.326-0.053,0.652-0.098,0.98-0.135c0.399-0.059,0.809-0.104,1.209-0.141
			c0.49-0.059,0.987-0.104,1.485-0.141c0.481-0.045,0.964-0.074,1.455-0.104c0.03-0.008,0.06-0.008,0.089-0.008
			c0.424-0.029,0.854-0.045,1.284-0.059c0.126-0.008,0.245-0.016,0.371-0.008c0.46-0.023,0.913-0.029,1.381-0.029h0.028
			c0.172-0.008,0.351-0.008,0.529-0.008c0.28,0,0.555,0.008,0.83,0.008h16.695c4.751-0.045,9.08-1.033,12.992-2.971
			c3.912-1.93,7.267-4.453,10.058-7.578c2.8-3.117,4.952-6.682,6.468-10.691c0.096-0.252,0.178-0.512,0.273-0.764
			c1.322-3.764,1.997-7.602,1.997-11.529c0-0.713-0.022-1.433-0.065-2.138C93.301,45.551,79.982,51.758,63.688,51.758"/>
	</defs>
	<clipPath id="SVGID_2_">
		<use xlink:href="#SVGID_1_"  overflow="visible"/>
	</clipPath>
	
		<linearGradient id="SVGID_3_" gradientUnits="userSpaceOnUse" x1="-365.5684" y1="355.998" x2="-364.5684" y2="355.998" gradientTransform="matrix(79.9961 0 0 -79.9961 29258.4375 28541.4375)">
		<stop  offset="0" style="stop-color:#808184"/>
		<stop  offset="0.0513" style="stop-color:#808184"/>
		<stop  offset="0.08" style="stop-color:#848588"/>
		<stop  offset="0.1111" style="stop-color:#929295"/>
		<stop  offset="0.1435" style="stop-color:#A7A8AA"/>
		<stop  offset="0.1766" style="stop-color:#C6C6C7"/>
		<stop  offset="0.2101" style="stop-color:#ECEDED"/>
		<stop  offset="0.2241" style="stop-color:#FFFFFF"/>
		<stop  offset="0.227" style="stop-color:#FDFDFD"/>
		<stop  offset="0.2895" style="stop-color:#D0D1D2"/>
		<stop  offset="0.3497" style="stop-color:#ADAEB0"/>
		<stop  offset="0.4062" style="stop-color:#949598"/>
		<stop  offset="0.4576" style="stop-color:#858689"/>
		<stop  offset="0.4994" style="stop-color:#808184"/>
		<stop  offset="0.6297" style="stop-color:#7C7D80"/>
		<stop  offset="0.7669" style="stop-color:#6F7073"/>
		<stop  offset="0.8966" style="stop-color:#5C5D60"/>
		<stop  offset="1" style="stop-color:#5C5D60"/>
	</linearGradient>
	<rect x="14.374" y="37.72" clip-path="url(#SVGID_2_)" fill="url(#SVGID_3_)" width="79.996" height="50.644"/>
</g>
<linearGradient id="SVGID_4_" gradientUnits="userSpaceOnUse" x1="36.9131" y1="28.8291" x2="126.5604" y2="28.8291">
	<stop  offset="0" style="stop-color:#808184"/>
	<stop  offset="0.0513" style="stop-color:#808184"/>
	<stop  offset="0.0927" style="stop-color:#848588"/>
	<stop  offset="0.1321" style="stop-color:#8F9093"/>
	<stop  offset="0.1707" style="stop-color:#A3A3A5"/>
	<stop  offset="0.2089" style="stop-color:#BEBEC0"/>
	<stop  offset="0.2464" style="stop-color:#E0E0E1"/>
	<stop  offset="0.2745" style="stop-color:#FFFFFF"/>
	<stop  offset="0.2964" style="stop-color:#D6D7D7"/>
	<stop  offset="0.3212" style="stop-color:#B0B0B1"/>
	<stop  offset="0.347" style="stop-color:#909192"/>
	<stop  offset="0.3737" style="stop-color:#77787A"/>
	<stop  offset="0.4015" style="stop-color:#666769"/>
	<stop  offset="0.4313" style="stop-color:#5B5C5E"/>
	<stop  offset="0.4665" style="stop-color:#58595B"/>
	<stop  offset="1" style="stop-color:#58595B"/>
</linearGradient>
<path fill="url(#SVGID_4_)" d="M94.3,37.719c-1,7.83-14.319,14.04-30.609,14.04c-2.41,0-4.74-0.14-6.98-0.39
	c1.48-0.07,2.84-0.391,4.05-1c1.351-0.67,2.48-1.54,3.4-2.61c0.899-1.08,1.6-2.31,2.09-3.71c0.49-1.39,0.73-2.84,0.73-4.33
	c0-1.399-0.24-2.79-0.73-4.19c-0.49-1.4-1.2-2.64-2.13-3.74c-0.94-1.09-2.061-1.99-3.39-2.69c-1.33-0.7-2.82-1.04-4.5-1.04H17.48
	c-1.711,0-3.11-1.4-3.11-3.12V9.119c0-0.97,0.26-1.75,0.78-2.34c0.51-0.58,1.27-0.88,2.31-0.88h44.63c3.22,0,6.25,0.45,9.08,1.33
	c2.85,0.89,5.45,2.11,7.83,3.67c2.37,1.57,4.52,3.42,6.42,5.59c1.91,2.17,3.54,4.51,4.86,7.02c0.779,1.47,1.43,2.99,1.989,4.55
	c0.4,1.1,0.761,2.23,1.051,3.38c0.229,0.88,0.399,1.76,0.55,2.64C94.07,35.289,94.23,36.499,94.3,37.719z"/>
<path fill="none" d="M94.3,37.719c-1,7.83-14.319,14.04-30.609,14.04c-2.41,0-4.74-0.14-6.98-0.39c1.48-0.07,2.84-0.391,4.05-1
	c1.351-0.67,2.48-1.54,3.4-2.61c0.899-1.08,1.6-2.31,2.09-3.71c0.49-1.39,0.73-2.84,0.73-4.33c0-1.399-0.24-2.79-0.73-4.19
	c-0.49-1.4-1.2-2.64-2.13-3.74c-0.94-1.09-2.061-1.99-3.39-2.69c-1.33-0.7-2.82-1.04-4.5-1.04H17.48c-1.711,0-3.11-1.4-3.11-3.12
	V9.119c0-0.97,0.26-1.75,0.78-2.34c0.51-0.58,1.27-0.88,2.31-0.88h44.63c3.22,0,6.25,0.45,9.08,1.33c2.85,0.89,5.45,2.11,7.83,3.67
	c2.37,1.57,4.52,3.42,6.42,5.59c1.91,2.17,3.54,4.51,4.86,7.02c0.779,1.47,1.43,2.99,1.989,4.55c0.4,1.1,0.761,2.23,1.051,3.38
	c0.229,0.88,0.399,1.76,0.55,2.64C94.07,35.289,94.23,36.499,94.3,37.719z"/>
<g>
	<defs>
		<path id="SVGID_5_" d="M43.118,73.42c-0.126-0.008-0.245,0-0.371,0.008c-0.431,0.014-0.86,0.035-1.284,0.059
			c-0.029,0-0.059,0-0.089,0.008c-0.491,0.029-0.974,0.059-1.455,0.104c-0.498,0.037-0.995,0.082-1.485,0.141
			c-0.4,0.037-0.81,0.082-1.209,0.141c-0.328,0.037-0.654,0.082-0.98,0.135c-0.327,0.045-0.654,0.096-0.98,0.148
			c-0.379,0.066-0.757,0.125-1.129,0.199c-0.341,0.061-0.682,0.127-1.023,0.201c-0.461,0.09-0.913,0.193-1.358,0.297
			c-0.453,0.104-0.892,0.215-1.329,0.334c-0.357,0.096-0.713,0.193-1.054,0.291c-0.104,0.029-0.208,0.059-0.32,0.096
			c-0.386,0.111-0.764,0.23-1.136,0.355c-0.007,0-0.014,0.008-0.021,0.008c-0.26,0.09-0.52,0.172-0.771,0.268
			c-0.669,0.23-1.322,0.482-1.953,0.748c-0.313,0.127-0.616,0.262-0.913,0.395c-0.03,0.008-0.06,0.021-0.096,0.045
			c-0.335,0.148-0.654,0.305-0.974,0.461c-0.17,0.082-0.34,0.164-0.504,0.26c-0.334,0.17-0.654,0.35-0.973,0.527
			c-0.157,0.088-0.313,0.178-0.468,0.273c-1.507,0.898-2.8,1.887-3.839,2.947c-0.088,0.082-0.17,0.17-0.244,0.252
			c-0.357,0.371-0.676,0.758-0.958,1.145c-0.089,0.111-0.171,0.23-0.245,0.342c-0.631,0.92-1.083,1.877-1.336,2.865
			c-0.037,0.127-0.067,0.252-0.09,0.379c-0.104,0.498-0.155,1.002-0.155,1.514v18.285c0,1.023,0.283,1.781,0.839,2.27
			c0.564,0.49,1.307,0.736,2.242,0.736h20.748c2.139,0,3.208-1.002,3.208-3.006V76.5c0-1.691,1.356-3.072,3.044-3.109
			C44.01,73.398,43.564,73.404,43.118,73.42 M44.455,73.391c0.016,0,0.029,0,0.044,0C44.484,73.391,44.471,73.391,44.455,73.391"/>
	</defs>
	<clipPath id="SVGID_6_">
		<use xlink:href="#SVGID_5_"  overflow="visible"/>
	</clipPath>
	
		<linearGradient id="SVGID_7_" gradientUnits="userSpaceOnUse" x1="-368.7134" y1="365.1055" x2="-367.7134" y2="365.1055" gradientTransform="matrix(0.9216 30.1107 30.1107 -0.9216 -10624.7344 11517.3281)">
		<stop  offset="0" style="stop-color:#58595B"/>
		<stop  offset="0.144" style="stop-color:#6A6B6E"/>
		<stop  offset="0.3915" style="stop-color:#848689"/>
		<stop  offset="0.5369" style="stop-color:#8E9093"/>
		<stop  offset="0.8757" style="stop-color:#828487"/>
		<stop  offset="0.9327" style="stop-color:#808184"/>
		<stop  offset="1" style="stop-color:#808184"/>
	</linearGradient>
	<polygon clip-path="url(#SVGID_6_)" fill="url(#SVGID_7_)" points="44.471,72.469 45.607,109.619 14.402,110.574 13.266,73.424 	
		"/>
</g>
</svg>
