<?xml version="1.0" encoding="utf-8"?>
<!-- Generator: Adobe Illustrator 16.0.0, SVG Export Plug-In . SVG Version: 6.00 Build 0)  -->
<!DOCTYPE svg PUBLIC "-//W3C//DTD SVG 1.1//EN" "http://www.w3.org/Graphics/SVG/1.1/DTD/svg11.dtd">
<svg version="1.1" id="Layer_1" xmlns="http://www.w3.org/2000/svg" xmlns:xlink="http://www.w3.org/1999/xlink" x="0px" y="0px"
	 width="400px" height="300px" viewBox="0 0 400 300" enable-background="new 0 0 400 300" xml:space="preserve">
<g>
	<path fill="#4B4B4B" d="M381.155,134.105c-0.827,0.098-1.11-0.269-1.122-1.094c-0.02-1.176-0.174-2.35-0.479-3.55
		c-0.41,0.91-0.822,1.819-1.225,2.731c-0.152,0.343-0.278,0.651-0.768,0.637c-0.448-0.013-0.547-0.305-0.684-0.614
		c-0.416-0.947-0.837-1.892-1.337-3.021c-0.325,1.475-0.241,2.804-0.423,4.102c-0.053,0.384,0.038,0.839-0.6,0.776
		c-0.616-0.06-0.409-0.495-0.386-0.826c0.131-1.829,0.273-3.657,0.415-5.486c0.023-0.3-0.001-0.637,0.447-0.662
		c0.384-0.022,0.702-0.002,0.885,0.447c0.526,1.3,1.092,2.585,1.715,4.046c0.521-1.219,0.981-2.3,1.443-3.379
		c0.096-0.225,0.208-0.444,0.285-0.676c0.15-0.458,0.504-0.458,0.888-0.438c0.476,0.024,0.389,0.392,0.415,0.673
		c0.115,1.247,0.211,2.497,0.332,3.744c0.026,0.255-0.099,0.563,0.196,0.753V134.105z"/>
	<path fill="#505050" d="M339.838,183.056c-7.356-0.023-13.876-2.315-19.416-7.229c-1.039-0.922-1.026-0.936-0.241-2.073
		c2.09-3.021,4.181-6.045,6.271-9.068c0.652-0.942,0.638-0.925,1.497-0.225c3.032,2.473,6.35,4.384,10.271,5.027
		c1.491,0.246,2.99,0.264,4.446-0.253c1.317-0.468,2.178-1.324,2.355-2.768c0.161-1.306-0.646-2.045-1.579-2.688
		c-1.548-1.066-3.288-1.759-5.009-2.483c-3.357-1.412-6.749-2.755-9.817-4.763c-3.372-2.207-6.052-4.978-7.198-8.965
		c-2.261-7.864,1.808-16.123,9.676-19.491c6.145-2.629,12.416-2.392,18.691-0.488c2.99,0.906,5.7,2.366,8.077,4.423
		c0.625,0.54,0.764,0.987,0.338,1.781c-1.827,3.397-3.586,6.831-5.331,10.27c-0.32,0.63-0.519,0.61-1.038,0.188
		c-2.952-2.4-6.252-4.061-10.077-4.54c-1.452-0.181-2.876-0.1-4.239,0.473c-1.144,0.479-1.941,1.272-2.128,2.554
		c-0.185,1.285,0.578,2.077,1.517,2.728c1.956,1.359,4.206,2.104,6.394,2.976c3.216,1.283,6.421,2.581,9.294,4.561
		c3.435,2.365,5.971,5.401,6.67,9.614c1.528,9.201-3.591,16.871-11.984,19.454C344.855,182.816,342.376,183.14,339.838,183.056"/>
	<path fill="#5C5C5C" d="M265.331,164.047c-1.102,0.011-2.207,0.072-3.306,0.016c-0.789-0.041-0.971,0.251-0.967,0.994
		c0.027,5.27,0.016,10.539,0.015,15.81c-0.001,1.259-0.002,1.26-1.234,1.26c-4.074,0.002-8.149-0.015-12.223,0.016
		c-0.761,0.006-1.059-0.146-1.058-0.999c0.026-17.68,0.021-35.357,0.02-53.036c0-0.517-0.108-1.015,0.742-1.01
		c6.004,0.041,12.007,0.038,18.011,0.047c0.504,0.36,0.44,0.908,0.444,1.416c0.022,2.775,0.019,5.55,0.004,8.324
		c-0.005,0.999-0.021,1.972,0.987,2.574c0.099,0.059,0.104,0.212,0.1,0.338c-0.204,0.459-0.638,0.422-1.024,0.443
		c-0.917,0.046-1.837,0-2.754,0.028c-1.151,0.036-1.505,0.359-1.519,1.486c-0.029,2.572-0.032,5.146,0.002,7.718
		c0.014,1.078,0.372,1.41,1.459,1.451c0.979,0.037,1.959-0.013,2.938,0.028c0.389,0.018,0.816-0.025,1.062,0.395
		c0.059,0.288-0.087,0.49-0.32,0.592c-0.817,0.357-0.922,1.056-0.922,1.823c-0.004,2.927,0.012,5.853-0.011,8.779
		C265.771,163.075,265.867,163.661,265.331,164.047"/>
	<path fill="#626262" d="M220.472,182.088c-5.788,0.012-11.578,0.02-17.367,0.042c-0.529,0.001-0.714-0.229-0.677-0.721
		c0.012-0.184,0-0.368,0-0.553c0-17.493-0.002-34.988,0-52.484c0-1.257,0.002-1.261,1.229-1.258c5.667,0.009,11.333,0.02,17,0.031
		c0.536,0.39,0.44,0.979,0.444,1.515c0.022,2.818,0.003,5.637,0.012,8.455c0.006,1.752,0.293,2.045,2.021,2.05
		c4.226,0.01,8.453-0.009,12.679,0.015c0.529,0.003,1.129-0.129,1.504,0.443c-0.378,0.184-0.782,0.105-1.176,0.105
		c-6.034,0.004-12.067,0.001-18.102,0.001c-1.21,0-1.214,0.004-1.214,1.212c-0.002,2.084,0.027,4.167-0.016,6.251
		c-0.016,0.739,0.249,0.933,0.953,0.93c4.778-0.025,9.556-0.017,14.334-0.009c0.354,0.001,0.738-0.114,1.061,0.152
		c-0.357,0.61-0.972,0.436-1.49,0.44c-3.704,0.029-7.408,0.01-11.111,0.015c-2.211,0.003-2.383,0.18-2.387,2.422
		c-0.002,2.726,0.014,5.45-0.011,8.175c-0.005,0.509,0.069,1.062-0.444,1.421c-0.623-0.038-0.921,0.154-0.906,0.879
		c0.047,2.357,0.037,4.717,0.004,7.075c-0.01,0.694,0.236,0.91,0.906,0.885c0.916-0.036,1.836,0.015,2.754,0.028
		c0.398,0.287,0.435,0.717,0.439,1.149c0.027,3.396,0.027,6.79,0,10.184C220.906,181.37,220.87,181.8,220.472,182.088"/>
	<path fill="#595959" d="M266.802,139.771c-0.176-0.048-0.354-0.142-0.528-0.133c-0.809,0.041-0.953-0.417-0.95-1.104
		c0.017-3.797,0.008-7.594,0.008-11.39c3.066-0.092,6.136-0.101,9.141,0.6c6.852,1.598,11.546,6.953,12.354,13.979
		c0.606,5.26-0.335,10.125-3.622,14.396c-0.94,1.223-2.056,2.274-3.364,3.096c-0.448,0.281-0.562,0.475-0.257,0.991
		c4.093,6.938,7.875,14.051,11.825,21.067c0.469,0.836,0.455,0.852-0.542,0.854c-4.748,0.003-9.496-0.02-14.243,0.02
		c-0.768,0.008-1.136-0.281-1.47-0.921c-2.847-5.457-5.729-10.895-8.579-16.349c-0.283-0.542-0.587-0.913-1.243-0.831
		c0-3.672-0.001-7.345,0-11.016c0-1.304,0.002-1.303,1.306-1.492c0.119-0.019,0.232-0.072,0.35-0.111
		c0.125-0.533,0.609-0.551,1-0.671c3.563-1.097,5.116-5.564,3.004-8.667c-0.652-0.957-1.679-1.265-2.714-1.584
		C267.755,140.346,267.079,140.442,266.802,139.771"/>
	<path fill="#6C6C6C" d="M118.98,170.919c7.746-1.925,11.828-8.513,12.506-15.007c0.666-6.389-1.293-11.771-6.246-15.97
		c-0.354-0.51-0.451-1.085-0.452-1.691c-0.007-3.946-0.017-7.893,0.009-11.839c0.003-0.564-0.09-1.204,0.625-1.484
		c7.208,2.127,12.834,6.378,16.769,12.761c7.291,11.828,5.446,27.955-4.305,37.845c-4.758,4.825-10.575,7.608-17.263,8.605
		c-0.543,0.082-1.078,0.23-1.636,0.152c-0.405-0.282-0.435-0.714-0.438-1.146c-0.03-3.696-0.028-7.393,0-11.091
		C118.553,171.638,118.523,171.178,118.98,170.919"/>
	<path fill="#787878" d="M63.634,176.099c-13.47-1.838-23.594-12.143-25.195-25.646c-0.979-8.257,0.538-15.919,5.514-22.718
		c3.454-4.72,7.954-8.094,13.446-10.126c0.432,0.269,0.436,0.712,0.438,1.137c0.029,4.452,0.023,8.905,0.008,13.356
		c-0.002,0.451-0.217,0.859-0.203,1.307c-2.156,2.469-3.682,5.271-4.176,8.527c-1.1,7.259,0.702,13.513,6.591,18.265
		c1.2,0.969,2.615,1.562,4.009,2.185c0.143,0.604,0.036,1.214,0.036,1.82c0.003,3.47,0.02,6.942-0.011,10.414
		C64.086,175.14,64.236,175.747,63.634,176.099"/>
	<path fill="#555555" d="M297.866,154.614c0-8.762,0-17.524,0-26.286c0-1.215,0.002-1.216,1.254-1.216
		c4.073,0,8.148,0.015,12.221-0.016c0.737-0.006,1.007,0.17,1.006,0.958c-0.021,17.708-0.021,35.415-0.001,53.123
		c0.001,0.785-0.27,0.971-1.008,0.965c-4.104-0.029-8.209-0.04-12.313,0.005c-0.905,0.011-1.187-0.2-1.183-1.157
		C297.884,172.197,297.866,163.405,297.866,154.614"/>
	<path fill="#686868" d="M173.223,182.088c-2.847,0.012-5.693,0.006-8.541,0.051c-0.664,0.01-0.809-0.385-0.977-0.862
		c-2.117-6.004-4.24-12.006-6.362-18.008c-4.112-11.627-8.227-23.254-12.339-34.882c-0.082-0.231-0.157-0.464-0.246-0.692
		c-0.178-0.459,0.012-0.585,0.461-0.584c4.838,0.008,9.676,0.014,14.514-0.006c0.668-0.002,0.697,0.461,0.829,0.885
		c2.077,6.694,4.175,13.381,6.217,20.085c1.517,4.976,3.257,9.884,4.4,14.97c0.022,0.105,0.081,0.202,0.207,0.499
		c0.62-2.039,0.868-3.984,1.623-5.779c0.449,0.078,0.571,0.406,0.618,0.797c0.043,0.365,0.048,0.731,0.048,1.099
		c0.005,6.879,0.009,13.759-0.007,20.637C173.667,180.917,173.822,181.604,173.223,182.088"/>
	<path fill="#666666" d="M173.223,182.088c0-7.503-0.002-15.006,0.002-22.51c0-0.615-0.016-1.225-0.216-1.814
		c0.888-2.894,1.761-5.794,2.665-8.684c2.186-6.979,4.396-13.949,6.562-20.934c0.235-0.754,0.544-1.064,1.384-1.056
		c4.469,0.045,8.939,0.021,13.41,0.021c1.062,0.001,1.066,0.007,0.699,1.049c-6.229,17.692-12.463,35.384-18.68,53.081
		c-0.225,0.64-0.518,0.934-1.236,0.901C176.285,182.077,174.753,182.101,173.223,182.088"/>
	<path fill="#727272" d="M104.27,141.64c-0.166,0.479-0.57,0.785-0.859,1.171c-2.894,3.859-3.938,8.209-3.447,12.965
		c0.057,0.548,0.162,1.083-0.104,1.615c-3.031,6.08-7.575,10.742-13.346,14.256c-0.531,0.186-0.731-0.11-0.818-0.564
		c-0.076-0.394-0.068-0.792-0.07-1.19c-0.004-6.736,0.003-13.474-0.007-20.211c-0.001-1.026,0.271-2.045,0.081-3.076
		c0.64-3.45,2.047-6.59,3.937-9.515c3.339-5.166,7.913-8.859,13.583-11.213c0.225-0.093,0.463-0.147,0.696-0.221
		c0.522,0.145,0.589,0.564,0.61,1.011c0.042,0.827,0.024,1.654,0.024,2.481c0.001,2.972,0,5.944,0.001,8.916
		C104.551,139.264,104.611,140.468,104.27,141.64"/>
	<path fill="#707070" d="M118.98,170.919c0.002,4.457,0.005,8.915,0.007,13.372c-5.308,0.606-10.441-0.122-15.392-2.101
		c-4.818-1.927-8.834-4.955-12.106-8.987c-0.494-0.608-0.522-0.899,0.175-1.404c3.768-2.725,6.892-6.048,9.13-10.159
		c0.097-0.18,0.144-0.413,0.405-0.483C104.873,168.51,110.515,172.293,118.98,170.919"/>
	<path fill="#757575" d="M57.641,133.409c-0.303-0.4-0.24-0.871-0.24-1.324c-0.002-4.825-0.002-9.652-0.001-14.477
		c4.649-1.842,9.497-2.347,14.437-2.01c5.115,0.348,9.928,1.779,14.365,4.391c0.986,0.581,0.986,0.582,0.293,1.533
		c-2.178,2.998-4.374,5.984-6.522,9.004c-0.436,0.612-0.761,0.737-1.476,0.39c-4.797-2.335-9.759-2.879-14.892-1.204
		C61.314,130.46,59.391,131.792,57.641,133.409"/>
	<path fill="#747474" d="M85.701,146.605c0.496,0.384,0.373,0.938,0.373,1.443c0.006,7.432,0.003,14.865,0.01,22.298
		c0,0.471-0.142,1.01,0.43,1.3c-3.265,2.132-6.865,3.417-10.66,4.193c-1.703,0.349-3.423,0.615-5.173,0.572
		c-1.071,0.129-2.144,0.13-3.216-0.002c-1.289,0.045-2.567-0.051-3.831-0.312c0.005-4.059,0.011-8.115,0.015-12.174
		c0.002-0.55-0.033-1.109,0.416-1.539c1.246,0.416,2.508,0.75,3.827,0.807c1.154,0.102,2.308,0.082,3.462,0.009
		c5.121-0.613,9.377-3.015,13.191-6.355c0.487-0.427,0.414-0.902,0.379-1.416c-0.193-2.859,0.041-5.688,0.637-8.487
		C85.586,146.824,85.653,146.717,85.701,146.605"/>
	<path fill="#6F6F6F" d="M104.27,141.64c-0.225-0.395-0.172-0.829-0.172-1.254c-0.003-4.429-0.002-8.858-0.003-13.287
		c0-0.487,0.033-0.98-0.18-1.442c4.453-1.776,9.088-2.391,13.852-2.109c2.603,0.153,5.177,0.515,7.655,1.381
		c-0.166,0.532-0.186,1.079-0.186,1.632c0.004,4.46,0.002,8.921,0.004,13.382c-2.561-1.84-5.375-2.979-8.549-3.179
		c-2.039-0.129-4.02,0.145-5.947,0.797C108.262,138.4,106.055,139.689,104.27,141.64"/>
	<path fill="#5F5F5F" d="M220.472,182.088v-12.483c5.759-0.012,11.517-0.021,17.276-0.045c0.538-0.001,0.681,0.242,0.681,0.727
		c-0.008,3.706-0.008,7.413,0,11.122c0,0.481-0.143,0.728-0.681,0.725C231.988,182.108,226.23,182.101,220.472,182.088"/>
	<path fill="#5F5F5F" d="M237.316,139.622c-5.082-0.001-10.165-0.001-15.247-0.003c-1.41-0.001-1.412-0.004-1.413-1.45
		c-0.001-3.674,0-7.349,0-11.024c5.349-0.011,10.698-0.02,16.047-0.036c0.425-0.002,0.692,0.078,0.686,0.596
		C237.34,131.677,237.475,135.65,237.316,139.622"/>
	<path fill="#5F5F5F" d="M217.714,160.737c0-3.701-0.001-7.403,0.001-11.105c0-1.351,0.017-1.366,1.402-1.366
		c4.679-0.001,9.36-0.001,14.04-0.001c0.034,0.27,0.1,0.539,0.101,0.81c0.006,3.577-0.017,7.155,0.019,10.731
		c0.008,0.759-0.219,0.985-0.983,0.978C227.434,160.741,222.573,160.748,217.714,160.737"/>
	<path fill="#4E4E4E" d="M369.938,131.045c-0.001-0.764-0.026-1.529,0.009-2.291c0.024-0.543-0.145-0.795-0.72-0.751
		c-0.425,0.033-0.855,0.001-1.282-0.006c-0.33-0.005-0.388-0.218-0.388-0.496c0-0.267,0.122-0.401,0.381-0.401
		c1.648-0.002,3.299-0.002,4.948,0.001c0.263,0,0.375,0.151,0.379,0.409c0.004,0.285-0.086,0.478-0.404,0.487
		c-0.152,0.004-0.306,0.008-0.458,0.011c-1.492,0.027-1.44-0.271-1.441,1.512c-0.002,1.222,0.011,2.444-0.009,3.667
		c-0.006,0.358,0.16,0.858-0.489,0.879c-0.748,0.025-0.499-0.545-0.516-0.914C369.917,132.452,369.939,131.748,369.938,131.045"/>
	<path fill="#787878" d="M71.354,163.201c-1.154,0.224-2.309,0.239-3.461-0.009C69.046,163.195,70.2,163.198,71.354,163.201"/>
	<path fill="#787878" d="M67.465,176.41c1.072,0,2.145,0,3.216,0C69.609,176.575,68.537,176.575,67.465,176.41"/>
</g>
</svg>
