<?xml version="1.0" encoding="utf-8"?>
<!-- Generator: Adobe Illustrator 16.0.0, SVG Export Plug-In . SVG Version: 6.00 Build 0)  -->
<!DOCTYPE svg PUBLIC "-//W3C//DTD SVG 1.1//EN" "http://www.w3.org/Graphics/SVG/1.1/DTD/svg11.dtd">
<svg version="1.1" id="Layer_1" xmlns="http://www.w3.org/2000/svg" xmlns:xlink="http://www.w3.org/1999/xlink" x="0px" y="0px"
	 width="400px" height="300px" viewBox="0 0 400 300" enable-background="new 0 0 400 300" xml:space="preserve">
<g>
	<path fill="none" stroke="#000000" stroke-width="3.154" stroke-miterlimit="10" d="M91.406,171.502
		c-22.765,3.051-46.021-12.688-50.149-36.972c-0.402-2.31-0.578-4.669-0.829-6.715c1.067-16.026,7.744-28.337,21.586-36.382
		c4.279-2.486,8.824-4.117,13.541-4.933c2.448-0.439,4.932-0.64,7.468-0.628c1.807,0,3.602,0.113,5.346,0.314
		c8.145,0.953,15.624,4.041,22.264,9.312c7.154,5.685,12.362,12.775,15.198,21.561C133.888,141.96,117.272,168.025,91.406,171.502z"
		/>
	<path fill="#5D5D5D" d="M91.406,171.502c-22.765,3.051-46.021-12.688-50.149-36.972c-0.402-2.31-0.578-4.669-0.829-6.715
		c1.067-16.026,7.744-28.337,21.586-36.382c4.279-2.486,8.824-4.117,13.541-4.933c2.448-0.439,4.932-0.64,7.468-0.628
		c1.807,0,3.602,0.113,5.346,0.314c8.145,0.953,15.624,4.041,22.264,9.312c7.154,5.685,12.362,12.775,15.198,21.561
		C133.888,141.96,117.272,168.025,91.406,171.502"/>
	<path fill="#333333" d="M88.369,86.188v83.545H75.555V86.501c2.448-0.439,4.932-0.64,7.468-0.628
		C84.83,85.873,86.625,85.986,88.369,86.188"/>
	<polygon fill="#727171" points="88.375,169.727 92.22,169.088 92.753,130.209 88.375,127.539 	"/>
	<polygon fill="#727171" points="88.375,127.539 126.2,127.539 126.2,130.208 92.753,130.208 	"/>
	<path fill="#5D5D5D" d="M135.726,184.201v3.223h-0.249c-0.3-0.881-0.752-1.551-1.354-2.008c-0.603-0.459-1.261-0.689-1.976-0.689
		c-0.683,0-1.251,0.193-1.705,0.576c-0.454,0.385-0.775,0.922-0.964,1.609s-0.283,1.393-0.283,2.115c0,0.879,0.103,1.645,0.31,2.305
		c0.207,0.662,0.54,1.146,1,1.457c0.46,0.311,1.007,0.465,1.641,0.465c0.22,0,0.445-0.023,0.678-0.07
		c0.231-0.047,0.468-0.115,0.71-0.205v-1.9c0-0.361-0.024-0.592-0.073-0.699c-0.049-0.104-0.152-0.199-0.307-0.285
		c-0.155-0.086-0.342-0.129-0.563-0.129h-0.235v-0.25h4.441v0.25c-0.337,0.021-0.571,0.068-0.703,0.139
		c-0.133,0.07-0.235,0.186-0.307,0.346c-0.041,0.088-0.061,0.297-0.061,0.629v1.9c-0.583,0.262-1.192,0.457-1.823,0.59
		c-0.631,0.131-1.286,0.197-1.964,0.197c-0.868,0-1.588-0.117-2.16-0.354c-0.573-0.234-1.079-0.545-1.518-0.932
		c-0.438-0.383-0.78-0.814-1.027-1.295c-0.316-0.621-0.472-1.314-0.472-2.084c0-1.375,0.482-2.535,1.449-3.486
		c0.966-0.945,2.181-1.42,3.646-1.42c0.454,0,0.864,0.035,1.228,0.107c0.197,0.035,0.517,0.139,0.959,0.307
		c0.444,0.17,0.706,0.254,0.786,0.254c0.125,0,0.242-0.047,0.351-0.139c0.107-0.092,0.206-0.268,0.296-0.523H135.726z"/>
	<path fill="#5D5D5D" d="M142.743,190.174h-3.458c0.041,0.836,0.262,1.496,0.668,1.982c0.31,0.373,0.682,0.559,1.119,0.559
		c0.269,0,0.515-0.074,0.734-0.225s0.457-0.424,0.707-0.814l0.23,0.148c-0.341,0.697-0.72,1.193-1.133,1.48
		c-0.413,0.289-0.892,0.436-1.436,0.436c-0.934,0-1.642-0.359-2.124-1.078c-0.386-0.58-0.579-1.299-0.579-2.158
		c0-1.053,0.285-1.889,0.853-2.51c0.569-0.623,1.236-0.936,1.998-0.936c0.638,0,1.192,0.262,1.663,0.787
		C142.454,188.367,142.707,189.145,142.743,190.174 M141.084,189.723c0-0.725-0.04-1.221-0.118-1.49
		c-0.078-0.27-0.202-0.475-0.367-0.613c-0.094-0.08-0.22-0.121-0.377-0.121c-0.234,0-0.425,0.113-0.573,0.344
		c-0.265,0.4-0.397,0.947-0.397,1.645v0.236H141.084z"/>
	<path fill="#5D5D5D" d="M146.106,187.248v0.816c0.324-0.352,0.634-0.605,0.93-0.766c0.297-0.16,0.616-0.24,0.958-0.24
		c0.409,0,0.747,0.115,1.018,0.342c0.269,0.227,0.449,0.51,0.538,0.846c0.072,0.256,0.108,0.75,0.108,1.477v2.455
		c0,0.484,0.044,0.785,0.133,0.904c0.087,0.121,0.271,0.193,0.548,0.229v0.24h-3.187v-0.24c0.236-0.035,0.408-0.133,0.511-0.299
		c0.072-0.111,0.108-0.389,0.108-0.834v-2.807c0-0.518-0.021-0.842-0.061-0.977c-0.041-0.135-0.11-0.238-0.206-0.314
		c-0.097-0.074-0.205-0.111-0.321-0.111c-0.386,0-0.746,0.277-1.078,0.83v3.379c0,0.471,0.044,0.768,0.131,0.895
		s0.25,0.203,0.489,0.238v0.24h-3.188v-0.24c0.265-0.029,0.453-0.115,0.565-0.258c0.077-0.1,0.114-0.391,0.114-0.875v-3.561
		c0-0.477-0.042-0.773-0.131-0.891c-0.087-0.117-0.271-0.193-0.548-0.229v-0.25H146.106z"/>
	<path fill="#5D5D5D" d="M156.548,190.174h-3.458c0.041,0.836,0.262,1.496,0.668,1.982c0.31,0.373,0.682,0.559,1.119,0.559
		c0.269,0,0.514-0.074,0.734-0.225s0.457-0.424,0.708-0.814l0.229,0.148c-0.341,0.697-0.719,1.193-1.131,1.48
		c-0.415,0.289-0.894,0.436-1.436,0.436c-0.936,0-1.643-0.359-2.124-1.078c-0.387-0.58-0.581-1.299-0.581-2.158
		c0-1.053,0.285-1.889,0.853-2.51c0.569-0.623,1.236-0.936,2-0.936c0.638,0,1.192,0.262,1.662,0.787
		C156.259,188.367,156.513,189.145,156.548,190.174 M154.89,189.723c0-0.725-0.04-1.221-0.117-1.49
		c-0.079-0.27-0.202-0.475-0.368-0.613c-0.094-0.08-0.22-0.121-0.378-0.121c-0.234,0-0.425,0.113-0.573,0.344
		c-0.265,0.4-0.397,0.947-0.397,1.645v0.236H154.89z"/>
	<path fill="#5D5D5D" d="M159.952,187.248v1.428c0.418-0.65,0.785-1.082,1.1-1.295c0.313-0.215,0.617-0.322,0.908-0.322
		c0.253,0,0.454,0.08,0.604,0.232c0.152,0.156,0.227,0.375,0.227,0.658c0,0.303-0.073,0.535-0.22,0.701
		c-0.146,0.168-0.322,0.248-0.528,0.248c-0.238,0-0.445-0.074-0.62-0.227c-0.176-0.152-0.279-0.24-0.312-0.258
		c-0.044-0.025-0.096-0.041-0.155-0.041c-0.129,0-0.253,0.051-0.37,0.148c-0.185,0.154-0.323,0.373-0.417,0.654
		c-0.144,0.438-0.216,0.918-0.216,1.443v1.447l0.007,0.379c0,0.256,0.015,0.42,0.046,0.492c0.054,0.121,0.134,0.209,0.239,0.268
		c0.106,0.055,0.285,0.09,0.536,0.105v0.24h-3.403v-0.24c0.273-0.025,0.459-0.1,0.555-0.229c0.097-0.127,0.145-0.465,0.145-1.016
		v-3.484c0-0.359-0.018-0.588-0.054-0.688c-0.045-0.125-0.111-0.217-0.196-0.275c-0.086-0.059-0.235-0.1-0.451-0.121v-0.25H159.952z
		"/>
	<path fill="#5D5D5D" d="M166.942,192.623c-0.769,0.676-1.458,1.016-2.069,1.016c-0.359,0-0.658-0.117-0.896-0.354
		c-0.239-0.238-0.357-0.531-0.357-0.887c0-0.48,0.207-0.914,0.619-1.299c0.415-0.385,1.315-0.895,2.704-1.533v-0.633
		c0-0.477-0.026-0.775-0.078-0.898c-0.051-0.125-0.148-0.232-0.292-0.324c-0.144-0.094-0.306-0.139-0.486-0.139
		c-0.292,0-0.532,0.064-0.722,0.193c-0.116,0.082-0.175,0.178-0.175,0.285c0,0.094,0.063,0.211,0.189,0.35
		c0.17,0.195,0.256,0.381,0.256,0.561c0,0.221-0.083,0.406-0.246,0.563c-0.165,0.154-0.379,0.232-0.645,0.232
		c-0.283,0-0.52-0.086-0.711-0.256c-0.19-0.17-0.286-0.371-0.286-0.602c0-0.322,0.128-0.631,0.385-0.926
		c0.256-0.293,0.612-0.52,1.07-0.678c0.458-0.156,0.937-0.236,1.431-0.236c0.598,0,1.071,0.127,1.419,0.381
		c0.347,0.254,0.573,0.529,0.678,0.828c0.062,0.186,0.093,0.621,0.093,1.299v2.447c0,0.289,0.012,0.469,0.034,0.543
		s0.057,0.131,0.102,0.166s0.097,0.053,0.154,0.053c0.117,0,0.237-0.082,0.358-0.25l0.201,0.162
		c-0.224,0.332-0.458,0.574-0.697,0.725c-0.241,0.15-0.513,0.227-0.818,0.227c-0.359,0-0.642-0.084-0.845-0.252
		C167.112,193.217,166.988,192.963,166.942,192.623 M166.942,192.129v-2.111c-0.545,0.322-0.948,0.662-1.213,1.025
		c-0.176,0.244-0.264,0.488-0.264,0.734c0,0.207,0.075,0.391,0.223,0.547c0.113,0.121,0.27,0.182,0.473,0.182
		C166.385,192.506,166.646,192.379,166.942,192.129"/>
	<path fill="#5D5D5D" d="M172.833,184.41v7.834c0,0.443,0.052,0.727,0.156,0.852c0.103,0.123,0.306,0.195,0.605,0.215v0.24h-3.404
		v-0.24c0.279-0.012,0.486-0.092,0.622-0.244c0.089-0.104,0.134-0.379,0.134-0.822v-6.527c0-0.439-0.053-0.721-0.155-0.844
		c-0.103-0.125-0.303-0.195-0.601-0.213v-0.25H172.833z"/>
	<path fill="#5D5D5D" d="M180.915,189.412v2.533c0,0.494,0.031,0.807,0.092,0.936c0.061,0.127,0.169,0.23,0.322,0.307
		c0.155,0.076,0.44,0.113,0.854,0.113v0.252h-4.646v-0.252c0.423,0,0.708-0.039,0.86-0.117c0.149-0.08,0.255-0.182,0.315-0.309
		c0.062-0.123,0.092-0.436,0.092-0.93v-5.93c0-0.496-0.03-0.805-0.092-0.936c-0.061-0.127-0.167-0.229-0.319-0.307
		c-0.152-0.076-0.438-0.113-0.856-0.113v-0.25h3.984c1.312,0,2.253,0.234,2.824,0.701c0.57,0.469,0.856,1.051,0.856,1.754
		c0,0.592-0.185,1.1-0.553,1.523c-0.369,0.42-0.876,0.707-1.524,0.861C182.69,189.359,181.954,189.412,180.915,189.412
		 M180.915,184.938v3.949c0.149,0.008,0.261,0.014,0.339,0.014c0.548,0,0.969-0.162,1.267-0.488
		c0.297-0.328,0.443-0.832,0.443-1.514c0-0.68-0.146-1.176-0.443-1.49c-0.298-0.314-0.738-0.471-1.327-0.471H180.915z"/>
	<path fill="#5D5D5D" d="M189.564,192.623c-0.769,0.676-1.459,1.016-2.07,1.016c-0.359,0-0.658-0.117-0.896-0.354
		c-0.237-0.238-0.356-0.531-0.356-0.887c0-0.48,0.206-0.914,0.62-1.299c0.413-0.385,1.313-0.895,2.703-1.533v-0.633
		c0-0.477-0.027-0.775-0.078-0.898c-0.052-0.125-0.148-0.232-0.293-0.324c-0.144-0.094-0.306-0.139-0.485-0.139
		c-0.292,0-0.533,0.064-0.721,0.193c-0.117,0.082-0.176,0.178-0.176,0.285c0,0.094,0.063,0.211,0.188,0.35
		c0.171,0.195,0.257,0.381,0.257,0.561c0,0.221-0.082,0.406-0.247,0.563c-0.163,0.154-0.377,0.232-0.644,0.232
		c-0.283,0-0.521-0.086-0.71-0.256c-0.192-0.17-0.288-0.371-0.288-0.602c0-0.322,0.129-0.631,0.385-0.926
		c0.257-0.293,0.613-0.52,1.072-0.678c0.458-0.156,0.935-0.236,1.429-0.236c0.598,0,1.07,0.127,1.419,0.381s0.574,0.529,0.677,0.828
		c0.063,0.186,0.095,0.621,0.095,1.299v2.447c0,0.289,0.013,0.469,0.035,0.543c0.021,0.074,0.055,0.131,0.102,0.166
		c0.043,0.035,0.094,0.053,0.153,0.053c0.117,0,0.236-0.082,0.357-0.25l0.202,0.162c-0.225,0.332-0.457,0.574-0.698,0.725
		c-0.239,0.15-0.513,0.227-0.818,0.227c-0.359,0-0.64-0.084-0.843-0.252C189.733,193.217,189.609,192.963,189.564,192.623
		 M189.564,192.129v-2.111c-0.544,0.322-0.948,0.662-1.214,1.025c-0.176,0.244-0.263,0.488-0.263,0.734
		c0,0.207,0.074,0.391,0.223,0.547c0.112,0.121,0.271,0.182,0.472,0.182C189.006,192.506,189.267,192.379,189.564,192.129"/>
	<path fill="#5D5D5D" d="M198.132,191.926l0.208,0.164c-0.296,0.557-0.666,0.971-1.108,1.242s-0.913,0.408-1.412,0.408
		c-0.84,0-1.512-0.318-2.015-0.951c-0.505-0.635-0.756-1.396-0.756-2.285c0-0.857,0.229-1.613,0.688-2.264
		c0.553-0.787,1.314-1.182,2.286-1.182c0.65,0,1.169,0.166,1.553,0.494c0.385,0.326,0.577,0.693,0.577,1.098
		c0,0.258-0.077,0.461-0.232,0.613c-0.156,0.152-0.359,0.23-0.611,0.23c-0.265,0-0.484-0.088-0.656-0.264
		c-0.174-0.176-0.279-0.488-0.32-0.938c-0.026-0.283-0.093-0.48-0.195-0.594c-0.104-0.111-0.225-0.166-0.364-0.166
		c-0.217,0-0.4,0.111-0.554,0.344c-0.232,0.344-0.351,0.875-0.351,1.588c0,0.594,0.096,1.162,0.283,1.703
		c0.19,0.543,0.448,0.943,0.776,1.211c0.246,0.193,0.538,0.289,0.876,0.289c0.221,0,0.431-0.051,0.628-0.156
		C197.629,192.41,197.861,192.213,198.132,191.926"/>
	<path fill="#5D5D5D" d="M201.677,184.41v6.014l1.464-1.438c0.301-0.289,0.487-0.502,0.563-0.633
		c0.074-0.131,0.111-0.256,0.111-0.379c0-0.119-0.051-0.219-0.149-0.301s-0.292-0.141-0.579-0.176v-0.25h2.825v0.25
		c-0.271,0.014-0.506,0.076-0.709,0.191c-0.201,0.115-0.598,0.461-1.187,1.035l-0.688,0.674l1.484,2.172
		c0.597,0.881,0.952,1.373,1.063,1.482c0.153,0.152,0.347,0.238,0.58,0.258v0.24h-3.255v-0.24c0.144,0,0.248-0.029,0.313-0.082
		c0.064-0.055,0.097-0.113,0.097-0.176c0-0.104-0.094-0.295-0.283-0.574l-1.245-1.826l-0.406,0.396v1.133
		c0,0.482,0.045,0.781,0.136,0.9c0.09,0.121,0.273,0.193,0.552,0.229v0.24h-3.255v-0.24c0.265-0.029,0.454-0.115,0.565-0.258
		c0.077-0.1,0.115-0.389,0.115-0.871v-6.402c0-0.477-0.044-0.775-0.133-0.891c-0.087-0.115-0.269-0.193-0.548-0.229v-0.25H201.677z"
		/>
	<path fill="#5D5D5D" d="M210.271,192.623c-0.768,0.676-1.458,1.016-2.068,1.016c-0.36,0-0.658-0.117-0.896-0.354
		c-0.239-0.238-0.357-0.531-0.357-0.887c0-0.48,0.206-0.914,0.62-1.299c0.413-0.385,1.314-0.895,2.702-1.533v-0.633
		c0-0.477-0.025-0.775-0.077-0.898c-0.051-0.125-0.149-0.232-0.292-0.324c-0.145-0.094-0.306-0.139-0.485-0.139
		c-0.292,0-0.533,0.064-0.722,0.193c-0.117,0.082-0.175,0.178-0.175,0.285c0,0.094,0.062,0.211,0.188,0.35
		c0.169,0.195,0.257,0.381,0.257,0.561c0,0.221-0.083,0.406-0.247,0.563c-0.165,0.154-0.379,0.232-0.644,0.232
		c-0.283,0-0.521-0.086-0.712-0.256c-0.19-0.17-0.286-0.371-0.286-0.602c0-0.322,0.127-0.631,0.385-0.926
		c0.255-0.293,0.613-0.52,1.071-0.678c0.459-0.156,0.934-0.236,1.429-0.236c0.599,0,1.07,0.127,1.419,0.381
		c0.35,0.254,0.575,0.529,0.678,0.828c0.062,0.186,0.095,0.621,0.095,1.299v2.447c0,0.289,0.011,0.469,0.033,0.543
		s0.057,0.131,0.102,0.166c0.044,0.035,0.096,0.053,0.155,0.053c0.117,0,0.236-0.082,0.357-0.25l0.202,0.162
		c-0.225,0.332-0.457,0.574-0.698,0.725c-0.24,0.15-0.514,0.227-0.818,0.227c-0.359,0-0.641-0.084-0.843-0.252
		C210.439,193.217,210.316,192.963,210.271,192.623 M210.271,192.129v-2.111c-0.542,0.322-0.948,0.662-1.213,1.025
		c-0.175,0.244-0.262,0.488-0.262,0.734c0,0.207,0.074,0.391,0.223,0.547c0.111,0.121,0.269,0.182,0.471,0.182
		C209.714,192.506,209.975,192.379,210.271,192.129"/>
	<path fill="#5D5D5D" d="M217.74,187.322h2.124v0.742h-1.206c0.22,0.221,0.371,0.42,0.457,0.6c0.107,0.242,0.161,0.498,0.161,0.762
		c0,0.449-0.124,0.84-0.373,1.17c-0.25,0.33-0.59,0.588-1.02,0.775c-0.428,0.186-0.809,0.279-1.141,0.279
		c-0.027,0-0.298-0.012-0.81-0.035c-0.202,0-0.372,0.068-0.508,0.201c-0.139,0.133-0.206,0.291-0.206,0.475
		c0,0.162,0.062,0.295,0.185,0.396c0.124,0.104,0.325,0.154,0.603,0.154l1.167-0.012c0.944,0,1.594,0.102,1.947,0.309
		c0.509,0.289,0.763,0.732,0.763,1.33c0,0.381-0.117,0.729-0.351,1.041c-0.234,0.311-0.541,0.543-0.924,0.689
		c-0.579,0.221-1.246,0.332-2.002,0.332c-0.566,0-1.082-0.057-1.55-0.166c-0.468-0.111-0.802-0.262-1.005-0.459
		c-0.201-0.193-0.303-0.4-0.303-0.615c0-0.209,0.077-0.393,0.232-0.557s0.443-0.303,0.865-0.416
		c-0.583-0.287-0.875-0.688-0.875-1.199c0-0.309,0.118-0.611,0.357-0.902c0.237-0.293,0.614-0.547,1.132-0.762
		c-0.602-0.219-1.037-0.512-1.308-0.871c-0.271-0.357-0.404-0.773-0.404-1.246c0-0.615,0.252-1.148,0.754-1.602
		c0.504-0.451,1.151-0.678,1.941-0.678C216.864,187.059,217.295,187.146,217.74,187.322 M216.177,194.482
		c-0.458,0-0.762,0.037-0.911,0.113c-0.256,0.141-0.383,0.328-0.383,0.566c0,0.23,0.133,0.436,0.396,0.621
		c0.267,0.189,0.766,0.283,1.498,0.283c0.624,0,1.115-0.086,1.473-0.252c0.358-0.166,0.537-0.4,0.537-0.699
		c0-0.111-0.035-0.207-0.102-0.283c-0.121-0.135-0.305-0.227-0.55-0.277S217.237,194.482,216.177,194.482 M216.573,187.479
		c-0.26,0-0.48,0.131-0.66,0.395c-0.179,0.262-0.27,0.807-0.27,1.633c0,0.67,0.089,1.129,0.267,1.379s0.388,0.373,0.63,0.373
		c0.271,0,0.494-0.123,0.675-0.369c0.179-0.248,0.27-0.727,0.27-1.443c0-0.805-0.102-1.352-0.304-1.645
		C217.037,187.586,216.834,187.479,216.573,187.479"/>
	<path fill="#5D5D5D" d="M223.059,187.248v4.994c0,0.445,0.052,0.73,0.154,0.854c0.104,0.123,0.307,0.195,0.607,0.215v0.24h-3.404
		v-0.24c0.279-0.012,0.485-0.092,0.62-0.246c0.091-0.102,0.136-0.377,0.136-0.822v-3.678c0-0.445-0.053-0.73-0.156-0.854
		c-0.102-0.125-0.304-0.195-0.6-0.213v-0.25H223.059z M222.115,184.195c0.292,0,0.54,0.102,0.741,0.305
		c0.202,0.205,0.304,0.451,0.304,0.74c0,0.285-0.102,0.533-0.308,0.734c-0.204,0.203-0.449,0.305-0.737,0.305
		s-0.532-0.102-0.735-0.305c-0.201-0.201-0.303-0.449-0.303-0.734c0-0.289,0.102-0.535,0.303-0.74
		C221.583,184.297,221.827,184.195,222.115,184.195"/>
	<path fill="#5D5D5D" d="M227.01,187.248v0.816c0.322-0.352,0.633-0.605,0.928-0.766c0.298-0.16,0.617-0.24,0.959-0.24
		c0.408,0,0.748,0.115,1.019,0.342c0.269,0.227,0.448,0.51,0.538,0.846c0.072,0.256,0.108,0.75,0.108,1.477v2.455
		c0,0.484,0.044,0.785,0.131,0.904c0.088,0.121,0.271,0.193,0.55,0.229v0.24h-3.188v-0.24c0.238-0.035,0.408-0.133,0.513-0.299
		c0.072-0.111,0.107-0.389,0.107-0.834v-2.807c0-0.518-0.02-0.842-0.061-0.977s-0.108-0.238-0.206-0.314
		c-0.096-0.074-0.203-0.111-0.32-0.111c-0.386,0-0.746,0.277-1.077,0.83v3.379c0,0.471,0.042,0.768,0.131,0.895
		c0.087,0.127,0.251,0.203,0.488,0.238v0.24h-3.188v-0.24c0.265-0.029,0.454-0.115,0.566-0.258c0.076-0.1,0.114-0.391,0.114-0.875
		v-3.561c0-0.477-0.044-0.773-0.131-0.891c-0.088-0.117-0.271-0.193-0.55-0.229v-0.25H227.01z"/>
	<path fill="#5D5D5D" d="M236.156,187.322h2.123v0.742h-1.206c0.22,0.221,0.373,0.42,0.458,0.6c0.108,0.242,0.162,0.498,0.162,0.762
		c0,0.449-0.124,0.84-0.375,1.17c-0.249,0.33-0.588,0.588-1.018,0.775c-0.428,0.186-0.809,0.279-1.143,0.279
		c-0.026,0-0.296-0.012-0.809-0.035c-0.202,0-0.372,0.068-0.509,0.201s-0.206,0.291-0.206,0.475c0,0.162,0.063,0.295,0.187,0.396
		c0.122,0.104,0.323,0.154,0.603,0.154l1.167-0.012c0.942,0,1.592,0.102,1.947,0.309c0.507,0.289,0.761,0.732,0.761,1.33
		c0,0.381-0.115,0.729-0.35,1.041c-0.233,0.311-0.542,0.543-0.924,0.689c-0.579,0.221-1.247,0.332-2.003,0.332
		c-0.564,0-1.082-0.057-1.55-0.166c-0.466-0.111-0.802-0.262-1.003-0.459c-0.203-0.193-0.303-0.4-0.303-0.615
		c0-0.209,0.076-0.393,0.23-0.557c0.155-0.164,0.444-0.303,0.867-0.416c-0.585-0.287-0.877-0.688-0.877-1.199
		c0-0.309,0.12-0.611,0.358-0.902c0.238-0.293,0.615-0.547,1.131-0.762c-0.602-0.219-1.037-0.512-1.308-0.871
		c-0.269-0.357-0.402-0.773-0.402-1.246c0-0.615,0.251-1.148,0.754-1.602c0.503-0.451,1.15-0.678,1.941-0.678
		C235.279,187.059,235.711,187.146,236.156,187.322 M234.592,194.482c-0.458,0-0.761,0.037-0.91,0.113
		c-0.255,0.141-0.384,0.328-0.384,0.566c0,0.23,0.133,0.436,0.397,0.621c0.266,0.189,0.764,0.283,1.497,0.283
		c0.625,0,1.115-0.086,1.472-0.252c0.358-0.166,0.537-0.4,0.537-0.699c0-0.111-0.033-0.207-0.102-0.283
		c-0.121-0.135-0.304-0.227-0.549-0.277C236.305,194.504,235.652,194.482,234.592,194.482 M234.99,187.479
		c-0.261,0-0.481,0.131-0.66,0.395c-0.181,0.262-0.27,0.807-0.27,1.633c0,0.67,0.089,1.129,0.265,1.379
		c0.179,0.25,0.389,0.373,0.632,0.373c0.269,0,0.493-0.123,0.673-0.369c0.181-0.248,0.271-0.727,0.271-1.443
		c0-0.805-0.102-1.352-0.304-1.645C235.453,187.586,235.25,187.479,234.99,187.479"/>
	<path fill="#5D5D5D" d="M247.055,193.301v0.252h-4.779v-0.252h0.305c0.265,0,0.479-0.047,0.64-0.141
		c0.117-0.063,0.207-0.17,0.271-0.324c0.049-0.107,0.073-0.391,0.073-0.848v-6.014c0-0.469-0.024-0.76-0.073-0.877
		c-0.05-0.115-0.149-0.219-0.3-0.307c-0.151-0.088-0.354-0.131-0.61-0.131h-0.305v-0.25h4.779v0.25h-0.303
		c-0.265,0-0.479,0.047-0.641,0.141c-0.117,0.063-0.209,0.172-0.276,0.324c-0.05,0.107-0.073,0.391-0.073,0.85v6.014
		c0,0.467,0.025,0.758,0.077,0.877c0.051,0.115,0.152,0.217,0.303,0.305c0.151,0.088,0.354,0.131,0.61,0.131H247.055z"/>
	<path fill="#5D5D5D" d="M250.413,187.248v0.816c0.322-0.352,0.633-0.605,0.93-0.766c0.296-0.16,0.616-0.24,0.957-0.24
		c0.408,0,0.748,0.115,1.019,0.342c0.27,0.227,0.449,0.51,0.538,0.846c0.072,0.256,0.108,0.75,0.108,1.477v2.455
		c0,0.484,0.044,0.785,0.132,0.904c0.087,0.121,0.271,0.193,0.549,0.229v0.24h-3.188v-0.24c0.238-0.035,0.408-0.133,0.513-0.299
		c0.072-0.111,0.107-0.389,0.107-0.834v-2.807c0-0.518-0.02-0.842-0.061-0.977c-0.04-0.135-0.108-0.238-0.204-0.314
		c-0.098-0.074-0.205-0.111-0.321-0.111c-0.387,0-0.746,0.277-1.078,0.83v3.379c0,0.471,0.044,0.768,0.131,0.895
		c0.088,0.127,0.251,0.203,0.489,0.238v0.24h-3.189v-0.24c0.266-0.029,0.454-0.115,0.566-0.258c0.076-0.1,0.116-0.391,0.116-0.875
		v-3.561c0-0.477-0.045-0.773-0.133-0.891c-0.089-0.117-0.271-0.193-0.55-0.229v-0.25H250.413z"/>
	<path fill="#5D5D5D" d="M261.642,184.41v7.254c0,0.49,0.015,0.779,0.041,0.869c0.035,0.148,0.104,0.258,0.206,0.332
		c0.102,0.07,0.277,0.115,0.528,0.133v0.223l-2.662,0.52v-0.998c-0.318,0.387-0.603,0.648-0.853,0.789
		c-0.249,0.139-0.532,0.209-0.847,0.209c-0.803,0-1.439-0.359-1.906-1.078c-0.378-0.586-0.566-1.303-0.566-2.15
		c0-0.68,0.115-1.289,0.35-1.824c0.235-0.537,0.555-0.941,0.961-1.217c0.407-0.273,0.844-0.412,1.312-0.412
		c0.301,0,0.568,0.061,0.802,0.176c0.234,0.117,0.483,0.322,0.748,0.613v-1.9c0-0.48-0.02-0.771-0.061-0.869
		c-0.054-0.129-0.135-0.227-0.242-0.291c-0.108-0.061-0.312-0.092-0.607-0.092v-0.285H261.642z M259.755,188.686
		c-0.332-0.641-0.739-0.959-1.22-0.959c-0.166,0-0.303,0.045-0.412,0.135c-0.166,0.139-0.301,0.385-0.407,0.734
		c-0.105,0.352-0.157,0.889-0.157,1.611c0,0.795,0.058,1.385,0.175,1.768c0.117,0.381,0.276,0.658,0.479,0.828
		c0.104,0.086,0.244,0.129,0.425,0.129c0.395,0,0.768-0.311,1.118-0.932V188.686z"/>
	<path fill="#5D5D5D" d="M269.279,187.248v4.934c0,0.482,0.045,0.781,0.135,0.9c0.091,0.121,0.272,0.193,0.547,0.229v0.24h-2.568
		v-0.842c-0.302,0.359-0.602,0.621-0.903,0.783c-0.302,0.166-0.639,0.248-1.012,0.248c-0.354,0-0.671-0.109-0.947-0.328
		c-0.275-0.219-0.462-0.471-0.557-0.764c-0.093-0.293-0.141-0.803-0.141-1.531v-2.5c0-0.477-0.044-0.773-0.131-0.891
		c-0.089-0.117-0.271-0.193-0.55-0.229v-0.25h2.567v4.309c0,0.449,0.022,0.738,0.065,0.869c0.042,0.131,0.109,0.229,0.202,0.297
		c0.092,0.066,0.199,0.1,0.32,0.1c0.162,0,0.307-0.043,0.438-0.127c0.179-0.117,0.395-0.352,0.646-0.707v-3.371
		c0-0.477-0.044-0.773-0.131-0.891c-0.089-0.117-0.272-0.193-0.55-0.229v-0.25H269.279z"/>
	<path fill="#5D5D5D" d="M274.855,187.072l0.1,2.15h-0.229c-0.273-0.637-0.559-1.072-0.852-1.307
		c-0.294-0.234-0.587-0.352-0.881-0.352c-0.183,0-0.341,0.063-0.472,0.186c-0.13,0.125-0.194,0.268-0.194,0.43
		c0,0.121,0.045,0.238,0.135,0.35c0.145,0.184,0.546,0.5,1.205,0.947c0.662,0.447,1.097,0.826,1.305,1.139
		c0.209,0.313,0.314,0.662,0.314,1.049c0,0.35-0.087,0.693-0.264,1.031c-0.175,0.336-0.423,0.596-0.741,0.775
		s-0.672,0.27-1.058,0.27c-0.301,0-0.703-0.096-1.208-0.283c-0.134-0.049-0.226-0.074-0.276-0.074c-0.146,0-0.271,0.113-0.369,0.336
		h-0.223l-0.108-2.264h0.229c0.202,0.592,0.479,1.037,0.833,1.334c0.353,0.295,0.687,0.445,1.001,0.445
		c0.215,0,0.392-0.066,0.529-0.197c0.137-0.135,0.204-0.293,0.204-0.484c0-0.215-0.067-0.4-0.201-0.559
		c-0.136-0.158-0.436-0.395-0.903-0.715c-0.688-0.477-1.133-0.842-1.336-1.092c-0.296-0.369-0.443-0.775-0.443-1.221
		c0-0.484,0.167-0.924,0.501-1.316c0.336-0.395,0.82-0.592,1.453-0.592c0.343,0,0.672,0.086,0.99,0.25
		c0.121,0.068,0.222,0.102,0.298,0.102c0.08,0,0.145-0.016,0.194-0.049c0.051-0.035,0.128-0.131,0.236-0.289H274.855z"/>
	<path fill="#5D5D5D" d="M278.744,184.943v2.305h1.496v0.668h-1.496v3.889c0,0.365,0.017,0.6,0.051,0.705s0.093,0.191,0.179,0.256
		c0.085,0.064,0.164,0.1,0.235,0.1c0.292,0,0.568-0.225,0.829-0.668l0.202,0.146c-0.364,0.865-0.955,1.295-1.772,1.295
		c-0.4,0-0.738-0.111-1.015-0.334s-0.453-0.471-0.529-0.744c-0.045-0.152-0.068-0.566-0.068-1.24v-3.404h-0.821v-0.236
		c0.566-0.4,1.049-0.82,1.446-1.26c0.397-0.441,0.744-0.934,1.041-1.477H278.744z"/>
	<path fill="#5D5D5D" d="M283.456,187.248v1.428c0.417-0.65,0.785-1.082,1.099-1.295c0.314-0.215,0.617-0.322,0.909-0.322
		c0.252,0,0.454,0.08,0.604,0.232c0.15,0.156,0.227,0.375,0.227,0.658c0,0.303-0.073,0.535-0.22,0.701
		c-0.146,0.168-0.322,0.248-0.528,0.248c-0.239,0-0.445-0.074-0.62-0.227c-0.176-0.152-0.279-0.24-0.31-0.258
		c-0.046-0.025-0.098-0.041-0.157-0.041c-0.129,0-0.253,0.051-0.37,0.148c-0.184,0.154-0.324,0.373-0.419,0.654
		c-0.142,0.438-0.214,0.918-0.214,1.443v1.447l0.006,0.379c0,0.256,0.017,0.42,0.048,0.492c0.054,0.121,0.134,0.209,0.239,0.268
		c0.105,0.055,0.285,0.09,0.537,0.105v0.24h-3.406v-0.24c0.275-0.025,0.46-0.1,0.557-0.229c0.096-0.127,0.146-0.465,0.146-1.016
		v-3.484c0-0.359-0.019-0.588-0.054-0.688c-0.045-0.125-0.109-0.217-0.195-0.275s-0.237-0.1-0.453-0.121v-0.25H283.456z"/>
	<path fill="#5D5D5D" d="M289.428,187.248v4.994c0,0.445,0.052,0.73,0.155,0.854c0.104,0.123,0.306,0.195,0.607,0.215v0.24h-3.404
		v-0.24c0.277-0.012,0.484-0.092,0.62-0.246c0.088-0.102,0.134-0.377,0.134-0.822v-3.678c0-0.445-0.051-0.73-0.155-0.854
		c-0.103-0.125-0.303-0.195-0.599-0.213v-0.25H289.428z M288.483,184.195c0.293,0,0.54,0.102,0.743,0.305
		c0.201,0.205,0.303,0.451,0.303,0.74c0,0.285-0.103,0.533-0.308,0.734c-0.204,0.203-0.449,0.305-0.738,0.305
		c-0.287,0-0.532-0.102-0.733-0.305c-0.203-0.201-0.304-0.449-0.304-0.734c0-0.289,0.101-0.535,0.304-0.74
		C287.951,184.297,288.196,184.195,288.483,184.195"/>
	<path fill="#5D5D5D" d="M296.143,190.174h-3.458c0.04,0.836,0.262,1.496,0.666,1.982c0.311,0.373,0.684,0.559,1.12,0.559
		c0.27,0,0.513-0.074,0.734-0.225c0.22-0.15,0.455-0.424,0.707-0.814l0.23,0.148c-0.342,0.697-0.721,1.193-1.134,1.48
		c-0.412,0.289-0.892,0.436-1.436,0.436c-0.936,0-1.643-0.359-2.123-1.078c-0.387-0.58-0.579-1.299-0.579-2.158
		c0-1.053,0.283-1.889,0.853-2.51c0.569-0.623,1.234-0.936,1.998-0.936c0.638,0,1.191,0.262,1.662,0.787
		C295.854,188.367,296.105,189.145,296.143,190.174 M294.483,189.723c0-0.725-0.039-1.221-0.118-1.49s-0.2-0.475-0.368-0.613
		c-0.093-0.08-0.22-0.121-0.376-0.121c-0.233,0-0.426,0.113-0.573,0.344c-0.265,0.4-0.397,0.947-0.397,1.645v0.236H294.483z"/>
	<path fill="#5D5D5D" d="M300.915,187.072l0.1,2.15h-0.229c-0.274-0.637-0.559-1.072-0.854-1.307
		c-0.293-0.234-0.586-0.352-0.879-0.352c-0.185,0-0.342,0.063-0.473,0.186c-0.13,0.125-0.195,0.268-0.195,0.43
		c0,0.121,0.046,0.238,0.137,0.35c0.142,0.184,0.545,0.5,1.204,0.947c0.661,0.447,1.097,0.826,1.305,1.139
		c0.21,0.313,0.314,0.662,0.314,1.049c0,0.35-0.087,0.693-0.264,1.031c-0.175,0.336-0.422,0.596-0.741,0.775
		c-0.318,0.18-0.672,0.27-1.058,0.27c-0.301,0-0.703-0.096-1.208-0.283c-0.134-0.049-0.226-0.074-0.276-0.074
		c-0.147,0-0.271,0.113-0.369,0.336h-0.223l-0.108-2.264h0.229c0.202,0.592,0.479,1.037,0.833,1.334
		c0.353,0.295,0.687,0.445,1.001,0.445c0.215,0,0.392-0.066,0.529-0.197c0.137-0.135,0.204-0.293,0.204-0.484
		c0-0.215-0.067-0.4-0.201-0.559c-0.135-0.158-0.436-0.395-0.903-0.715c-0.688-0.477-1.133-0.842-1.336-1.092
		c-0.296-0.369-0.443-0.775-0.443-1.221c0-0.484,0.168-0.924,0.501-1.316c0.336-0.395,0.82-0.592,1.453-0.592
		c0.343,0,0.672,0.086,0.99,0.25c0.122,0.068,0.222,0.102,0.298,0.102c0.08,0,0.146-0.016,0.194-0.049
		c0.051-0.035,0.128-0.131,0.236-0.289H300.915z"/>
	<path fill="#5D5D5D" d="M309.738,187.072l0.101,2.15h-0.23c-0.273-0.637-0.558-1.072-0.853-1.307
		c-0.293-0.234-0.586-0.352-0.879-0.352c-0.185,0-0.341,0.063-0.472,0.186c-0.13,0.125-0.196,0.268-0.196,0.43
		c0,0.121,0.045,0.238,0.136,0.35c0.144,0.184,0.546,0.5,1.206,0.947s1.096,0.826,1.305,1.139c0.208,0.313,0.314,0.662,0.314,1.049
		c0,0.35-0.089,0.693-0.264,1.031c-0.175,0.336-0.423,0.596-0.741,0.775s-0.672,0.27-1.06,0.27c-0.301,0-0.702-0.096-1.206-0.283
		c-0.134-0.049-0.226-0.074-0.276-0.074c-0.148,0-0.272,0.113-0.371,0.336h-0.221l-0.108-2.264h0.228
		c0.203,0.592,0.481,1.037,0.833,1.334c0.354,0.295,0.687,0.445,1.002,0.445c0.216,0,0.392-0.066,0.53-0.197
		c0.137-0.135,0.204-0.293,0.204-0.484c0-0.215-0.067-0.4-0.201-0.559c-0.136-0.158-0.436-0.395-0.903-0.715
		c-0.688-0.477-1.133-0.842-1.336-1.092c-0.296-0.369-0.444-0.775-0.444-1.221c0-0.484,0.168-0.924,0.502-1.316
		c0.335-0.395,0.818-0.592,1.453-0.592c0.341,0,0.672,0.086,0.99,0.25c0.121,0.068,0.222,0.102,0.297,0.102
		c0.081,0,0.146-0.016,0.195-0.049c0.049-0.035,0.128-0.131,0.236-0.289H309.738z"/>
	<path fill="#5D5D5D" d="M312.388,191.475c0.314,0,0.579,0.111,0.798,0.33c0.218,0.221,0.326,0.486,0.326,0.795
		c0,0.311-0.109,0.574-0.329,0.791c-0.222,0.221-0.486,0.328-0.795,0.328c-0.312,0-0.575-0.107-0.794-0.328
		c-0.217-0.217-0.326-0.48-0.326-0.791c0-0.309,0.109-0.574,0.326-0.795C311.813,191.586,312.076,191.475,312.388,191.475"/>
	<path fill="#5D5D5D" d="M318.057,192.623c-0.77,0.676-1.459,1.016-2.07,1.016c-0.359,0-0.658-0.117-0.896-0.354
		c-0.238-0.238-0.357-0.531-0.357-0.887c0-0.48,0.207-0.914,0.621-1.299c0.413-0.385,1.313-0.895,2.703-1.533v-0.633
		c0-0.477-0.027-0.775-0.079-0.898c-0.051-0.125-0.149-0.232-0.292-0.324c-0.145-0.094-0.306-0.139-0.486-0.139
		c-0.291,0-0.532,0.064-0.721,0.193c-0.117,0.082-0.175,0.178-0.175,0.285c0,0.094,0.063,0.211,0.188,0.35
		c0.171,0.195,0.257,0.381,0.257,0.561c0,0.221-0.084,0.406-0.247,0.563c-0.165,0.154-0.379,0.232-0.644,0.232
		c-0.283,0-0.521-0.086-0.712-0.256c-0.19-0.17-0.286-0.371-0.286-0.602c0-0.322,0.128-0.631,0.385-0.926
		c0.255-0.293,0.613-0.52,1.072-0.678c0.458-0.156,0.935-0.236,1.428-0.236c0.599,0,1.07,0.127,1.42,0.381
		c0.349,0.254,0.573,0.529,0.677,0.828c0.063,0.186,0.094,0.621,0.094,1.299v2.447c0,0.289,0.012,0.469,0.034,0.543
		s0.057,0.131,0.102,0.166c0.044,0.035,0.096,0.053,0.155,0.053c0.116,0,0.236-0.082,0.357-0.25l0.202,0.162
		c-0.225,0.332-0.457,0.574-0.698,0.725c-0.24,0.15-0.513,0.227-0.818,0.227c-0.359,0-0.642-0.084-0.843-0.252
		C318.224,193.217,318.1,192.963,318.057,192.623 M318.057,192.129v-2.111c-0.544,0.322-0.95,0.662-1.215,1.025
		c-0.175,0.244-0.263,0.488-0.263,0.734c0,0.207,0.075,0.391,0.223,0.547c0.111,0.121,0.27,0.182,0.473,0.182
		C317.498,192.506,317.759,192.379,318.057,192.129"/>
	<path fill="#5D5D5D" d="M322.74,191.475c0.315,0,0.58,0.111,0.799,0.33c0.219,0.221,0.327,0.486,0.327,0.795
		c0,0.311-0.11,0.574-0.33,0.791c-0.221,0.221-0.486,0.328-0.796,0.328c-0.311,0-0.573-0.107-0.792-0.328
		c-0.217-0.217-0.327-0.48-0.327-0.791c0-0.309,0.11-0.574,0.327-0.795C322.167,191.586,322.43,191.475,322.74,191.475"/>
	<path fill="#5D5D5D" d="M327.547,187.248v1.428c0.418-0.65,0.784-1.082,1.099-1.295c0.314-0.215,0.618-0.322,0.91-0.322
		c0.251,0,0.452,0.08,0.604,0.232c0.15,0.156,0.226,0.375,0.226,0.658c0,0.303-0.073,0.535-0.22,0.701
		c-0.146,0.168-0.323,0.248-0.529,0.248c-0.237,0-0.445-0.074-0.619-0.227c-0.175-0.152-0.279-0.24-0.311-0.258
		c-0.045-0.025-0.096-0.041-0.156-0.041c-0.13,0-0.254,0.051-0.369,0.148c-0.185,0.154-0.324,0.373-0.419,0.654
		c-0.144,0.438-0.215,0.918-0.215,1.443v1.447l0.007,0.379c0,0.256,0.016,0.42,0.048,0.492c0.054,0.121,0.133,0.209,0.238,0.268
		c0.105,0.055,0.284,0.09,0.536,0.105v0.24h-3.404v-0.24c0.273-0.025,0.46-0.1,0.556-0.229c0.097-0.127,0.146-0.465,0.146-1.016
		v-3.484c0-0.359-0.019-0.588-0.054-0.688c-0.045-0.125-0.11-0.217-0.196-0.275c-0.084-0.059-0.235-0.1-0.451-0.121v-0.25H327.547z"
		/>
	<path fill="#5D5D5D" d="M331.053,191.475c0.313,0,0.58,0.111,0.799,0.33c0.217,0.221,0.326,0.486,0.326,0.795
		c0,0.311-0.111,0.574-0.331,0.791c-0.22,0.221-0.484,0.328-0.794,0.328c-0.311,0-0.574-0.107-0.794-0.328
		c-0.217-0.217-0.327-0.48-0.327-0.791c0-0.309,0.11-0.574,0.327-0.795C330.479,191.586,330.742,191.475,331.053,191.475"/>
	<path fill="#5D5D5D" d="M335.709,184.41v7.834c0,0.443,0.053,0.727,0.155,0.852c0.104,0.123,0.306,0.195,0.607,0.215v0.24h-3.404
		v-0.24c0.279-0.012,0.486-0.092,0.62-0.244c0.09-0.104,0.135-0.379,0.135-0.822v-6.527c0-0.439-0.052-0.721-0.154-0.844
		c-0.104-0.125-0.304-0.195-0.601-0.213v-0.25H335.709z"/>
	<path fill="#333333" d="M213.222,143.995v20.82c-10.653,4.842-21.224,7.264-31.716,7.264c-13.881,0-25.178-3.953-33.895-11.861
		c-8.715-7.908-13.073-18.158-13.073-30.748c0-10.288,2.945-19.569,8.838-27.842c7.948-11.095,19.669-16.645,35.164-16.645
		c5.932,0,11.601,0.908,17.009,2.724c5.405,1.815,8.694,2.724,9.865,2.724c2.985,0,4.601-1.654,4.841-4.963h2.967v26.873h-2.967
		c-2.178-6.455-5.749-11.701-10.712-15.736c-4.964-4.034-10.31-6.052-16.039-6.052c-8.596,0-14.608,4.112-18.036,12.338
		c-2.544,6.088-3.814,15.139-3.814,27.153c0,11.814,1.11,20.422,3.329,25.825c2.986,7.418,8.453,11.127,16.402,11.127
		c2.26,0,4.821-0.381,7.688-1.148v-21.747c0-3.745-0.808-6.243-2.422-7.491c-1.33-1.046-3.833-1.57-7.505-1.57v-2.724h43.276v2.724
		c-4.036,0-6.537,0.445-7.505,1.332C213.786,137.377,213.222,139.92,213.222,143.995"/>
	<path fill="none" stroke="#000000" stroke-width="0.946" stroke-miterlimit="10" d="M213.222,143.995v20.82
		c-10.653,4.842-21.224,7.264-31.716,7.264c-13.881,0-25.178-3.953-33.895-11.861c-8.715-7.908-13.073-18.158-13.073-30.748
		c0-10.288,2.945-19.569,8.838-27.842c7.948-11.095,19.669-16.645,35.164-16.645c5.932,0,11.601,0.908,17.009,2.724
		c5.405,1.815,8.694,2.724,9.865,2.724c2.985,0,4.601-1.654,4.841-4.963h2.967v26.873h-2.967
		c-2.178-6.455-5.749-11.701-10.712-15.736c-4.964-4.034-10.31-6.052-16.039-6.052c-8.596,0-14.608,4.112-18.036,12.338
		c-2.544,6.088-3.814,15.139-3.814,27.153c0,11.814,1.11,20.422,3.329,25.825c2.986,7.418,8.453,11.127,16.402,11.127
		c2.26,0,4.821-0.381,7.688-1.148v-21.747c0-3.745-0.808-6.243-2.422-7.491c-1.33-1.046-3.833-1.57-7.505-1.57v-2.724h43.276v2.724
		c-4.036,0-6.537,0.445-7.505,1.332C213.786,137.377,213.222,139.92,213.222,143.995z"/>
	<path fill="#333333" d="M263.276,132.193v25.784c0,4.156,0.626,6.861,1.876,8.109c1.654,1.615,5.286,2.301,10.895,2.059v2.725
		h-49.329v-2.725c4.479,0.242,7.546-0.383,9.201-1.875c1.453-1.291,2.179-3.732,2.179-7.324V97.512c0-3.349-0.747-5.649-2.239-6.9
		c-1.654-1.371-4.702-1.977-9.141-1.816v-2.724h50.298c8.756,0,15.695,2.28,20.82,6.84c4.722,4.237,7.082,9.604,7.082,16.1
		s-2.26,11.823-6.779,15.979c-5.246,4.801-12.892,7.203-22.938,7.203H263.276z M263.276,91.156v35.953
		c5.405,0.081,9.22-1.089,11.439-3.511c2.46-2.623,3.693-7.404,3.693-14.345c0-7.424-1.414-12.488-4.237-15.192
		C271.951,91.923,268.319,90.955,263.276,91.156"/>
	<path fill="none" stroke="#000000" stroke-width="0.946" stroke-miterlimit="10" d="M263.276,132.193v25.784
		c0,4.156,0.626,6.861,1.876,8.109c1.654,1.615,5.286,2.301,10.895,2.059v2.725h-49.329v-2.725c4.479,0.242,7.546-0.383,9.201-1.875
		c1.453-1.291,2.179-3.732,2.179-7.324V97.512c0-3.349-0.747-5.649-2.239-6.9c-1.654-1.371-4.702-1.977-9.141-1.816v-2.724h50.298
		c8.756,0,15.695,2.28,20.82,6.84c4.722,4.237,7.082,9.604,7.082,16.1s-2.26,11.823-6.779,15.979
		c-5.246,4.801-12.892,7.203-22.938,7.203H263.276z M263.276,91.156v35.953c5.405,0.081,9.22-1.089,11.439-3.511
		c2.46-2.623,3.693-7.404,3.693-14.345c0-7.424-1.414-12.488-4.237-15.192C271.951,91.923,268.319,90.955,263.276,91.156z"/>
	<path fill="#333333" d="M359.572,168.145v2.725h-47.875v-2.725c4.802,0.162,7.929-0.443,9.382-1.816
		c1.451-1.369,2.178-4.154,2.178-8.352V98.963c0-4.316-0.717-7.121-2.148-8.413c-1.433-1.291-4.569-1.876-9.411-1.754v-2.724h47.875
		v2.724c-4.6-0.162-7.616,0.403-9.048,1.693c-1.433,1.292-2.148,4.116-2.148,8.474v59.013c0,4.277,0.716,7.08,2.148,8.414
		C351.956,167.721,354.973,168.307,359.572,168.145"/>
	<path fill="none" stroke="#000000" stroke-width="0.946" stroke-miterlimit="10" d="M359.572,168.145v2.725h-47.875v-2.725
		c4.802,0.162,7.929-0.443,9.382-1.816c1.451-1.369,2.178-4.154,2.178-8.352V98.963c0-4.316-0.717-7.121-2.148-8.413
		c-1.433-1.291-4.569-1.876-9.411-1.754v-2.724h47.875v2.724c-4.6-0.162-7.616,0.403-9.048,1.693
		c-1.433,1.292-2.148,4.116-2.148,8.474v59.013c0,4.277,0.716,7.08,2.148,8.414C351.956,167.721,354.973,168.307,359.572,168.145z"
		/>
</g>
<path fill="#333333" d="M89.956,87.376c0,0,33.645,3.668,35.638,39.201H89.956V87.376z"/>
</svg>
