<?xml version="1.0" encoding="utf-8"?>
<!-- Generator: Adobe Illustrator 16.0.0, SVG Export Plug-In . SVG Version: 6.00 Build 0)  -->
<!DOCTYPE svg PUBLIC "-//W3C//DTD SVG 1.1//EN" "http://www.w3.org/Graphics/SVG/1.1/DTD/svg11.dtd">
<svg version="1.1" id="Layer_1" xmlns="http://www.w3.org/2000/svg" xmlns:xlink="http://www.w3.org/1999/xlink" x="0px" y="0px"
	 width="400px" height="300px" viewBox="0 0 400 300" enable-background="new 0 0 400 300" xml:space="preserve">
<g>
	<path fill="#5D5D5D" d="M871.822,139.438c-0.827,0.098-1.11-0.269-1.122-1.094c-0.02-1.176-0.174-2.35-0.479-3.55
		c-0.41,0.91-0.822,1.819-1.225,2.731c-0.152,0.343-0.278,0.651-0.768,0.637c-0.448-0.013-0.547-0.305-0.684-0.614
		c-0.416-0.947-0.837-1.892-1.337-3.021c-0.325,1.475-0.241,2.804-0.423,4.102c-0.053,0.384,0.038,0.839-0.6,0.776
		c-0.616-0.06-0.409-0.495-0.386-0.826c0.131-1.829,0.273-3.657,0.415-5.486c0.023-0.3-0.001-0.637,0.447-0.662
		c0.384-0.022,0.702-0.002,0.885,0.447c0.526,1.3,1.092,2.585,1.715,4.046c0.521-1.219,0.981-2.3,1.443-3.379
		c0.096-0.225,0.208-0.444,0.285-0.676c0.15-0.458,0.504-0.458,0.888-0.438c0.476,0.024,0.389,0.392,0.415,0.673
		c0.115,1.247,0.211,2.497,0.332,3.744c0.026,0.255-0.099,0.563,0.196,0.753V139.438z"/>
	<path fill="#5D5D5D" d="M830.505,188.389c-7.356-0.023-13.876-2.315-19.416-7.229c-1.039-0.922-1.026-0.936-0.241-2.073
		c2.09-3.021,4.181-6.045,6.271-9.068c0.652-0.942,0.638-0.925,1.497-0.225c3.032,2.473,6.35,4.384,10.271,5.027
		c1.491,0.246,2.99,0.264,4.446-0.253c1.317-0.468,2.178-1.324,2.355-2.768c0.161-1.306-0.646-2.045-1.579-2.688
		c-1.548-1.066-3.288-1.759-5.009-2.483c-3.357-1.412-6.749-2.755-9.817-4.763c-3.372-2.207-6.052-4.978-7.198-8.965
		c-2.261-7.864,1.808-16.123,9.676-19.491c6.145-2.629,12.416-2.392,18.691-0.488c2.99,0.906,5.7,2.366,8.077,4.423
		c0.625,0.54,0.764,0.987,0.338,1.781c-1.827,3.397-3.586,6.831-5.331,10.27c-0.32,0.63-0.519,0.61-1.038,0.188
		c-2.952-2.4-6.252-4.061-10.077-4.54c-1.452-0.181-2.876-0.1-4.239,0.473c-1.144,0.479-1.941,1.272-2.128,2.554
		c-0.185,1.285,0.578,2.077,1.517,2.728c1.956,1.359,4.206,2.104,6.394,2.976c3.216,1.283,6.421,2.581,9.294,4.561
		c3.435,2.365,5.971,5.401,6.67,9.614c1.528,9.201-3.591,16.871-11.984,19.454C835.522,188.149,833.043,188.473,830.505,188.389"/>
	<path fill="#5D5D5D" d="M755.998,169.38c-1.102,0.011-2.207,0.072-3.306,0.016c-0.789-0.041-0.971,0.251-0.967,0.994
		c0.027,5.27,0.016,10.539,0.015,15.81c-0.001,1.259-0.002,1.26-1.234,1.26c-4.074,0.002-8.149-0.015-12.223,0.016
		c-0.761,0.006-1.059-0.146-1.058-0.999c0.026-17.68,0.021-35.357,0.02-53.036c0-0.517-0.108-1.015,0.742-1.01
		c6.004,0.041,12.007,0.038,18.011,0.047c0.504,0.36,0.44,0.908,0.444,1.416c0.022,2.775,0.019,5.55,0.004,8.324
		c-0.005,0.999-0.021,1.972,0.987,2.574c0.099,0.059,0.104,0.212,0.1,0.338c-0.204,0.459-0.638,0.422-1.024,0.443
		c-0.917,0.046-1.837,0-2.754,0.028c-1.151,0.036-1.505,0.359-1.519,1.486c-0.029,2.572-0.032,5.146,0.002,7.718
		c0.014,1.078,0.372,1.41,1.459,1.451c0.979,0.037,1.959-0.013,2.938,0.028c0.389,0.018,0.816-0.025,1.062,0.395
		c0.059,0.288-0.087,0.49-0.32,0.592c-0.817,0.357-0.922,1.056-0.922,1.823c-0.004,2.927,0.012,5.853-0.011,8.779
		C756.438,168.408,756.534,168.994,755.998,169.38"/>
	<path fill="#5D5D5D" d="M711.139,187.421c-5.788,0.012-11.578,0.02-17.367,0.042c-0.529,0.001-0.714-0.229-0.677-0.721
		c0.012-0.184,0-0.368,0-0.553c0-17.493-0.002-34.988,0-52.484c0-1.257,0.002-1.261,1.229-1.258c5.667,0.009,11.333,0.02,17,0.031
		c0.536,0.39,0.44,0.979,0.444,1.515c0.022,2.818,0.003,5.637,0.012,8.455c0.006,1.752,0.293,2.045,2.021,2.05
		c4.226,0.01,8.453-0.009,12.679,0.015c0.529,0.003,1.129-0.129,1.504,0.443c-0.378,0.184-0.782,0.105-1.176,0.105
		c-6.034,0.004-12.067,0.001-18.102,0.001c-1.21,0-1.214,0.004-1.214,1.212c-0.002,2.084,0.027,4.167-0.016,6.251
		c-0.016,0.739,0.249,0.933,0.953,0.93c4.778-0.025,9.556-0.017,14.334-0.009c0.354,0.001,0.738-0.114,1.061,0.152
		c-0.357,0.61-0.972,0.436-1.49,0.44c-3.704,0.029-7.408,0.01-11.111,0.015c-2.211,0.003-2.383,0.18-2.387,2.422
		c-0.002,2.726,0.014,5.45-0.011,8.175c-0.005,0.509,0.069,1.062-0.444,1.421c-0.623-0.038-0.921,0.154-0.906,0.879
		c0.047,2.357,0.037,4.717,0.004,7.075c-0.01,0.694,0.236,0.91,0.906,0.885c0.916-0.036,1.836,0.015,2.754,0.028
		c0.398,0.287,0.435,0.717,0.439,1.149c0.027,3.396,0.027,6.79,0,10.184C711.573,186.703,711.537,187.133,711.139,187.421"/>
	<path fill="#5D5D5D" d="M757.469,145.104c-0.176-0.048-0.354-0.142-0.528-0.133c-0.809,0.041-0.953-0.417-0.95-1.104
		c0.017-3.797,0.008-7.594,0.008-11.39c3.066-0.092,6.136-0.101,9.141,0.6c6.852,1.598,11.546,6.953,12.354,13.979
		c0.606,5.26-0.335,10.125-3.622,14.396c-0.94,1.223-2.056,2.274-3.364,3.096c-0.448,0.281-0.562,0.475-0.257,0.991
		c4.093,6.938,7.875,14.051,11.825,21.067c0.469,0.836,0.455,0.852-0.542,0.854c-4.748,0.003-9.496-0.02-14.243,0.02
		c-0.768,0.008-1.136-0.281-1.47-0.921c-2.847-5.457-5.729-10.895-8.579-16.349c-0.283-0.542-0.587-0.913-1.243-0.831
		c0-3.672-0.001-7.345,0-11.016c0-1.304,0.002-1.303,1.306-1.492c0.119-0.019,0.232-0.072,0.35-0.111
		c0.125-0.533,0.609-0.551,1-0.671c3.563-1.097,5.116-5.564,3.004-8.667c-0.652-0.957-1.679-1.265-2.714-1.584
		C758.422,145.679,757.746,145.775,757.469,145.104"/>
	<path fill="#5D5D5D" d="M609.647,176.252c7.746-1.925,11.828-8.513,12.506-15.007c0.666-6.389-1.293-11.771-6.246-15.97
		c-0.354-0.51-0.451-1.085-0.452-1.691c-0.007-3.946-0.017-7.893,0.009-11.839c0.003-0.564-0.09-1.204,0.625-1.484
		c7.208,2.127,12.834,6.378,16.769,12.761c7.291,11.828,5.446,27.955-4.305,37.845c-4.758,4.825-10.575,7.608-17.263,8.605
		c-0.543,0.082-1.078,0.23-1.636,0.152c-0.405-0.282-0.435-0.714-0.438-1.146c-0.03-3.696-0.028-7.393,0-11.091
		C609.22,176.971,609.19,176.511,609.647,176.252"/>
	<path fill="#5D5D5D" d="M554.301,181.432c-13.47-1.838-23.594-12.143-25.195-25.646c-0.979-8.257,0.538-15.919,5.514-22.718
		c3.454-4.72,7.954-8.094,13.446-10.126c0.432,0.269,0.436,0.712,0.438,1.137c0.029,4.452,0.023,8.905,0.008,13.356
		c-0.002,0.451-0.217,0.859-0.203,1.307c-2.156,2.469-3.682,5.271-4.176,8.527c-1.1,7.259,0.702,13.513,6.591,18.265
		c1.2,0.969,2.615,1.562,4.009,2.185c0.143,0.604,0.036,1.214,0.036,1.82c0.003,3.47,0.02,6.942-0.011,10.414
		C554.753,180.473,554.903,181.08,554.301,181.432"/>
	<path fill="#5D5D5D" d="M788.533,159.947c0-8.762,0-17.524,0-26.286c0-1.215,0.002-1.216,1.254-1.216
		c4.073,0,8.148,0.015,12.221-0.016c0.737-0.006,1.007,0.17,1.006,0.958c-0.021,17.708-0.021,35.415-0.001,53.123
		c0.001,0.785-0.27,0.971-1.008,0.965c-4.104-0.029-8.209-0.04-12.313,0.005c-0.905,0.011-1.187-0.2-1.183-1.157
		C788.551,177.53,788.533,168.738,788.533,159.947"/>
	<path fill="#5D5D5D" d="M663.89,187.421c-2.847,0.012-5.693,0.006-8.541,0.051c-0.664,0.01-0.809-0.385-0.977-0.862
		c-2.117-6.004-4.24-12.006-6.362-18.008c-4.112-11.627-8.227-23.254-12.339-34.882c-0.082-0.231-0.157-0.464-0.246-0.692
		c-0.178-0.459,0.012-0.585,0.461-0.584c4.838,0.008,9.676,0.014,14.514-0.006c0.668-0.002,0.697,0.461,0.829,0.885
		c2.077,6.694,4.175,13.381,6.217,20.085c1.517,4.976,3.257,9.884,4.4,14.97c0.022,0.105,0.081,0.202,0.207,0.499
		c0.62-2.039,0.868-3.984,1.623-5.779c0.449,0.078,0.571,0.406,0.618,0.797c0.043,0.365,0.048,0.731,0.048,1.099
		c0.005,6.879,0.009,13.759-0.007,20.637C664.334,186.25,664.489,186.937,663.89,187.421"/>
	<path fill="#5D5D5D" d="M663.89,187.421c0-7.503-0.002-15.006,0.002-22.51c0-0.615-0.016-1.225-0.216-1.814
		c0.888-2.894,1.761-5.794,2.665-8.684c2.186-6.979,4.396-13.949,6.562-20.934c0.235-0.754,0.544-1.064,1.384-1.056
		c4.469,0.045,8.939,0.021,13.41,0.021c1.062,0.001,1.066,0.007,0.699,1.049c-6.229,17.692-12.463,35.384-18.68,53.081
		c-0.225,0.64-0.518,0.934-1.236,0.901C666.952,187.41,665.42,187.434,663.89,187.421"/>
	<path fill="#5D5D5D" d="M594.937,146.973c-0.166,0.479-0.57,0.785-0.859,1.171c-2.894,3.859-3.938,8.209-3.447,12.965
		c0.057,0.548,0.162,1.083-0.104,1.615c-3.031,6.08-7.575,10.742-13.346,14.256c-0.531,0.186-0.731-0.11-0.818-0.564
		c-0.076-0.394-0.068-0.792-0.07-1.19c-0.004-6.736,0.003-13.474-0.007-20.211c-0.001-1.026,0.271-2.045,0.081-3.076
		c0.64-3.45,2.047-6.59,3.937-9.515c3.339-5.166,7.913-8.859,13.583-11.213c0.225-0.093,0.463-0.147,0.696-0.221
		c0.522,0.145,0.589,0.564,0.61,1.011c0.042,0.827,0.024,1.654,0.024,2.481c0.001,2.972,0,5.944,0.001,8.916
		C595.218,144.597,595.278,145.801,594.937,146.973"/>
	<path fill="#5D5D5D" d="M609.647,176.252c0.002,4.457,0.005,8.915,0.007,13.372c-5.308,0.606-10.441-0.122-15.392-2.101
		c-4.818-1.927-8.834-4.955-12.106-8.987c-0.494-0.608-0.522-0.899,0.175-1.404c3.768-2.725,6.892-6.048,9.13-10.159
		c0.097-0.18,0.144-0.413,0.405-0.483C595.54,173.843,601.182,177.626,609.647,176.252"/>
	<path fill="#5D5D5D" d="M548.308,138.742c-0.303-0.4-0.24-0.871-0.24-1.324c-0.002-4.825-0.002-9.652-0.001-14.477
		c4.649-1.842,9.497-2.347,14.437-2.01c5.115,0.348,9.928,1.779,14.365,4.391c0.986,0.581,0.986,0.582,0.293,1.533
		c-2.178,2.998-4.374,5.984-6.522,9.004c-0.436,0.612-0.761,0.737-1.476,0.39c-4.797-2.335-9.759-2.879-14.892-1.204
		C551.981,135.793,550.058,137.125,548.308,138.742"/>
	<path fill="#5D5D5D" d="M576.368,151.938c0.496,0.384,0.373,0.938,0.373,1.443c0.006,7.432,0.003,14.865,0.01,22.298
		c0,0.471-0.142,1.01,0.43,1.3c-3.265,2.132-6.865,3.417-10.66,4.193c-1.703,0.349-3.423,0.615-5.173,0.572
		c-1.071,0.129-2.144,0.13-3.216-0.002c-1.289,0.045-2.567-0.051-3.831-0.312c0.005-4.059,0.011-8.115,0.015-12.174
		c0.002-0.55-0.033-1.109,0.416-1.539c1.246,0.416,2.508,0.75,3.827,0.807c1.154,0.102,2.308,0.082,3.462,0.009
		c5.121-0.613,9.377-3.015,13.191-6.355c0.487-0.427,0.414-0.902,0.379-1.416c-0.193-2.859,0.041-5.688,0.637-8.487
		C576.253,152.157,576.32,152.05,576.368,151.938"/>
	<path fill="#5D5D5D" d="M594.937,146.973c-0.225-0.395-0.172-0.829-0.172-1.254c-0.003-4.429-0.002-8.858-0.003-13.287
		c0-0.487,0.033-0.98-0.18-1.442c4.453-1.776,9.088-2.391,13.852-2.109c2.603,0.153,5.177,0.515,7.655,1.381
		c-0.166,0.532-0.186,1.079-0.186,1.632c0.004,4.46,0.002,8.921,0.004,13.382c-2.561-1.84-5.375-2.979-8.549-3.179
		c-2.039-0.129-4.02,0.145-5.947,0.797C598.929,143.733,596.722,145.022,594.937,146.973"/>
	<path fill="#5D5D5D" d="M711.139,187.421v-12.483c5.759-0.012,11.517-0.021,17.276-0.045c0.538-0.001,0.681,0.242,0.681,0.727
		c-0.008,3.706-0.008,7.413,0,11.122c0,0.481-0.143,0.728-0.681,0.725C722.655,187.441,716.897,187.434,711.139,187.421"/>
	<path fill="#5D5D5D" d="M727.983,144.955c-5.082-0.001-10.165-0.001-15.247-0.003c-1.41-0.001-1.412-0.004-1.413-1.45
		c-0.001-3.674,0-7.349,0-11.024c5.349-0.011,10.698-0.02,16.047-0.036c0.425-0.002,0.692,0.078,0.686,0.596
		C728.007,137.01,728.142,140.983,727.983,144.955"/>
	<path fill="#5D5D5D" d="M708.381,166.07c0-3.701-0.001-7.403,0.001-11.105c0-1.351,0.017-1.366,1.402-1.366
		c4.679-0.001,9.36-0.001,14.04-0.001c0.034,0.27,0.1,0.539,0.101,0.81c0.006,3.577-0.017,7.155,0.019,10.731
		c0.008,0.759-0.219,0.985-0.983,0.978C718.101,166.074,713.24,166.081,708.381,166.07"/>
	<path fill="#5D5D5D" d="M860.605,136.378c-0.001-0.764-0.026-1.529,0.009-2.291c0.024-0.543-0.145-0.795-0.72-0.751
		c-0.425,0.033-0.855,0.001-1.282-0.006c-0.33-0.005-0.388-0.218-0.388-0.496c0-0.267,0.122-0.401,0.381-0.401
		c1.648-0.002,3.299-0.002,4.948,0.001c0.263,0,0.375,0.151,0.379,0.409c0.004,0.285-0.086,0.478-0.404,0.487
		c-0.152,0.004-0.306,0.008-0.458,0.011c-1.492,0.027-1.44-0.271-1.441,1.512c-0.002,1.222,0.011,2.444-0.009,3.667
		c-0.006,0.358,0.16,0.858-0.489,0.879c-0.748,0.025-0.499-0.545-0.516-0.914C860.584,137.785,860.606,137.081,860.605,136.378"/>
	<path fill="#5D5D5D" d="M562.021,168.534c-1.154,0.224-2.309,0.239-3.461-0.009C559.713,168.528,560.867,168.531,562.021,168.534"
		/>
	<path fill="#5D5D5D" d="M558.132,181.743c1.072,0,2.145,0,3.216,0C560.276,181.908,559.204,181.908,558.132,181.743"/>
</g>
<g>
	<path fill="#333333" d="M106.731,106.872c0.027-0.559-0.216-0.784-0.766-0.774c-3.936,0.009-7.863,0.009-11.799-0.01
		c-0.648,0-0.829,0.28-0.829,0.883c0.027,1.594,0.018,3.197,0,4.801c0,0.359,0.099,0.748-0.153,1.107
		c-0.522-0.342-0.711-0.855-1.018-1.279c-2.297-3.197-5.269-5.395-9.142-6.286c-2.198-0.514-4.431-0.541-6.656-0.37
		c-4.702,0.36-8.863,2.008-12.241,5.404c-2.612,2.63-4.431,5.747-5.737,9.177c-1.477,3.855-2.081,7.864-2.162,11.971
		c-0.072,4.152,0.279,8.25,1.622,12.205c1.936,5.683,5.305,10.232,10.817,12.916c4.333,2.117,8.935,2.469,13.637,1.729
		c4.305-0.674,7.683-2.836,10.079-6.502c0.135-0.199,0.288-0.379,0.423-0.576c0.243,2.377,0.351,4.691,0.108,7.008
		c-0.162,1.494-0.333,2.99-0.774,4.43c-0.946,3.125-2.945,5.189-6.116,6.063c-2.963,0.811-5.945,0.756-8.917,0.055
		c-2.188-0.514-3.792-1.713-4.431-3.945c-0.171-0.623-0.478-0.855-1.126-0.855c-4.368,0.027-8.737,0.008-13.105,0.018
		c-0.937,0.01-1.018,0.1-0.892,1.018c0.414,2.936,1.441,5.619,3.432,7.891c2.387,2.711,5.476,4.287,8.854,5.359
		c4.936,1.557,10.015,1.721,15.122,1.359c2.963-0.197,5.873-0.684,8.692-1.648c6.701-2.279,10.952-6.746,12.294-13.816
		c0.513-2.686,0.784-5.377,0.784-8.098v-48.214C106.731,107.547,106.713,107.205,106.731,106.872 M93.221,133.083
		c-0.063,2.125-0.307,4.242-0.982,6.295c-2.009,6.107-8.07,9.179-14.168,7.152c-2.261-0.748-3.954-2.198-5.17-4.233
		c-1.288-2.161-1.981-4.521-2.261-6.998c-0.126-1.054-0.153-2.126-0.198-2.802c0.117-2.521,0.208-4.656,0.775-6.728
		c0.171-0.613,0.351-1.217,0.567-1.802c1.721-4.575,4.954-6.936,9.638-7.071c4.63-0.126,8.34,2.216,10.259,6.504
		C93.059,126.48,93.32,129.767,93.221,133.083"/>
	<path fill="#333333" d="M286.221,135.766c0.343,0.01,0.686,0,1.019,0h16.014c5.585,0,11.16,0,16.744-0.009
		c1.198,0,1.233-0.018,1.225-1.198c-0.018-2.233,0-4.468-0.135-6.691c-0.216-3.36-0.901-6.639-2.297-9.719
		c-2.261-5.026-5.585-9.134-10.718-11.403c-6.899-3.053-14.033-3.405-21.112-0.766c-7.62,2.837-12.15,8.574-14.159,16.356
		c-1.359,5.287-1.468,10.655-0.802,16.042c0.388,3.144,1.181,6.196,2.621,9.043c2.621,5.17,6.99,8.34,12.187,10.493
		c4.99,2.053,10.196,2.27,15.456,1.449c7.322-1.133,12.78-5.043,16.519-11.411c0.739-1.262,1.279-2.603,1.576-4.053
		c0.262-1.307,0.279-1.324-1.026-1.324c-3.828-0.019-7.666,0.026-11.493-0.036c-0.974-0.009-1.459,0.314-1.919,1.152
		c-1.485,2.729-3.81,4.314-6.899,4.774c-1.558,0.233-3.098,0.171-4.629-0.153c-2.612-0.559-4.801-1.828-6.368-4.026
		c-1.693-2.369-2.314-5.089-2.441-7.943C285.555,135.883,285.834,135.766,286.221,135.766 M286.077,125.354
		c0.234-1.297,0.621-2.54,1.162-3.738c1.964-4.323,5.404-6.367,10.484-5.818c5.143,0.55,8.529,4.135,9.123,9.891
		c0.09,0.846,0.018,0.9-1.026,0.909c-3.152,0.009-6.305,0-9.457,0c-3.107,0-6.206,0.009-9.313,0
		C285.853,126.588,285.861,126.57,286.077,125.354"/>
	<path fill="#333333" d="M156.648,136.126c0.342,0.009,0.675-0.009,1.018-0.009h18.933c4.603,0,9.214,0.009,13.826,0
		c1.198,0,1.251-0.027,1.243-1.217c-0.018-2.035-0.081-4.07-0.162-6.115c-0.099-2.774-0.567-5.503-1.486-8.124
		c-2.053-5.846-5.485-10.583-11.187-13.366c-4.647-2.279-9.61-2.901-14.735-2.45c-10.151,0.874-17.861,7.169-20.635,16.951
		c-1.675,5.936-1.774,11.962-0.891,18.031c1.197,8.278,5.512,14.249,13.096,17.807c5.755,2.703,11.772,3.145,17.915,1.955
		c7.341-1.424,12.655-5.629,16.104-12.213c0.675-1.289,1.153-2.667,1.234-4.225c-0.315-0.063-0.45-0.117-0.585-0.117
		c-4.179-0.009-8.349,0-12.529-0.027c-0.684-0.009-1.044,0.271-1.342,0.848c-1,1.909-2.432,3.377-4.422,4.26
		c-1.594,0.702-3.261,0.883-4.98,0.828c-7.044-0.225-10.764-5.224-11.097-12.123C155.945,136.333,156.152,136.108,156.648,136.126
		 M160.269,118.32c1.981-1.811,4.449-2.351,7.035-2.216c5.692,0.297,9.241,4.008,9.925,9.727c0.126,1.055,0.045,1.153-0.918,1.153
		c-6.449,0.009-12.898,0-19.347,0c-0.189,0-0.369-0.072-0.648-0.134C156.756,123.562,157.792,120.589,160.269,118.32"/>
	<path fill="#333333" d="M235.557,112.943c0.574-0.516,1.187-0.976,1.693-1.536c4.094-4.523,9.207-6.608,15.275-6.539
		c2.791,0.033,5.509,0.367,8.104,1.441c4.866,2.014,7.307,5.669,7.487,10.919c0.105,3.038-0.475,5.987-0.994,8.947
		c-1.606,9.167-3.229,18.332-4.846,27.5c-0.237,1.336-0.488,2.67-0.711,4.008c-0.096,0.568-0.353,0.82-0.963,0.818
		c-4.125-0.02-8.25-0.002-12.374-0.02c-0.842-0.004-0.912-0.117-0.739-1.125c0.409-2.389,0.857-4.771,1.276-7.159
		c1.456-8.309,2.91-16.618,4.358-24.927c0.201-1.154,0.225-2.324,0.108-3.485c-0.275-2.753-1.889-4.619-4.554-5.169
		c-4.723-0.974-10.032,0.395-13.135,5.575c-1.393,2.321-2.188,4.858-2.658,7.498c-1.588,8.925-3.147,17.855-4.712,26.786
		c-0.353,2.016-0.344,2.016-2.424,2.016c-3.446,0.002-6.891,0.006-10.336-0.002c-1.307-0.004-1.353-0.045-1.134-1.303
		c0.698-4.012,1.422-8.02,2.129-12.03c1.51-8.545,3.02-17.091,4.522-25.638c0.706-4.009,1.395-8.022,2.101-12.034
		c0.232-1.326,0.245-1.337,1.556-1.338c3.543-0.008,7.085-0.008,10.627-0.001c1.343,0.002,1.36,0.018,1.135,1.411
		c-0.217,1.339-0.474,2.673-0.711,4.009C235.557,112.026,235.388,112.482,235.557,112.943"/>
	<path fill="#333333" d="M189.659,93.133c0.45-0.483,0.866-0.403,1.235-0.469c2.552-0.45,4.978-1.261,7.266-2.481
		c4.703-2.507,7.667-6.442,9.36-11.415c1.553-4.559,2.003-9.273,1.911-14.057c-0.021-1.115-0.12-2.229-0.179-3.343
		c-0.068-1.302-0.068-1.308,1.256-1.598c2.513-0.548,5.041-1.019,7.587-1.381c3.46-0.493,6.934-0.864,10.438-0.671
		c3.123,0.173,6.159,0.762,9.034,2.036c1.793,0.793,3.412,1.845,4.77,3.273c1.014,1.068,1.806,2.275,2.266,3.69
		c0.409,1.262,0.347,2.44-0.316,3.64c-7.004,12.668-17.567,20.615-31.673,23.757c-7.173,1.597-14.355,1.33-21.469-0.54
		C190.683,93.453,190.227,93.302,189.659,93.133"/>
	<path fill="#333333" d="M125.777,114.584c1.222-1.807,2.27-3.442,3.551-4.906c3.592-4.104,8.235-5.127,13.531-4.7
		c-0.334,2.583-0.63,5.031-0.976,7.473c-0.232,1.633-0.509,3.26-0.817,4.879c-0.293,1.54-0.322,1.528-1.877,1.537
		c-1.211,0.007-2.417,0.002-3.625,0.224c-5.451,1-8.347,4.054-9.002,9.537c-0.208,1.737-0.302,3.479-0.3,5.229
		c0.013,7.528,0.005,15.055,0.005,22.583c0,0.338,0.01,0.68-0.003,1.02c-0.037,1-0.04,1.025-1.102,1.029
		c-3.738,0.012-7.477,0.006-11.214,0.004c-0.292,0-0.583-0.012-0.874-0.004c-0.48,0.008-0.716-0.221-0.715-0.701
		c0.001-0.34-0.01-0.68-0.01-1.02v-48.951c0-0.145-0.001-0.291,0.001-0.437c0.023-1.265,0.023-1.279,1.299-1.281
		c3.544-0.009,7.087-0.009,10.632,0c1.248,0.002,1.261,0.017,1.27,1.305c0.013,1.845-0.001,3.691,0.007,5.536
		C125.561,113.406,125.485,113.889,125.777,114.584"/>
	<path fill="#333333" d="M340.479,114.152c1.022-1.427,1.93-2.736,2.879-4.013c2.255-3.027,5.283-4.81,8.99-5.409
		c1.435-0.232,2.888-0.333,4.352-0.203c0.596,0.054,0.9,0.217,0.806,0.875c-0.569,3.984-0.979,7.993-1.806,11.938
		c-0.234,1.126-0.328,1.151-1.468,1.113c-1.656-0.057-3.299,0.074-4.912,0.442c-4.259,0.972-6.887,3.582-7.771,7.882
		c-0.431,2.098-0.574,4.228-0.573,6.369c0.002,7.768,0.003,15.536-0.002,23.304c-0.001,1.617,0.183,1.584-1.572,1.586
		c-3.689,0-7.379,0.006-11.067-0.006c-1.135-0.004-1.136-0.027-1.17-1.109c-0.009-0.242-0.003-0.484-0.003-0.729
		c0-16.216-0.002-32.434,0.003-48.65c0-2.032-0.176-1.813,1.771-1.82c3.348-0.01,6.697-0.009,10.046,0
		c1.288,0.004,1.301,0.021,1.31,1.278c0.013,1.845-0.005,3.691,0.009,5.536C340.303,113.012,340.202,113.5,340.479,114.152"/>
	<path fill="#333333" d="M193.004,158.26c0.307-1.809,0.614-3.666,0.939-5.52c1.722-9.789,3.448-19.577,5.176-29.364
		c0.953-5.396,1.912-10.789,2.872-16.184c0.191-1.071,0.198-1.091,1.283-1.093c3.834-0.01,7.668-0.008,11.501-0.002
		c1.352,0.002,1.39,0.043,1.149,1.406c-1.003,5.682-2.021,11.361-3.024,17.042c-1.407,7.974-2.808,15.948-4.21,23.924
		c-0.511,2.913-1.009,5.829-1.525,8.741c-0.225,1.264-0.24,1.277-1.445,1.279c-3.883,0.006-7.765,0.004-11.647-0.002
		C193.741,158.488,193.393,158.549,193.004,158.26"/>
	<path fill="#333333" d="M274.684,177.342c0.019-0.549-0.226-0.793-0.784-0.783c-1.018,0.018-2.035,0.027-3.053,0
		c-0.586-0.01-0.739,0.279-0.757,0.803c-0.027,0.736,0.117,1.504-0.162,2.404c-1.018-1-1.864-1.938-2.964-2.586
		c-3.801-2.26-9.033-1.838-12.537,1.045c-2.125,1.748-3.593,3.938-4.359,6.576c-1.207,4.143-1.207,8.33-0.171,12.5
		c0.928,3.766,3.342,6.287,6.926,7.666c2.874,1.098,5.801,1.008,8.701,0.08c1.712-0.539,2.98-1.746,4.314-3.35
		c0.108,2.414,0.018,4.486-0.486,6.529c-0.712,2.936-2.657,4.684-5.647,5.08c-1.161,0.154-2.314,0.18-3.485,0.055
		c-2.432-0.262-4.261-1.289-4.9-3.82c-0.136-0.531-0.423-0.701-0.918-0.691c-1.117,0.008-2.234-0.02-3.352,0.008
		c-1.009,0.018-1.009,0.063-0.828,1.125c0.577,3.541,2.747,5.676,6.025,6.801c3.063,1.055,6.188,1.117,9.331,0.441
		c4.847-1.045,7.638-4.125,8.647-8.908c0.351-1.666,0.468-3.359,0.468-5.061c0.01-8.35,0-16.699,0-25.041
		C274.692,177.918,274.684,177.631,274.684,177.342 M268.648,197.383c-2.017,4.287-6.439,4.756-9.205,3.918
		c-2.035-0.621-3.341-2.063-4.17-3.99c-0.342-0.801-0.541-1.648-0.711-2.504c-0.234-1.152-0.181-2.314-0.208-3.477
		c-0.026-2.207,0.199-4.359,0.982-6.432c1.802-4.711,6.395-5.385,9.528-4.25c1.973,0.711,3.424,2.08,4.144,4.025
		C270.603,188.934,270.594,193.24,268.648,197.383"/>
	<path fill="#333333" d="M340.938,177.297c0.018-0.469-0.153-0.73-0.666-0.73c-1.063,0.01-2.135,0.01-3.197,0
		c-0.568-0.008-0.775,0.254-0.758,0.795c0.019,0.729,0,1.449,0,2.268c-0.531-0.088-0.666-0.369-0.854-0.576
		c-3.063-3.512-8.414-4.152-12.304-2.359c-3.306,1.521-5.504,4.117-6.647,7.539c-1.495,4.494-1.441,9.07-0.207,13.619
		c0.514,1.9,1.54,3.539,3.044,4.863c2.892,2.539,6.269,3.35,10.016,2.9c2.531-0.307,4.62-1.369,6.224-3.369
		c0.117-0.145,0.217-0.342,0.576-0.207c-0.098,2.215-0.036,4.486-0.684,6.684c-0.657,2.234-2.126,3.656-4.342,4.305
		c-1.513,0.441-3.053,0.486-4.611,0.334c-2.432-0.234-4.278-1.234-4.953-3.756c-0.145-0.559-0.441-0.783-1.019-0.766
		c-1.071,0.027-2.144-0.01-3.206,0.018c-0.955,0.018-0.99,0.072-0.893,1.01c0.027,0.287,0.091,0.566,0.153,0.855
		c0.775,3.188,2.919,5.053,5.909,6.07c3.107,1.053,6.277,1.1,9.475,0.387c4.531-1.018,7.26-3.855,8.341-8.33
		c0.478-1.938,0.621-3.92,0.612-5.918c-0.009-8.252,0-16.51,0-24.762C340.947,177.873,340.929,177.586,340.938,177.297
		 M335.065,197.068c-1.63,3.529-5.124,5.205-8.89,4.35c-2.099-0.479-3.494-1.783-4.44-3.648c-0.576-1.135-0.864-2.359-1.018-3.621
		c-0.342-2.918-0.233-5.818,0.667-8.629c1.126-3.512,3.603-5.35,7.098-5.359c3.323-0.008,6.061,2.037,7.142,5.379
		c0.522,1.629,0.748,3.305,0.676,4.846C336.381,192.826,336.021,195.014,335.065,197.068"/>
	<path fill="#333333" d="M137.751,186.52c-0.234-1.891-0.838-3.684-1.82-5.332c-4.143-6.934-13.267-7.26-17.78-2.16
		c-0.207,0.225-0.333,0.621-0.891,0.504c0-0.703-0.027-1.424,0.018-2.135c0.036-0.738-0.217-1.08-0.991-1.035
		c-0.874,0.045-1.747,0-2.621,0.008c-1.288,0.018-1.288,0.027-1.315,1.289v37.568c0,0.287,0.018,0.584,0,0.873
		c-0.027,0.549,0.234,0.801,0.774,0.791c0.973-0.008,1.946,0.01,2.909,0c1.342-0.008,1.36-0.018,1.36-1.377
		c0.009-3.783,0-7.576,0.009-11.357c0-0.461-0.125-0.955,0.153-1.379c0.342-0.055,0.459,0.199,0.604,0.369
		c2.666,3.01,6.088,3.648,9.817,2.955c4.405-0.803,7.224-3.568,8.755-7.666C138.174,194.572,138.256,190.555,137.751,186.52
		 M131.789,197.158c-1.513,3.881-5.161,5.592-9.097,4.494c-2.053-0.568-3.44-1.9-4.323-3.801c-0.819-1.756-1.162-3.648-1.153-6.387
		c-0.018-2.197,0.234-4.359,0.982-6.432c0.811-2.242,2.125-4.088,4.566-4.709c4.26-1.1,7.62,0.486,9.052,4.195
		C133.428,188.717,133.401,192.986,131.789,197.158"/>
	<path fill="#333333" d="M248.293,203.912c0.009-0.432-0.019-0.873,0-1.307c0.036-0.584-0.233-0.783-0.783-0.711
		c-0.289,0.037-0.586,0.055-0.874,0.037c-1.081-0.045-1.459-0.416-1.531-1.514c-0.027-0.387-0.009-0.775-0.009-1.162
		c0-5.197,0-10.395-0.01-15.582c0-3.27-1.477-5.531-4.484-6.826c-2.469-1.063-5.054-1.316-7.692-1.252
		c-2.261,0.053-4.404,0.576-6.422,1.639c-2.891,1.531-3.972,4.098-4.161,7.188c-0.045,0.648,0.243,0.865,0.855,0.846
		c0.874-0.018,1.748-0.053,2.612,0.01c0.847,0.063,1.18-0.234,1.324-1.09c0.432-2.441,1.98-3.783,4.396-4.207
		c1.81-0.324,3.584-0.234,5.332,0.244c2.477,0.693,3.477,2.162,3.342,4.746c-0.09,1.631-0.848,2.469-2.486,2.701
		c-1.585,0.217-3.18,0.379-4.766,0.604c-2.296,0.334-4.628,0.434-6.817,1.379c-3.414,1.469-5.232,4-5.351,7.756
		c-0.116,4.17,2.522,7.736,6.594,8.609c4.422,0.955,8.34-0.225,11.781-3.115c0.369-0.299,0.621-0.748,1.17-0.938
		c0.145,0.414,0.28,0.811,0.406,1.207c0.558,1.721,1.792,2.604,3.539,2.793c0.819,0.098,1.648,0.09,2.459-0.092
		C248.582,205.461,248.274,205.598,248.293,203.912 M239.917,196.113c-0.297,1.539-1.027,2.836-2.271,3.773
		c-2.216,1.656-4.729,2.404-7.503,2.08c-2.305-0.27-3.972-1.855-4.134-3.99c-0.153-2.09,0.693-3.928,3.152-4.809
		c1.009-0.361,2.054-0.541,3.107-0.686c2.577-0.342,5.18-0.541,7.828-1.693C240.025,192.744,240.24,194.428,239.917,196.113"/>
	<path fill="#333333" d="M167.663,204.471c-0.036-0.531,0.009-1.072-0.009-1.604c-0.027-0.963-0.036-0.963-0.963-0.953
		c-0.144,0-0.288,0.018-0.432,0.018c-1.333,0-1.739-0.371-1.802-1.703c-0.018-0.379,0-0.775,0-1.162
		c-0.009-5.188,0-10.385-0.009-15.582c-0.009-3.225-1.576-5.395-4.512-6.646c-2.458-1.063-5.053-1.314-7.692-1.244
		c-2.414,0.064-4.692,0.65-6.791,1.883c-2.657,1.568-3.576,4.072-3.765,6.98c-0.036,0.541,0.162,0.82,0.739,0.811
		c0.82-0.018,1.648,0,2.477,0c1.288-0.008,1.333,0,1.612-1.242c0.45-2.055,1.667-3.377,3.684-3.9
		c2.107-0.539,4.233-0.469,6.314,0.207c2.252,0.73,3.17,2.135,3.044,4.514c-0.108,1.828-0.802,2.594-2.648,2.846
		c-2.36,0.307-4.72,0.576-7.08,0.883c-1.729,0.225-3.431,0.586-5.017,1.395c-3.549,1.803-5.044,4.766-4.566,9.063
		c0.369,3.342,3.008,6.26,6.503,6.998c4.431,0.936,8.35-0.244,11.781-3.135c0.369-0.307,0.621-0.756,1.162-0.936
		c0.126,0.422,0.252,0.828,0.396,1.232c0.577,1.703,1.811,2.604,3.558,2.783c1.018,0.109,2.027-0.018,3.035-0.207
		C167.483,205.615,167.717,205.209,167.663,204.471 M159.269,196.229c-0.333,1.604-1.153,2.883-2.459,3.82
		c-2.17,1.539-4.603,2.242-7.269,1.928c-2.927-0.361-4.539-2.541-4.062-5.432c0.279-1.703,1.378-2.711,2.909-3.324
		c1.179-0.467,2.432-0.656,3.674-0.801c2.45-0.297,4.9-0.551,7.413-1.648C159.395,192.762,159.629,194.5,159.269,196.229"/>
	<path fill="#333333" d="M220.309,205.406c-1.752,0-3.402-0.047-5.048,0.02c-0.805,0.031-1.215-0.309-1.608-0.951
		c-2.476-4.057-4.985-8.094-7.49-12.133c-0.278-0.447-0.489-0.947-0.997-1.387c-1.323,1.012-2.501,2.211-3.73,3.35
		c-0.369,0.344-0.236,0.818-0.238,1.242c-0.01,2.719-0.005,5.438-0.006,8.154c0,0.338-0.01,0.678-0.009,1.02
		c0.003,0.484-0.24,0.689-0.72,0.684c-1.116-0.014-2.232-0.012-3.349-0.002c-0.504,0.002-0.68-0.27-0.674-0.73
		c0.004-0.338-0.005-0.678-0.005-1.018c0-12.135-0.002-24.27,0.002-36.402c0-1.936-0.147-1.719,1.707-1.732
		c0.775-0.006,1.553,0.014,2.329,0c0.484-0.008,0.718,0.195,0.712,0.686c-0.005,0.389,0.007,0.775,0.007,1.166
		c0.001,6.357-0.002,12.715,0.007,19.074c0.001,0.518-0.102,1.053,0.129,1.67c0.547-0.156,0.862-0.59,1.22-0.941
		c3.391-3.334,6.79-6.658,10.143-10.031c0.636-0.639,1.263-0.928,2.163-0.891c1.576,0.068,3.157,0.02,4.804,0.02
		c-0.122,0.652-0.528,0.865-0.821,1.154c-3.046,2.992-6.097,5.98-9.145,8.971c-0.876,0.861-0.874,0.707-0.178,1.781
		c3.37,5.215,6.74,10.428,10.1,15.648C219.888,204.258,220.311,204.633,220.309,205.406"/>
	<path fill="#333333" d="M293.854,179.982c0.321-0.418,0.592-0.893,0.975-1.246c3.66-3.391,7.938-3.865,12.463-2.32
		c2.949,1.008,4.294,3.473,4.789,6.434c0.209,1.244,0.312,2.498,0.307,3.768c-0.018,5.678-0.008,11.355-0.008,17.033
		c0,0.342-0.01,0.682-0.003,1.021c0.01,0.463-0.162,0.732-0.67,0.729c-1.261-0.008-2.521-0.008-3.784-0.002
		c-0.438,0.004-0.604-0.242-0.62-0.631c-0.019-0.389-0.021-0.777-0.021-1.166c0-5.436,0.004-10.873-0.003-16.307
		c-0.001-1.215-0.051-2.426-0.418-3.6c-0.643-2.063-2.022-3.25-4.169-3.531c-4.7-0.615-8.758,2.662-8.924,7.4
		c-0.145,4.168-0.063,8.346-0.079,12.518c-0.004,1.457-0.018,2.914,0.005,4.369c0.01,0.658-0.203,0.986-0.916,0.961
		c-1.116-0.035-2.233-0.021-3.348-0.004c-0.561,0.008-0.791-0.248-0.782-0.783c0.006-0.34-0.007-0.68-0.007-1.02
		c-0.001-8.494-0.001-16.988-0.001-25.482c0-0.193-0.003-0.387,0.002-0.582c0.027-1.252,0.028-1.256,1.316-1.268
		c0.874-0.01,1.747,0.018,2.62-0.006c0.612-0.018,0.882,0.219,0.859,0.852c-0.031,0.867-0.009,1.736-0.009,2.605
		C293.57,179.811,293.711,179.895,293.854,179.982"/>
	<path fill="#333333" d="M193.003,194.971c-0.038,5.684-4.084,10.262-9.609,11.043c-1.888,0.268-3.771,0.305-5.637-0.125
		c-3.44-0.793-5.851-2.912-7.533-5.932c-1.838-3.305-2.222-6.887-1.912-10.576c0.17-2.033,0.558-4.027,1.345-5.934
		c2.382-5.766,7.888-8.865,14.06-7.869c0.765,0.123,1.534,0.254,2.275,0.473c4.175,1.24,7.126,5.209,7.096,9.475
		c-0.003,0.42-0.122,0.645-0.563,0.645c-1.212-0.004-2.424-0.008-3.638,0c-0.426,0.002-0.583-0.242-0.674-0.609
		c-0.106-0.422-0.227-0.842-0.376-1.252c-1.263-3.445-3.293-4.508-6.85-4.377c-2.908,0.109-4.882,1.707-6.042,4.316
		c-1.252,2.814-1.532,5.789-1.32,8.828c0.133,1.906,0.65,3.693,1.489,5.428c2.106,4.357,9.252,4.664,11.728,0.326
		c0.531-0.932,0.989-1.891,1.233-2.939c0.15-0.641,0.435-0.98,1.187-0.939C190.505,195.02,191.758,194.971,193.003,194.971"/>
	<path fill="#333333" d="M284.175,190.992v12.672c0,0.34-0.011,0.68-0.007,1.02c0.007,0.467-0.188,0.721-0.686,0.719
		c-1.213-0.01-2.428-0.01-3.641,0.002c-0.487,0.004-0.711-0.221-0.709-0.699c0.001-0.338-0.007-0.678-0.007-1.018
		c-0.001-8.547-0.001-17.092-0.001-25.637c0-0.242,0.017-0.486,0-0.729c-0.049-0.664,0.202-0.984,0.914-0.959
		c1.067,0.035,2.136,0.033,3.203,0c0.69-0.023,0.954,0.248,0.938,0.938c-0.028,1.357-0.006,2.717-0.006,4.078
		C284.176,184.582,284.175,187.787,284.175,190.992"/>
	<path fill="#333333" d="M279.131,168.119c0.069-0.682-0.366-1.768,0.188-2.352c0.619-0.654,1.744-0.219,2.646-0.236
		c2.211-0.043,2.212-0.014,2.212,2.227c-0.001,0.822-0.021,1.646,0.003,2.469c0.017,0.58-0.147,0.912-0.806,0.898
		c-1.161-0.025-2.324-0.021-3.486-0.004c-0.562,0.008-0.774-0.252-0.761-0.791C279.144,169.654,279.131,168.975,279.131,168.119"/>
</g>
</svg>
