<?xml version="1.0" encoding="utf-8"?>
<!-- Generator: Adobe Illustrator 16.0.0, SVG Export Plug-In . SVG Version: 6.00 Build 0)  -->
<!DOCTYPE svg PUBLIC "-//W3C//DTD SVG 1.1//EN" "http://www.w3.org/Graphics/SVG/1.1/DTD/svg11.dtd">
<svg version="1.1" id="Layer_1" xmlns="http://www.w3.org/2000/svg" xmlns:xlink="http://www.w3.org/1999/xlink" x="0px" y="0px"
	 width="400px" height="300px" viewBox="0 0 400 300" enable-background="new 0 0 400 300" xml:space="preserve">
<g>
	<path fill="#333333" d="M86.091,214.643v-4.658c-2.362,0.606-3.969,1.88-4.489,3.941c-0.48,1.905-1.624,2.147-3.18,2.105
		c-0.791-0.021-1.583-0.003-2.608-0.003c-0.08-1.661-0.154-3.216-0.234-4.876c-2.043,0.16-3.281,1.386-4.003,2.968
		c-0.66,1.444-1.633,1.586-2.943,1.45c-3.408-0.354-3.41-0.339-4.334-4.354c-0.774,0.502-1.712,0.795-2.099,1.426
		c-0.879,1.436-1.908,1.21-3.133,0.711c-10.289-4.191-18.373-10.851-23.659-20.775c-6.863-12.886-6.441-25.974-1.352-39.246
		c0.052-0.134,0.14-0.256,0.19-0.391c1.17-3.129,2.948-4.754,6.762-4.496c6.274,0.426,12.599,0.115,19.001,0.304
		c-2.792,1.656-5.31,3.508-6.95,6.55v-6.097c-4.797,0.836-8.393,5.113-8.371,9.934h25.486c-2.229,1.655-4.264,3.217-5.294,5.889
		c-0.066-1.493-0.132-2.987-0.197-4.46c-5.386-0.479-10.164,5.755-8.881,10.567h26.189c-2.513,1.673-5.08,3.082-6.278,6.134v-5.248
		c-5.176-0.065-9.213,4.91-8.61,10.586h36.835c-2.293,1.511-4.664,2.708-5.745,5.415l-0.413-0.158c0-0.903,0.017-1.808-0.003-2.711
		c-0.044-1.904-0.344-2.198-2.134-2.027c-3.998,0.381-6.974,2.239-8.608,6.015c-0.156,0.359-0.352,0.703-0.878,0.982v-5.088
		c-4.664-0.121-8.322,3.959-7.74,8.741h26.981c0.059,0.155,0.118,0.311,0.178,0.466c-2.781,1.563-5.207,3.484-6.353,6.524
		c-0.392,1.038-0.478,2.192-0.771,3.624h6.315c0.091,0.209,0.182,0.419,0.273,0.628c-2.244,1.669-4.487,3.339-6.982,5.196
		c-0.188-1.101-0.323-1.894-0.473-2.768c-2.496,0.609-4.291,1.847-5.064,4.34c-0.13,0.418-0.503,0.932-0.884,1.072
		C89.955,213.472,88.228,213.968,86.091,214.643 M45.416,170.977h7.445v-10.573C48.467,161.083,45.258,165.614,45.416,170.977
		 M97.798,194.89c-4.579-0.104-8.511,4.386-8.408,9.384h8.271c0.051-0.772,0.127-1.405,0.131-2.039
		C97.807,199.782,97.798,197.331,97.798,194.89 M64.51,173.584c-4.496-0.099-7.849,4.028-7.306,8.942h7.306V173.584z
		 M75.585,185.247c-4.438,0.181-7.664,4.281-6.666,8.271h6.666V185.247z M34.833,159.047h6.75v-8.687
		C38.083,150.948,35.053,154.847,34.833,159.047 M41.507,170.839v-9.294c-3.818,1.85-6.242,5.819-5.743,9.294H41.507z
		 M86.129,204.247c0-2.784,0.005-5.311-0.008-7.838c-0.001-0.265-0.113-0.528-0.174-0.794c-3.335,0.768-5.288,3.639-5.85,8.632
		H86.129z M64.584,186.189c-3.683,0.068-6.458,3.684-5.703,7.281h5.703V186.189z M47.154,182.496h5.722v-7.779
		C49.207,175.402,47.181,178.136,47.154,182.496 M70.055,204.254h5.414v-7.292C72.404,196.933,69.736,200.798,70.055,204.254
		 M37.569,182.56h3.953v-6.676C38.47,176.995,37.03,179.486,37.569,182.56 M48.864,193.473h4.024v-5.069
		C49.926,189.208,49.052,190.294,48.864,193.473 M64.534,199.076c-2.851,0.299-4.132,2.218-3.494,5.189h3.494V199.076z
		 M52.853,204.321v-4.37c-2.251,1.052-2.889,2.091-2.68,4.328c0.324,0.039,0.668,0.11,1.013,0.114
		C51.681,204.398,52.177,204.354,52.853,204.321 M41.637,189.992c-2.535,0.463-3.055,1.129-2.893,3.502h2.893V189.992z"/>
	<path fill="#333333" d="M165.296,194.685c-11.092-0.115-20.265-3.938-26.126-13.848c-4.965-8.396-5.613-17.348-3.042-26.638
		c2.016-7.288,5.585-13.498,12.201-17.587c4.11-2.541,8.675-3.593,13.427-3.896c4.591-0.293,9.125,0.173,13.522,1.564
		c8.346,2.642,13.809,8.282,16.604,16.479c3.17,9.295,2.684,18.568-0.912,27.632c-4.197,10.576-12.324,15.684-23.5,16.288
		C166.748,194.719,166.021,194.685,165.296,194.685 M181.51,162.981c-0.131-1.121-0.244-3.009-0.592-4.852
		c-0.825-4.382-2.257-8.519-5.014-12.136c-5.28-6.926-17.644-8.586-23.284,1.731c-1.645,3.01-2.821,6.36-3.692,9.691
		c-2.076,7.941-0.972,15.521,3.457,22.521c5.086,8.037,19.437,10.786,25.475-1.322C180.191,173.939,181.346,168.965,181.51,162.981"
		/>
	<path fill="#333333" d="M317.949,145.055c-3.346-0.99-6.367-1.934-9.416-2.771c-2.164-0.595-4.355-1.094-6.551-1.554
		c-7.285-1.526-13.15,1.18-17.328,6.892c-6.473,8.85-6.949,18.605-2.277,28.367c3.164,6.608,9.23,9.343,16.248,10.072
		c1.996,0.208,4.029,0.032,6.244,0.032v-11.809h-6.791c-0.082-1.04-0.188-1.804-0.193-2.568c-0.025-2.899-0.012-5.8-0.021-8.699
		c-0.004-0.948,0.1-1.722,1.369-1.711c6.014,0.052,12.029,0.063,18.045,0.099c0.127,0,0.252,0.116,0.531,0.252
		c0.037,0.401,0.125,0.887,0.127,1.373c0.01,8.99,0.004,17.98,0.023,26.97c0.002,1.22-0.025,2.235-1.557,2.652
		c-9.518,2.594-19.094,3.545-28.748,0.914c-12.932-3.524-20.451-13.132-20.896-26.635c-0.215-6.524,0.838-12.854,3.441-18.875
		c3.764-8.707,10.311-13.751,19.754-15.019c8.717-1.17,17.342-0.655,25.932,1.138c1.605,0.335,2.154,1.024,2.092,2.617
		C317.875,139.452,317.949,142.118,317.949,145.055"/>
	<path fill="#333333" d="M237.027,142.324h-26.807v-8.319h42.031c0,2.788,0.041,5.513-0.039,8.232
		c-0.014,0.508-0.482,1.026-0.805,1.496c-8.781,12.782-17.572,25.557-26.354,38.337c-0.436,0.634-0.807,1.312-1.439,2.348h28.086
		v8.361h-42.965c-0.104-3.854-0.809-7.566,1.83-11.271c8.658-12.157,17.014-24.53,25.48-36.824c0.402-0.584,0.768-1.196,1.148-1.796
		L237.027,142.324z"/>
	<path fill="#333333" d="M375.773,185.053v7.764h-37.545v-58.501c0.744-0.063,1.502-0.184,2.262-0.185
		c10.512-0.017,21.023-0.022,31.535-0.017c2.482,0.002,2.486,0.026,2.496,2.581c0.008,1.656,0.002,3.313,0.002,5.237h-24.43v16.354
		c0.9,0.054,1.75,0.147,2.6,0.148c5.002,0.009,10.004-0.017,15.006-0.004c2.211,0.005,2.307,0.123,2.326,2.353
		c0.016,1.799,0.004,3.598,0.004,5.686h-20.238v18.584H375.773z"/>
	<path fill="#333333" d="M390.824,117.707c0.031,4.825-3.822,8.568-8.785,8.534c-4.613-0.032-8.514-3.866-8.551-8.404
		c-0.039-4.758,3.861-8.599,8.764-8.63C387.027,109.177,390.793,112.911,390.824,117.707 M388.705,117.608
		c-0.033-3.866-2.979-6.829-6.695-6.735c-3.592,0.09-6.359,3.072-6.379,6.872c-0.02,3.801,2.959,6.745,6.746,6.668
		C386.104,124.338,388.738,121.505,388.705,117.608"/>
	<rect x="168.817" y="118.357" fill="#333333" width="8.923" height="9.067"/>
	<path fill="#333333" d="M161.019,118.391c0,2.774,0.053,5.365-0.053,7.95c-0.017,0.423-0.72,1.152-1.129,1.17
		c-2.576,0.108-5.158,0.055-7.916,0.055v-9.175H161.019z"/>
	<path fill="#333333" d="M53.142,122.083v-8.09h7.406C57.293,116.331,54.742,118.791,53.142,122.083"/>
	<path fill="#333333" d="M86.218,121.489v-7.468h6.431C90.568,116.438,88.407,118.948,86.218,121.489"/>
	<path fill="#333333" d="M75.778,165.117v-5.781h4.979C79.11,161.248,77.381,163.256,75.778,165.117"/>
	<path fill="#333333" d="M42.007,146.114c-0.163-2.145-0.955-4.434,1.301-5.976c1.739-1.189,2.555-3.946,6-3.078
		C45.551,139.272,43.24,142.248,42.007,146.114"/>
	<path fill="#333333" d="M86.301,177.277v-5.883h4.589C89.354,173.363,87.832,175.314,86.301,177.277"/>
	<path fill="#333333" d="M57.553,136.831c-1.55,1.456-3.187,2.992-4.823,4.529c0.125,0.181,0.251,0.361,0.377,0.542v-5.071H57.553z"
		/>
	<path fill="#333333" d="M64.762,154.121v-5.284h5.012C68.233,150.461,66.58,152.205,64.762,154.121"/>
	<path fill="#333333" d="M86.215,164.314v-4.975h4.484C89.2,161.003,87.734,162.629,86.215,164.314"/>
	<path fill="#333333" d="M110.216,194.017h3.98c-1.318,1.959-2.413,3.583-3.507,5.209c-0.158-0.054-0.316-0.108-0.474-0.162V194.017
		z"/>
	<path fill="#333333" d="M75.791,153.396v-4.587h4.387C78.771,150.28,77.37,151.745,75.791,153.396"/>
	<path fill="#333333" d="M97.875,175.481v-4.286h3.666C100.277,172.672,99.169,173.967,97.875,175.481"/>
	<path fill="#333333" d="M97.927,162.897v-3.567h3.354C100.106,160.58,99.115,161.634,97.927,162.897"/>
	<path fill="#333333" d="M113.472,182.822c-1.15,1.208-2.167,2.276-3.321,3.489v-3.489H113.472z"/>
	<path fill="#333333" d="M86.257,152.726v-3.944h2.843C88.201,150.028,87.363,151.192,86.257,152.726"/>
	<path fill="#333333" d="M67.813,137.041c-1.058,1.28-1.955,2.366-2.885,3.492C64.263,136.927,64.624,136.464,67.813,137.041"/>
	<path fill="#333333" d="M75.836,136.945h2.297c-0.814,1.24-1.476,2.245-2.297,3.495V136.945z"/>
	<path fill="#333333" d="M86.255,136.794h2.39c-1.055,0.725-1.846,1.267-2.39,1.642V136.794z"/>
	<path fill="#333333" d="M112.084,171.15c-0.688,0.769-1.293,1.446-2.02,2.258v-2.258H112.084z"/>
	<path fill="#333333" d="M77.446,126.616c-0.613,0.559-1.068,0.973-1.587,1.446C75.403,126.545,76.083,126.371,77.446,126.616"/>
	<path fill="#333333" d="M53.912,132.004c0.471-0.23,0.942-0.461,1.414-0.69c0.094,0.164,0.188,0.327,0.283,0.491
		c-0.492,0.251-0.984,0.502-1.476,0.753C54.059,132.373,53.986,132.188,53.912,132.004"/>
	<path fill="#333333" d="M65.905,127.916c-0.299,0.443-0.598,0.887-0.896,1.33c-0.116-0.066-0.231-0.133-0.346-0.198
		c0.258-0.486,0.517-0.973,0.776-1.459C65.594,127.697,65.75,127.807,65.905,127.916"/>
	<path fill="#333333" d="M97.636,149.58c0.337-0.364,0.674-0.729,1.011-1.093c0.135,0.118,0.27,0.235,0.405,0.353l-0.888,1.124
		C97.987,149.836,97.812,149.708,97.636,149.58"/>
	<path fill="#333333" d="M378.975,113.594c1.35-0.063,2.484-0.182,3.617-0.152c1.238,0.033,2.729,0.123,3.025,1.542
		c0.195,0.936-0.428,2.04-0.705,3.151c0.361,1.016,0.809,2.274,1.268,3.563c-1.547,0.74-2.195,0.248-2.463-1.125
		c-0.273-1.406-1.041-2.168-2.713-1.712c-0.082,0.816-0.066,1.622-0.283,2.358c-0.1,0.337-0.633,0.658-1.021,0.745
		c-0.174,0.039-0.686-0.515-0.693-0.808C378.949,118.717,378.975,116.275,378.975,113.594 M380.781,117.032
		c0.18,0.158,0.357,0.315,0.537,0.475c0.771-0.334,1.576-0.613,2.279-1.053c0.117-0.072-0.063-1.073-0.342-1.233
		c-0.502-0.288-1.531-0.545-1.719-0.313C381.094,115.46,381.01,116.305,380.781,117.032"/>
</g>
</svg>
