<?xml version="1.0" encoding="utf-8"?>
<!-- Generator: Adobe Illustrator 16.0.0, SVG Export Plug-In . SVG Version: 6.00 Build 0)  -->
<!DOCTYPE svg PUBLIC "-//W3C//DTD SVG 1.1//EN" "http://www.w3.org/Graphics/SVG/1.1/DTD/svg11.dtd">
<svg version="1.1" id="Layer_1" xmlns="http://www.w3.org/2000/svg" xmlns:xlink="http://www.w3.org/1999/xlink" x="0px" y="0px"
	 width="400px" height="300px" viewBox="0 0 400 300" enable-background="new 0 0 400 300" xml:space="preserve">
<g>
	<path fill="#333333" d="M268.205,136.029c-0.335,0.292-0.833,0.312-1.285,0.317c-7.444,0.039-14.888,0.083-22.328,0.121
		c1.856,2.743,5.17,4.229,8.463,4.57c3.294,0.336,6.603-0.341,9.812-1.15c0.42-0.107,0.878-0.214,1.272-0.039
		c0.463,0.204,0.687,0.721,0.871,1.193c0.751,1.934,1.506,3.863,2.257,5.798c-6.188,1.86-12.731,2.547-19.166,2.011
		c-5.281-0.438-10.811-1.865-14.465-5.704c-2.572-2.699-3.979-6.475-3.805-10.202c0.667-14.455,19.965-17.583,30.765-13.256
		c3.08,1.233,6.075,3.206,7.439,6.227c1.237,2.743,0.945,5.899,0.629,8.891c-0.045,0.429-0.107,0.892-0.419,1.188
		C268.23,136.009,268.22,136.019,268.205,136.029 M244.021,129.501h12.478c-0.657-3.771-3.021-4.564-5.733-4.551
		C247.965,124.965,245.191,125.354,244.021,129.501"/>
	<path fill="#333333" d="M372.077,130.885c-0.011-3.138-3.957-10.685-11.287-11.838c-10.802-1.701-17.242,3.02-17.478,3.123H343.3
		c-13.052-6.884-28.076-0.288-28.721,0c-0.014,0-0.014,0.015-0.014,0.043v26.966c0,0.029,0.029,0.043,0.049,0.043h12.549
		c0.016,0,0.05-0.015,0.05-0.043v-21.251c0-0.029,0.029-0.059,0.049-0.059h3.896c3.396,0,6.169,2.66,6.169,5.939v15.375
		c0,0.029,0.028,0.044,0.049,0.044h12.519c0.016,0,0.049-0.015,0.049-0.044v-21.251c0-0.029,0.029-0.058,0.05-0.058h3.897
		c2.475,0,4.599,1.398,5.587,3.425c0,0.015,0.015,0.015,0,0.029h0.015c0.362,0.75,0.566,1.593,0.566,2.48v15.375
		c0,0.029,0.028,0.044,0.049,0.044h12.002c0.016,0,0.051-0.015,0.051-0.044C372.14,148.496,372.096,136.838,372.077,130.885"/>
	<path fill="#333333" d="M302.361,136.024c1.833-1.359,3.513-3.718,4.034-7.873c1.32-10.469-21.139-9.446-21.139-9.446H272.61
		v30.521h12.646v-8.979v-14.489c0,0,8.384-0.458,8.434,3.912c0.049,4.37-6.806,6.348-6.806,6.348l8.867,13.203h15.56l-8.866-13.203
		h-0.084V136.024z"/>
	<polygon fill="#333333" points="179.555,140.501 179.555,119.012 166.913,119.012 166.913,149.222 179.555,149.222 
		179.555,149.198 194.983,149.198 194.983,140.564 179.555,140.564 	"/>
	<polygon fill="#333333" points="190.492,127.338 201.58,127.338 203.382,127.338 203.382,149.222 216.029,149.222 216.029,140.501 
		216.029,127.338 228.92,127.338 228.92,118.706 190.492,118.706 	"/>
	<path fill="#333333" d="M97.607,119.012H84.964v31.106h12.647v-8.979c0,0,21.874,1.515,21.874-11.254
		C117.459,117.999,97.607,119.012,97.607,119.012 M97.607,134.563v-8.853c0,0,10.938-1.14,10.938,4.379
		C106.965,135.357,97.607,134.563,97.607,134.563"/>
	<path fill="#333333" d="M142.671,118.71c-11.424,0-20.676,6.825-20.676,15.259c0,8.418,9.252,15.258,20.676,15.258
		c11.41,0,20.661-6.84,20.661-15.258C163.332,125.53,154.081,118.71,142.671,118.71 M142.671,142.401c-4.429,0-8-3.897-8-8.686
		c0-4.79,3.566-8.672,8-8.672c4.414,0,7.98,3.883,7.98,8.672C150.651,138.508,147.084,142.401,142.671,142.401"/>
	<path fill="#333333" d="M11.801,129.243c0,0-1.321-54.846,85.806-61.779v38.594c0,0-31.428-0.317-31.428,23.185H11.801z"/>
	<path fill="#333333" d="M97.617,158.595v38.594C10.491,190.257,11.801,135.4,11.801,135.4H66.17c0,0-0.502,4.273,1.958,9.154
		c0.093,0.204,0.205,0.409,0.312,0.609c0.375,0.687,0.814,1.393,1.33,2.095c6.275,8.828,19.269,10.767,24.992,11.205
		c0.297,0.015,0.581,0.03,0.828,0.049c0.736,0.049,1.301,0.064,1.642,0.064C97.49,158.595,97.617,158.595,97.617,158.595"/>
	<path fill="#333333" d="M192.353,114.681c0,0,1.32-54.846-85.806-61.778v38.594c0,0,31.427-0.317,31.427,23.184H192.353z"/>
	<path fill="#5D5D5D" d="M96.944,158.565c-0.327,0-0.784-0.028-1.344-0.049c-0.249-0.014-0.531-0.029-0.828-0.049
		c-12.146-0.643-60.054-4.301-82.966-23.067h54.369c0,0-0.502,4.273,1.958,9.154c0.092,0.204,0.205,0.409,0.312,0.609
		c0.375,0.687,0.813,1.393,1.33,2.095c0.292,0.409,0.614,0.789,0.93,1.174C74.788,153.241,82.48,157.723,96.944,158.565"/>
	<path fill="#5D5D5D" d="M97.607,67.464v38.594c0,0-30.327-0.541-31.428,23.185C66.179,129.243,65.673,78.864,97.607,67.464"/>
	<path fill="#5D5D5D" d="M192.353,114.681h-54.379c0,0-0.199-17.933-22.916-22.327C115.063,92.354,169.393,96.115,192.353,114.681"
		/>
	<path fill="#333333" d="M120.29,166.336l-1.315,4.004h-1.705l4.331-12.738h1.978l4.351,12.738h-1.759l-1.364-4.004H120.29z
		 M124.475,165.05l-1.262-3.663c-0.277-0.834-0.468-1.594-0.657-2.324h-0.044c-0.185,0.745-0.38,1.521-0.628,2.3l-1.256,3.688
		H124.475z"/>
	<path fill="#333333" d="M129.683,163.667c0-0.955-0.029-1.711-0.073-2.471h1.448l0.087,1.472h0.049
		c0.507-0.867,1.359-1.681,2.884-1.681c1.237,0,2.182,0.755,2.577,1.831h0.039c0.292-0.521,0.653-0.916,1.033-1.188
		c0.556-0.414,1.15-0.643,2.012-0.643c1.223,0,3.021,0.789,3.021,3.966v5.383h-1.623v-5.164c0-1.773-0.653-2.821-1.983-2.821
		c-0.955,0-1.686,0.692-1.978,1.496c-0.083,0.238-0.137,0.541-0.137,0.833v5.66h-1.623v-5.484c0-1.457-0.643-2.5-1.9-2.5
		c-1.033,0-1.793,0.824-2.07,1.662c-0.083,0.243-0.126,0.535-0.126,0.818v5.51h-1.623v-6.679H129.683z"/>
	<path fill="#333333" d="M145.365,170.34c0.044-0.628,0.074-1.544,0.074-2.357v-11.063h1.651v5.749h0.039
		c0.585-1.028,1.642-1.676,3.118-1.676c2.271,0,3.868,1.885,3.858,4.652c0,3.278-2.075,4.9-4.116,4.9
		c-1.32,0-2.373-0.516-3.064-1.71h-0.043l-0.083,1.505H145.365z M147.094,166.677c0,0.205,0.024,0.414,0.068,0.604
		c0.312,1.155,1.296,1.944,2.495,1.944c1.749,0,2.777-1.418,2.777-3.513c0-1.837-0.95-3.411-2.729-3.411
		c-1.125,0-2.183,0.79-2.514,2.042c-0.054,0.2-0.098,0.424-0.098,0.691V166.677z"/>
	<path fill="#333333" d="M161.266,170.34l-0.146-1.154h-0.049c-0.501,0.712-1.485,1.364-2.796,1.364
		c-1.847,0-2.792-1.311-2.792-2.62c0-2.217,1.963-3.431,5.495-3.405v-0.195c0-0.74-0.21-2.119-2.081-2.109
		c-0.853,0-1.739,0.253-2.382,0.682l-0.375-1.106c0.755-0.486,1.861-0.803,3.016-0.803c2.792,0,3.474,1.909,3.474,3.741v3.42
		c0,0.779,0.033,1.559,0.141,2.187H161.266z M161.008,165.673c-1.797-0.038-3.858,0.288-3.858,2.052
		c0,1.091,0.716,1.593,1.555,1.593c1.203,0,1.963-0.76,2.226-1.529c0.058-0.181,0.078-0.365,0.078-0.521V165.673z"/>
	<rect x="165.305" y="156.919" fill="#333333" width="1.657" height="13.421"/>
	<path fill="#333333" d="M174.834,170.34l-0.146-1.154h-0.049c-0.502,0.712-1.486,1.364-2.796,1.364
		c-1.847,0-2.792-1.311-2.792-2.62c0-2.217,1.963-3.431,5.496-3.405v-0.195c0-0.74-0.21-2.119-2.081-2.109
		c-0.853,0-1.739,0.253-2.382,0.682l-0.375-1.106c0.755-0.486,1.861-0.803,3.016-0.803c2.791,0,3.473,1.909,3.473,3.741v3.42
		c0,0.779,0.035,1.559,0.142,2.187H174.834z M174.576,165.673c-1.797-0.038-3.858,0.288-3.858,2.052
		c0,1.091,0.716,1.593,1.554,1.593c1.204,0,1.964-0.76,2.227-1.529c0.058-0.181,0.078-0.365,0.078-0.521V165.673z"/>
	<path fill="#333333" d="M176.637,172.981c0.77-0.054,1.417-0.264,1.812-0.706c0.454-0.513,0.639-1.238,0.639-3.43v-7.649h1.656
		v8.287c0,1.778-0.283,2.933-1.091,3.771c-0.73,0.735-1.944,1.028-2.835,1.033L176.637,172.981z M180.943,158.614
		c0,0.556-0.39,1.033-1.057,1.033c-0.614,0-1.009-0.478-1.009-1.033c0-0.569,0.424-1.033,1.047-1.033
		C180.544,157.581,180.939,158.045,180.943,158.614"/>
	<path fill="#333333" d="M187.311,168.333c0.736,0.459,1.807,0.824,2.938,0.824c1.68,0,2.674-0.877,2.674-2.169
		c0-1.179-0.691-1.875-2.411-2.518c-2.081-0.74-3.371-1.832-3.371-3.615c0-1.983,1.646-3.454,4.131-3.454
		c1.296,0,2.255,0.302,2.811,0.614l-0.458,1.349c-0.404-0.243-1.262-0.604-2.406-0.604c-1.749,0-2.412,1.038-2.412,1.905
		c0,1.179,0.775,1.764,2.534,2.444c2.163,0.849,3.249,1.886,3.249,3.752c0,1.953-1.437,3.673-4.458,3.673
		c-1.232,0-2.572-0.369-3.254-0.828L187.311,168.333z"/>
	<path fill="#333333" d="M201.911,170.34l-0.146-1.154h-0.05c-0.501,0.712-1.485,1.364-2.796,1.364c-1.846,0-2.791-1.311-2.791-2.62
		c0-2.217,1.963-3.431,5.495-3.405v-0.195c0-0.74-0.21-2.119-2.08-2.109c-0.853,0-1.74,0.253-2.382,0.682l-0.375-1.106
		c0.754-0.486,1.86-0.803,3.015-0.803c2.792,0,3.474,1.909,3.474,3.741v3.42c0,0.779,0.034,1.559,0.141,2.187H201.911z
		 M201.652,165.673c-1.797-0.038-3.858,0.288-3.858,2.052c0,1.091,0.716,1.593,1.554,1.593c1.204,0,1.964-0.76,2.227-1.529
		c0.058-0.181,0.077-0.365,0.077-0.521V165.673z"/>
	<path fill="#333333" d="M205.955,163.667c0-0.955-0.029-1.711-0.073-2.471h1.472l0.092,1.506h0.049
		c0.448-0.857,1.511-1.71,3.021-1.71c1.257,0,3.22,0.755,3.22,3.897v5.45h-1.65v-5.271c0-1.476-0.557-2.719-2.115-2.719
		c-1.091,0-1.938,0.775-2.24,1.706c-0.068,0.204-0.112,0.496-0.112,0.77v5.51h-1.656v-6.669H205.955z"/>
	<path fill="#333333" d="M221.51,170.34l-0.146-1.154h-0.048c-0.502,0.712-1.485,1.364-2.797,1.364c-1.846,0-2.792-1.311-2.792-2.62
		c0-2.217,1.965-3.431,5.497-3.405v-0.195c0-0.74-0.21-2.119-2.081-2.109c-0.853,0-1.738,0.253-2.382,0.682l-0.375-1.106
		c0.755-0.486,1.86-0.803,3.015-0.803c2.793,0,3.475,1.909,3.475,3.741v3.42c0,0.779,0.033,1.559,0.141,2.187H221.51z
		 M221.252,165.673c-1.798-0.038-3.858,0.288-3.858,2.052c0,1.091,0.716,1.593,1.555,1.593c1.202,0,1.963-0.76,2.227-1.529
		c0.058-0.181,0.077-0.365,0.077-0.521V165.673z"/>
	<path fill="#333333" d="M226.003,161.201l1.997,5.402c0.214,0.604,0.438,1.32,0.589,1.866h0.049c0.16-0.54,0.365-1.237,0.584-1.904
		l1.808-5.364h1.765l-2.5,6.514c-1.184,3.143-1.997,4.745-3.133,5.733c-0.823,0.712-1.631,0.994-2.036,1.067l-0.414-1.389
		c0.414-0.131,0.959-0.39,1.457-0.813c0.448-0.365,1.003-1.008,1.389-1.852c0.083-0.175,0.131-0.296,0.131-0.398
		c0-0.093-0.029-0.225-0.117-0.424l-3.371-8.434h1.804V161.201z"/>
	<path fill="#333333" d="M236.159,158.614c0,0.565-0.394,1.033-1.057,1.033c-0.604,0-1.004-0.468-1.004-1.033
		c0-0.569,0.424-1.033,1.032-1.033C235.751,157.581,236.155,158.035,236.159,158.614 M234.299,161.201h1.656v9.139h-1.656V161.201z"
		/>
	<path fill="#333333" d="M243.369,161.201l1.794,5.126c0.307,0.847,0.545,1.603,0.749,2.357h0.049
		c0.21-0.761,0.473-1.521,0.766-2.357l1.788-5.126h1.739l-3.596,9.139h-1.584l-3.482-9.139H243.369z"/>
	<path fill="#333333" d="M252.563,166.073c0.034,2.246,1.456,3.171,3.127,3.171c1.188,0,1.92-0.214,2.534-0.467l0.291,1.179
		c-0.585,0.263-1.599,0.585-3.05,0.585c-2.811,0-4.496-1.871-4.496-4.614c0-2.771,1.633-4.935,4.302-4.935
		c2.98,0,3.761,2.616,3.761,4.296c0,0.352-0.019,0.601-0.059,0.78h-6.41V166.073z M257.426,164.874
		c0.014-1.047-0.431-2.688-2.296-2.688c-1.7,0-2.421,1.534-2.553,2.688H257.426z"/>
	<polygon fill="#333333" points="266.813,158.989 262.93,158.989 262.93,157.602 272.361,157.602 272.361,158.989 268.464,158.989 
		268.464,170.34 266.809,170.34 266.809,158.989 	"/>
	<path fill="#333333" d="M275.052,158.614c0,0.565-0.395,1.033-1.058,1.033c-0.604,0-1.004-0.468-1.004-1.033
		c0-0.569,0.423-1.033,1.032-1.033C274.646,157.581,275.045,158.035,275.052,158.614 M273.195,161.201h1.656v9.139h-1.656V161.201z"
		/>
	<path fill="#333333" d="M284.131,170.01c-0.438,0.214-1.393,0.525-2.619,0.525c-2.759,0-4.562-1.875-4.562-4.672
		c0-2.815,1.925-4.871,4.91-4.871c0.981,0,1.861,0.248,2.31,0.487l-0.37,1.276c-0.409-0.215-1.026-0.439-1.944-0.439
		c-2.083,0-3.229,1.564-3.224,3.459c0,2.12,1.364,3.421,3.186,3.421c0.931,0,1.564-0.239,2.037-0.438L284.131,170.01z"/>
	<path fill="#333333" d="M291.172,170.34l-0.146-1.154h-0.05c-0.5,0.712-1.485,1.364-2.796,1.364c-1.846,0-2.792-1.311-2.792-2.62
		c0-2.217,1.965-3.431,5.497-3.405v-0.195c0-0.74-0.21-2.119-2.081-2.109c-0.854,0-1.739,0.253-2.382,0.682l-0.375-1.106
		c0.755-0.486,1.859-0.803,3.015-0.803c2.792,0,3.475,1.909,3.475,3.741v3.42c0,0.779,0.032,1.559,0.142,2.187H291.172z
		 M290.912,165.673c-1.797-0.038-3.858,0.288-3.858,2.052c0,1.091,0.717,1.593,1.556,1.593c1.203,0,1.962-0.76,2.227-1.529
		c0.058-0.181,0.076-0.365,0.076-0.521V165.673z"/>
	<path fill="#333333" d="M295.206,164.046c0-1.081-0.03-2.002-0.078-2.845h1.456l0.063,1.793h0.058
		c0.425-1.228,1.433-2.002,2.544-2.002c0.18,0,0.311,0.009,0.463,0.048v1.564c-0.171-0.034-0.337-0.049-0.566-0.049
		c-1.168,0-1.996,0.882-2.226,2.129c-0.044,0.234-0.068,0.507-0.068,0.774v4.887h-1.655v-6.3H295.206z"/>
	<path fill="#333333" d="M302.133,166.073c0.034,2.246,1.458,3.171,3.128,3.171c1.188,0,1.919-0.214,2.532-0.467l0.293,1.179
		c-0.584,0.263-1.598,0.585-3.049,0.585c-2.813,0-4.496-1.871-4.496-4.614c0-2.771,1.631-4.935,4.301-4.935
		c2.981,0,3.76,2.616,3.76,4.296c0,0.352-0.018,0.601-0.058,0.78h-6.411V166.073z M306.995,164.874
		c0.014-1.047-0.429-2.688-2.295-2.688c-1.7,0-2.422,1.534-2.554,2.688H306.995z"/>
	<path fill="#333333" d="M312.665,158.565v2.631h2.387v1.257h-2.387v4.926c0,1.135,0.326,1.782,1.257,1.782
		c0.43,0,0.746-0.053,0.966-0.121l0.073,1.262c-0.322,0.127-0.84,0.229-1.486,0.229c-0.766,0-1.398-0.254-1.793-0.702
		c-0.458-0.507-0.644-1.31-0.644-2.382v-4.994h-1.417v-1.257h1.417v-2.202L312.665,158.565z"/>
	<polygon fill="#333333" points="320.977,157.602 322.634,157.602 322.634,168.952 328.08,168.952 328.08,170.34 320.981,170.34 
		320.981,157.602 	"/>
	<path fill="#333333" d="M331.768,158.565v2.631h2.387v1.257h-2.387v4.926c0,1.135,0.326,1.782,1.257,1.782
		c0.429,0,0.746-0.053,0.964-0.121l0.073,1.262c-0.321,0.127-0.837,0.229-1.484,0.229c-0.767,0-1.398-0.254-1.793-0.702
		c-0.459-0.507-0.644-1.31-0.644-2.382v-4.994h-1.417v-1.257h1.417v-2.202L331.768,158.565z"/>
	<path fill="#333333" d="M343.806,156.919v11.063c0,0.813,0.034,1.725,0.073,2.357h-1.477l-0.082-1.577h-0.044
		c-0.507,1.022-1.608,1.787-3.099,1.787c-2.217,0-3.926-1.87-3.926-4.643c-0.015-3.055,1.879-4.91,4.106-4.91
		c1.403,0,2.349,0.657,2.757,1.383h0.04v-5.456h1.65V156.919z M342.155,164.919c0-0.215-0.021-0.493-0.068-0.712
		c-0.258-1.047-1.156-1.914-2.407-1.914c-1.72,0-2.753,1.51-2.753,3.517c0,1.856,0.926,3.396,2.719,3.396
		c1.111,0,2.124-0.75,2.431-1.992c0.059-0.219,0.084-0.453,0.084-0.712v-1.582H342.155z"/>
	<path fill="#333333" d="M345.993,169.366c0-0.696,0.468-1.198,1.125-1.198c0.668,0,1.11,0.492,1.115,1.198
		c0,0.667-0.442,1.184-1.124,1.184C346.445,170.55,345.983,170.029,345.993,169.366"/>
	<path fill="#333333" d="M356.458,159.359c-0.414-0.229-1.267-0.604-2.422-0.604c-1.739,0-2.402,1.043-2.402,1.91
		c0,1.193,0.775,1.777,2.534,2.46c2.154,0.828,3.25,1.87,3.25,3.741c0,1.7-1.077,3.196-3.309,3.571l-0.512,0.852
		c0.717,0.133,1.321,0.644,1.321,1.418c0,1.097-0.966,1.53-1.93,1.53c-0.493,0-1.019-0.132-1.36-0.321l0.283-0.853
		c0.283,0.15,0.644,0.248,1.043,0.248c0.434,0,0.793-0.171,0.793-0.565c0-0.511-0.584-0.716-1.475-0.813l0.754-1.398h-0.072
		c-1.228,0-2.572-0.36-3.249-0.813l0.413-1.378c0.736,0.452,1.813,0.833,2.947,0.833c1.682,0,2.665-0.893,2.665-2.174
		c0-1.193-0.682-1.87-2.4-2.532c-2.081-0.736-3.363-1.813-3.363-3.61c0-1.983,1.648-3.459,4.123-3.459
		c1.306,0,2.245,0.302,2.815,0.624L356.458,159.359z"/>
	<path fill="#333333" d="M361.607,158.565v2.631h2.387v1.257h-2.387v4.926c0,1.135,0.326,1.782,1.257,1.782
		c0.429,0,0.745-0.053,0.965-0.121l0.073,1.262c-0.322,0.127-0.838,0.229-1.486,0.229c-0.764,0-1.398-0.254-1.793-0.702
		c-0.458-0.507-0.643-1.31-0.643-2.382v-4.994h-1.418v-1.257h1.418v-2.202L361.607,158.565z"/>
	<path fill="#333333" d="M367.726,158.614c0,0.565-0.395,1.033-1.058,1.033c-0.604,0-1.003-0.468-1.003-1.033
		c0-0.569,0.425-1.033,1.034-1.033C367.32,157.581,367.721,158.035,367.726,158.614 M365.869,161.201h1.656v9.139h-1.656V161.201z"
		/>
	<path fill="#333333" d="M369.898,169.366c0-0.696,0.469-1.198,1.127-1.198c0.666,0,1.109,0.492,1.114,1.198
		c0,0.667-0.443,1.184-1.125,1.184C370.353,170.55,369.89,170.029,369.898,169.366"/>
</g>
</svg>
