<?xml version="1.0" encoding="utf-8"?>
<!-- Generator: Adobe Illustrator 16.0.0, SVG Export Plug-In . SVG Version: 6.00 Build 0)  -->
<!DOCTYPE svg PUBLIC "-//W3C//DTD SVG 1.1//EN" "http://www.w3.org/Graphics/SVG/1.1/DTD/svg11.dtd">
<svg version="1.1" id="Layer_1" xmlns="http://www.w3.org/2000/svg" xmlns:xlink="http://www.w3.org/1999/xlink" x="0px" y="0px"
	 width="400px" height="300px" viewBox="0 0 400 300" enable-background="new 0 0 400 300" xml:space="preserve">
<g>
	<path fill="#B2B2B2" d="M370.465,132.81c0,15.588,0.034,31.174-0.018,46.762c-0.018,5.322-2.633,7.807-7.563,7.484
		c-3.246-0.211-5.435-2.063-5.851-5.336c-0.377-2.975-0.414-5.988-0.648-8.982c-0.296-3.807-2.175-4.773-5.266-2.471
		c-3.209,2.389-6.219,5.037-9.571,7.256c-36.055,23.857-85.943,3.904-95.569-38.244c-0.96-4.199,0.112-6.47,3.491-7.398
		c4.898-1.346,8.883,0.384,9.94,4.641c2.363,9.501,7.494,17.226,14.488,23.933c18.539,17.771,48.574,17.287,67.206-0.391
		c17.952-17.035,19.974-45.109,6.634-63.401c-11.504-15.776-27.188-23.358-46.645-20.78c-20.728,2.747-34.276,14.87-40.758,34.728
		c-1.974,6.045-4.011,7.924-9.216,7.563c-4.342-0.301-6.183-2.59-5.391-6.906c2.529-13.8,9.561-24.999,19.856-34.334
		c21.623-19.602,57.311-20.846,80.17-2.739c1.655,1.312,3.138,2.861,4.873,4.048c3.029,2.072,4.829,1.18,5.075-2.45
		c0.181-2.662-0.041-5.363,0.289-8c0.628-5.004,2.961-6.803,7.889-6.479c3.954,0.26,5.744,2.514,5.896,7.383
		C370.436,90.065,370.308,111.439,370.465,132.81"/>
	<path fill="#333333" d="M145.989,155.244c0,8.908,0.002,17.814-0.003,26.723c0,1.002,0.044,2.014-0.086,3.002
		c-0.27,2.049-1.434,3.207-3.58,3.18c-2.195-0.027-3.125-1.271-3.365-3.348c-0.805-6.969-0.828-6.965-6.447-2.813
		c-18.352,13.564-44.724,4.809-51.063-16.982c-0.631-2.166-1.889-4.748,1.587-5.74c3.083-0.877,4.321,0.918,5.171,3.648
		c3.449,11.096,14.26,18.738,25.568,18.264c11.788-0.494,21.383-8.422,24.162-19.969c3.111-12.916-4.736-26.647-17.322-30.312
		c-13.578-3.953-27.283,2.93-31.81,15.978c-0.292,0.84-0.53,1.697-0.849,2.525c-1.006,2.617-3.051,3.082-5.455,2.406
		c-2.518-0.709-1.862-2.801-1.492-4.436c0.787-3.486,2.168-6.781,4.111-9.802c10.639-16.536,33.638-20.09,48.809-7.569
		c1,0.826,1.999,2.264,3.405,1.679c1.61-0.67,0.985-2.511,1.198-3.878c0.068-0.436,0.021-0.889,0.021-1.334
		c-0.003-2.286,0.755-4.015,3.366-4.031c2.656-0.016,3.773,1.599,3.777,4.082c0.018,9.575,0.008,19.151,0.008,28.727H145.989z"/>
	<path fill="#333333" d="M157.651,151.203c0-10.133-0.022-20.264,0.006-30.396c0.04-14.673,9.57-27.495,23.397-31.475
		c2.087-0.601,4.459-1.737,5.598,1.404c0.968,2.671-0.255,4.496-3.577,5.568c-10.425,3.364-17.927,12.942-18.1,22.856
		c-0.04,2.329,0.664,3.144,3.018,3.063c4.784-0.166,9.577-0.063,14.366-0.127c2.487-0.032,4.792-0.019,4.873,3.426
		c0.087,3.722-2.414,3.612-4.987,3.615c-4.678,0.007-9.357,0.207-14.031,0.09c-2.506-0.062-3.219,0.817-3.194,3.284
		c0.171,16.922,0.203,33.846,0.287,50.768c0.01,2.063,0.097,4.125-2.648,4.617c-3.108,0.561-4.673-0.777-4.688-4.295
		c-0.042-10.801-0.015-21.6-0.015-32.398H157.651z"/>
	<path fill="#333333" d="M81.597,127.071c0.182,2.173-1.183,3.235-3.135,3.98c-13.142,5.015-18.397,12.523-18.778,26.738
		c-0.391,14.57-10.506,27.447-24.138,30.834c-2.394,0.596-4.259,0.346-5.013-2.289c-0.732-2.561,0.609-3.93,2.91-4.766
		c13-4.732,18.607-12.59,19.025-26.58c0.445-14.871,10.668-27.763,24.669-31.113C80.209,123.141,81.533,124.05,81.597,127.071"/>
	<path fill="#343434" d="M239.181,121.806c1.989-0.172,3.044,0.582,3.665,2.127c0.68,1.69,0.252,3.113-1.074,4.175
		c-0.753,0.603-1.755,0.941-2.694,1.256c-11.307,3.786-18.011,12.974-18.02,24.908c-0.008,9.791,0.132,19.582,0.133,29.371
		c0.001,3.348-1.877,4.75-4.923,3.893c-1.29-0.365-2.273-1.119-2.251-2.539c0.21-12.885-1.756-25.926,0.714-38.617
		c2.437-12.529,10.7-20.692,23.127-24.314C238.388,121.91,238.947,121.851,239.181,121.806"/>
	<path fill="#343434" d="M202.489,155.268c0,9.133,0.003,18.266-0.003,27.398c-0.001,1.805,0,3.664-1.855,4.699
		c-2.74,1.529-5.466-0.287-5.519-3.801c-0.137-9.242-0.178-18.486-0.241-27.73c-0.067-9.689-0.124-19.379-0.168-29.07
		c-0.011-2.366,0.255-4.562,3.394-4.703c3.189-0.145,4.006,1.801,4.008,4.473c0.007,9.578,0.003,19.156,0.003,28.734
		C202.234,155.268,202.362,155.268,202.489,155.268"/>
	<path fill="#393939" d="M294.979,210.354c0-3.002-0.015-6.004,0.01-9.004c0.005-0.66,0.072-1.477,0.885-1.58
		c1.045-0.135,1.271,0.723,1.296,1.535c0.068,2.221,0.186,4.449,0.089,6.666c-0.115,2.654-0.021,4.002,3.254,2.186
		c4.67-2.59,10.604-0.461,12.804,4.133c0.447,0.936,1.446,2.291,0.203,2.98c-1.563,0.869-1.575-1.02-2.06-1.842
		c-1.987-3.377-5.35-4.939-8.688-3.951c-3.538,1.047-5.63,4.086-5.385,7.824c0.224,3.41,2.792,6.188,6.285,6.799
		c3.041,0.533,6.151-1.211,7.903-4.381c0.433-0.781,0.444-2.406,1.824-1.807c1.542,0.67,0.393,1.951,0.012,2.842
		c-1.605,3.754-5.746,6.016-9.765,5.453c-4.467-0.625-7.842-3.58-8.287-7.869c-0.342-3.295-0.067-6.654-0.067-9.984
		C295.188,210.354,295.083,210.354,294.979,210.354"/>
	<path fill="#3B3B3B" d="M366.263,218.516c0,2.336,0.008,4.67-0.004,7.006c-0.004,0.768,0.109,1.678-0.801,2
		c-0.854,0.301-1.033-0.455-1.349-1.068c-0.949-1.84-1.849-0.24-2.649,0.17c-5.241,2.688-11.021,1.031-13.4-3.941
		c-0.448-0.939-1.443-2.242-0.155-2.926c1.265-0.67,1.422,0.939,1.885,1.736c1.979,3.408,5.349,4.977,8.665,4.027
		c3.338-0.955,5.728-4.129,5.604-7.443c-0.119-3.25-2.526-6.164-5.757-6.971c-3.42-0.854-6.704,0.771-8.53,4.244
		c-0.435,0.828-0.563,2.385-1.851,1.758c-1.309-0.639-0.445-1.977-0.016-2.936c2.208-4.936,8.216-6.852,13.326-4.313
		c1.033,0.516,2.226,2.15,2.96-0.338c0.125-0.424,0.519-0.762,1.038-0.605c0.78,0.234,0.908,0.916,0.912,1.59
		c0.021,2.67,0.009,5.34,0.009,8.01C366.188,218.516,366.226,218.516,366.263,218.516"/>
	<path fill="#3D3D3D" d="M274.684,213.678c0,4.346,0.021,7.977-0.014,11.609c-0.01,1.057,0.328,2.672-1.089,2.762
		c-1.674,0.105-1.128-1.607-1.15-2.572c-0.11-4.564-0.123-9.131-0.137-13.697c-0.003-0.855-0.186-1.922,0.88-2.293
		c0.879-0.307,1.364,0.549,1.952,1.025c2.389,1.939,4.009,5.887,6.903,5.783c2.638-0.094,4.306-3.832,6.551-5.805
		c0.65-0.572,1.262-1.473,2.258-1.068c1.037,0.422,0.755,1.518,0.766,2.361c0.061,4.678,0.094,9.355,0.088,14.033
		c-0.001,0.828,0.236,2.131-0.933,2.174c-1.479,0.055-1.127-1.381-1.148-2.285c-0.078-3.34-0.064-6.68-0.111-10.021
		c-0.007-0.525,0.116-1.18-0.507-1.465c-0.639-0.295-0.987,0.287-1.408,0.607c-0.088,0.068-0.155,0.162-0.241,0.232
		c-1.876,1.521-3.077,4.646-5.438,4.545c-2.276-0.1-3.589-3.059-5.454-4.617C276.114,214.707,275.749,214.465,274.684,213.678"/>
	<path fill="#3B3B3B" d="M268.794,219.148c0,2.559,0.043,5.119-0.022,7.678c-0.024,0.961-0.87,2.15-1.482,0.9
		c-1.154-2.354-2.149-0.988-3.344-0.385c-5.182,2.615-11.165,0.734-13.306-4.227c-0.364-0.844-1.283-2.041-0.155-2.688
		c1.322-0.756,1.517,0.814,1.983,1.584c2.767,4.557,7.524,5.813,11.263,2.859c2.483-1.959,3.548-4.566,2.742-7.693
		c-0.76-2.947-2.733-4.834-5.709-5.461c-3.151-0.664-5.681,0.514-7.584,3.053c-0.395,0.525-0.633,1.17-0.943,1.76
		c-0.366,0.689-0.739,1.596-1.693,1.131c-0.92-0.447-0.445-1.346-0.233-2.068c1.574-5.338,8.366-7.834,13.781-5.014
		c1.185,0.615,2.27,1.818,2.915-0.492c0.128-0.463,0.606-0.65,1.076-0.396c0.564,0.305,0.625,0.893,0.627,1.449
		c0.015,2.67,0.007,5.34,0.007,8.01C268.742,219.148,268.769,219.148,268.794,219.148"/>
	<path fill="#3A3A3A" d="M335.566,218.83c0,2.449,0.006,4.898-0.005,7.348c-0.003,0.68-0.057,1.408-0.843,1.637
		c-0.43,0.125-0.932-0.076-1.063-0.572c-0.685-2.596-1.916-0.855-2.905-0.342c-5.237,2.721-11.321,0.754-13.471-4.418
		c-0.354-0.854-1.22-2.004,0.093-2.572c1.104-0.477,1.306,0.834,1.736,1.57c2.487,4.25,6.664,5.74,10.385,3.607
		c2.878-1.648,4.284-4.217,3.841-7.541c-0.444-3.334-2.511-5.453-5.715-6.236c-3.272-0.799-5.888,0.482-7.83,3.168
		c-0.322,0.445-0.542,0.971-0.775,1.473c-0.374,0.803-0.727,1.973-1.811,1.377c-0.89-0.49-0.41-1.588-0.103-2.438
		c1.508-4.166,6.271-6.721,10.866-5.707c1.172,0.258,2.276,0.852,3.385,1.35c0.707,0.32,1.407,0.922,1.93-0.172
		c0.293-0.613,0.511-1.387,1.346-1.168c0.968,0.254,0.838,1.207,0.846,1.955c0.028,2.561,0.012,5.123,0.012,7.682H335.566z"/>
	<path fill="#474747" d="M338.896,210.195c0-2.895-0.022-5.787,0.014-8.68c0.011-0.85-0.074-2.008,1.235-1.891
		c1.05,0.094,0.879,1.146,0.888,1.881c0.063,4.895,0.163,9.793,0.1,14.686c-0.053,4.209,0.921,7.734,5.226,9.504
		c0.611,0.252,1.317,0.625,1.078,1.441c-0.314,1.078-1.222,0.715-1.948,0.563c-3.269-0.68-6.171-4.371-6.422-8.496
		c-0.183-2.992-0.035-6.004-0.035-9.008C338.985,210.195,338.939,210.195,338.896,210.195"/>
	<path fill="#3F3F3F" d="M372.301,220.256c0,2.785,0.085,5.572-0.021,8.352c-0.159,4.197-3.062,8.113-6.432,8.867
		c-0.745,0.166-1.637,0.512-1.979-0.52c-0.269-0.805,0.469-1.221,1.066-1.449c4.567-1.756,5.396-5.432,5.253-9.758
		c-0.147-4.451-0.146-8.908-0.09-13.361c0.012-1.061-0.692-2.93,1.081-2.938c1.354-0.006,0.991,1.742,1.012,2.791
		c0.054,2.672,0.019,5.344,0.019,8.016H372.301z"/>
	<path fill="#383838" d="M202.275,92.507c0.025,2.572-1.253,3.92-3.813,3.961c-2.753,0.045-4.034-1.39-3.976-4.108
		c0.056-2.584,1.325-3.809,3.942-3.752C201.037,88.664,202.265,89.959,202.275,92.507"/>
</g>
</svg>
