<?xml version="1.0" encoding="utf-8"?>
<!-- Generator: Adobe Illustrator 16.0.0, SVG Export Plug-In . SVG Version: 6.00 Build 0)  -->
<!DOCTYPE svg PUBLIC "-//W3C//DTD SVG 1.1//EN" "http://www.w3.org/Graphics/SVG/1.1/DTD/svg11.dtd">
<svg version="1.1" id="Layer_1" xmlns="http://www.w3.org/2000/svg" xmlns:xlink="http://www.w3.org/1999/xlink" x="0px" y="0px"
	 width="400px" height="300px" viewBox="0 0 400 300" enable-background="new 0 0 400 300" xml:space="preserve">
<g>
	<path fill="#333333" d="M255.627,171.425c-12.085-0.003-24.17,0-36.255-0.013c-2.444-0.003-2.474-0.029-2.479-2.382
		c-0.015-8.284-0.015-16.567-0.006-24.851c0-2.354,0.026-2.362,2.529-2.362c5.576-0.003,11.155,0.006,16.731,0.009
		c6.586,0,13.169,0.012,19.752-0.009c2.065-0.005,2.275-0.231,2.281-2.261c0.006-1.315-0.085-2.63-0.073-3.946
		c0.021-2.39,0.038-2.411-2.456-2.42c-4.648-0.018-9.298-0.006-13.943-0.006c-7.516,0-15.03-0.004-22.543,0
		c-1.215,0.002-2.317,0.053-2.3-1.736c0.059-6.27,0.051-12.542,0-18.813c-0.012-1.292,0.558-1.553,1.678-1.52
		c2.011,0.06,4.026,0.021,6.04,0.021c10.459,0.003,20.918,0.006,31.373-0.003c2.065-0.003,2.255-0.222,2.21-2.267
		c-0.026-1.238-0.086-2.474-0.109-3.712c-0.048-2.583-0.178-2.75-2.791-2.752c-15.185-0.009-30.368-0.006-45.549,0.003
		c-2.752,0.003-2.75,0.029-2.75,2.675v52.722c0,6.814,0.039,13.626-0.032,20.439c-0.018,1.647,0.479,2.06,2.146,2.023
		c6.582-0.136,13.166-0.101,19.752-0.101c9.217,0,18.434,0.006,27.651,0.071c1.235,0.01,1.677-0.37,1.632-1.582
		c-0.053-1.547,0.003-3.096,0.042-4.643C258.217,171.495,258.163,171.428,255.627,171.425 M186.234,146.381
		c-2.675-3.633-6.458-5.855-10.686-7.016c-5.425-1.494-10.986-2.486-16.471-3.766c-4.053-0.945-8.144-1.808-12.096-3.079
		c-2.916-0.936-5.004-3.113-5.825-6.177c-1.653-6.174,0.02-10.896,5.759-14.146c4.042-2.291,8.498-2.963,13-2.824
		c9.067,0.279,17.546,2.661,25.081,7.922c0.346,0.243,0.809,0.314,1.218,0.465c0.124-0.423,0.352-0.844,0.352-1.271
		c0.009-2.551-0.174-5.114-0.009-7.655c0.122-1.861-0.486-2.801-2.243-3.432c-7.709-2.761-15.581-4.536-23.488-4.293
		c-8.029-0.347-15.213,1.167-21.711,5.561c-10.695,7.235-10.636,20.034-5.97,27.498c3.042,4.87,7.766,7.537,13.104,8.98
		c4.536,1.226,9.231,1.857,13.824,2.895c4.282,0.965,8.693,1.693,12.743,3.293c6.323,2.496,8.5,9.979,5.046,15.911
		c-2.397,4.114-6.361,5.964-10.77,7.01c-6.544,1.553-13.032,1.072-19.485-0.673c-5.735-1.549-11.075-3.896-15.857-7.454
		c-0.474-0.355-1.058-0.563-1.59-0.839c-0.134,0.646-0.365,1.29-0.376,1.938c-0.042,2.557,0.115,5.119-0.054,7.664
		c-0.127,1.929,0.554,2.865,2.353,3.588c11.522,4.631,23.399,6.418,35.681,4.305c6.301-1.084,11.907-3.878,16.333-8.65
		C190.568,165.155,191.543,153.592,186.234,146.381 M344.409,104.774c0-2.171-0.167-2.338-2.418-2.365
		c-3.1-0.035-6.198,0.042-9.297-0.047c-1.591-0.044-2.524,0.486-3.206,2.002c-3.078,6.841-6.272,13.629-9.431,20.434
		c-2.995,6.453-5.984,12.909-9.013,19.347c-0.233,0.504-0.755,0.868-1.146,1.297c-0.299-0.429-0.657-0.829-0.886-1.291
		c-1.532-3.126-3.046-6.261-4.548-9.401c-4.844-10.112-9.708-20.211-14.493-30.353c-0.726-1.538-1.589-2.174-3.354-2.062
		c-2.853,0.187-5.729,0.044-8.595,0.071c-2.688,0.024-2.755,0.083-2.755,2.723c-0.003,3.019-0.006,6.038-0.003,9.057
		c-0.003,3.019-0.003,6.038-0.003,9.061c-0.003,6.038-0.003,12.079-0.003,18.117v32.288c0.003,1.7,0.047,3.407,0.012,5.107
		c-0.021,0.992,0.396,1.407,1.374,1.396c1.627-0.018,3.254-0.009,4.88,0.021c2.797,0.048,2.806,0.06,2.806-2.705
		c0.003-18.582,0.003-37.165,0.006-55.747c0-2.245-0.032-4.492,0.015-6.734c0.013-0.551,0.27-1.096,0.415-1.642
		c0.356,0.465,0.8,0.889,1.055,1.404c1.091,2.222,2.121,4.471,3.173,6.711c5.529,11.762,11.051,23.524,16.606,35.271
		c0.311,0.658,0.851,1.604,1.387,1.681c1.591,0.222,3.33,0.396,4.823-0.048c0.835-0.246,1.425-1.691,1.908-2.702
		c6.311-13.187,12.571-26.395,18.875-39.582c0.433-0.904,1.108-1.688,1.669-2.53c0.153,1.031,0.435,2.065,0.438,3.096
		c0.019,19.744,0.003,39.486-0.006,59.23c0,0.928,0.033,1.858-0.003,2.785c-0.044,1.105,0.478,1.508,1.541,1.496
		c1.938-0.018,3.876,0.003,5.81,0.065c2.226,0.071,2.355,0.009,2.355-2.284C344.409,153.553,344.414,129.164,344.409,104.774
		 M113.81,177.35c-9.116-15.646-18.262-31.271-27.355-46.93c-0.752-1.295-1.621-1.822-3.144-1.798
		c-5.499,0.089-11,0.039-16.502,0.033c-0.696,0-1.41,0.042-2.083-0.092c-1.191-0.24-1.958-1.038-1.979-2.252
		c-0.023-1.273,0.614-2.251,1.954-2.512c0.675-0.13,1.389-0.1,2.082-0.1c4.495-0.003,8.989,0.021,13.481,0.003
		c2.174-0.006,2.216-0.104,1.123-1.974c-4.373-7.48-8.749-14.962-13.125-22.442c-1.784-3.049-1.813-3.066-3.595,0.074
		c-5.306,9.354-10.588,18.722-15.874,28.087c-4.752,8.423-9.496,16.852-14.242,25.275l0.054,0.051
		c-0.3,0.592-0.599,1.185-0.898,1.779c0.583,0.096,1.167,0.208,1.753,0.282c0.306,0.038,0.62,0.009,0.931,0.009
		c11.155,0,22.313,0,33.467,0.01c0.774,0,1.567-0.03,2.312,0.136c1.321,0.299,1.896,1.224,1.807,2.577
		c-0.083,1.292-0.85,1.961-2.035,2.154c-0.682,0.112-1.393,0.053-2.089,0.053c-12.396,0.003-24.792,0.03-37.188-0.026
		c-1.582-0.006-2.521,0.453-3.3,1.882c-3.008,5.498-6.151,10.923-9.224,16.383c-0.879,1.564-0.655,1.953,1.168,2.128
		c0.462,0.045,0.93,0.021,1.393,0.021c29.209,0.003,58.416,0.006,87.623,0.006c0.699,0.003,1.398,0.024,2.092-0.038
		C114.675,179.927,114.979,179.361,113.81,177.35"/>
	<path fill="#333333" d="M34.551,152.721c4.747-8.425,9.49-16.852,14.243-25.274c5.285-9.366,10.567-18.734,15.874-28.089
		c1.781-3.141,1.811-3.123,3.594-0.073c4.375,7.481,8.751,14.961,13.124,22.442c1.092,1.869,1.053,1.966-1.122,1.974
		c-4.493,0.017-8.987-0.007-13.48-0.005c-0.695,0.001-1.408-0.03-2.083,0.103c-1.339,0.262-1.975,1.238-1.954,2.513
		c0.021,1.213,0.79,2.011,1.979,2.25c0.674,0.135,1.388,0.091,2.084,0.092c5.5,0.006,11.001,0.056,16.501-0.031
		c1.522-0.024,2.392,0.502,3.144,1.798c9.094,15.658,18.239,31.285,27.354,46.929c1.172,2.011,0.865,2.577-1.396,2.777
		c-0.692,0.061-1.393,0.039-2.09,0.039c-29.207-0.002-58.415-0.005-87.622-0.009c-0.466,0-0.933,0.023-1.394-0.02
		c-1.822-0.175-2.049-0.563-1.168-2.126c3.074-5.463,6.217-10.887,9.224-16.386c0.779-1.427,1.719-1.889,3.302-1.882
		c12.396,0.057,24.791,0.03,37.187,0.027c0.697,0,1.407,0.059,2.088-0.053c1.187-0.193,1.952-0.862,2.037-2.154
		c0.087-1.354-0.487-2.278-1.808-2.576c-0.743-0.167-1.539-0.137-2.31-0.137c-11.156-0.01-22.312-0.009-33.468-0.01
		c-0.31,0-0.624,0.03-0.929-0.008c-0.587-0.074-1.171-0.188-1.756-0.284c0.3-0.593,0.6-1.187,0.899-1.78l0.128-0.039L34.551,152.721
		z"/>
	<path fill="#333333" d="M275.26,141.364c0.002-12.079-0.004-24.157,0.006-36.236c0.002-2.638,0.07-2.697,2.756-2.721
		c2.866-0.026,5.742,0.115,8.597-0.07c1.765-0.115,2.628,0.523,3.354,2.061c4.785,10.14,9.648,20.242,14.493,30.354
		c1.503,3.139,3.016,6.274,4.547,9.398c0.228,0.465,0.589,0.864,0.888,1.295c0.389-0.43,0.91-0.797,1.146-1.297
		c3.027-6.439,6.018-12.896,9.012-19.351c3.157-6.804,6.353-13.592,9.431-20.431c0.683-1.518,1.613-2.047,3.206-2.003
		c3.098,0.087,6.198,0.012,9.296,0.048c2.252,0.027,2.419,0.19,2.419,2.363c0.004,24.389,0.001,48.778-0.012,73.168
		c-0.002,2.292-0.132,2.356-2.356,2.284c-1.936-0.063-3.873-0.083-5.81-0.064c-1.065,0.011-1.585-0.393-1.542-1.496
		c0.037-0.928,0.004-1.857,0.004-2.787c0.008-19.743,0.023-39.487,0.005-59.23c0-1.032-0.284-2.063-0.437-3.096
		c-0.562,0.841-1.237,1.627-1.669,2.529c-6.304,13.188-12.565,26.396-18.874,39.582c-0.483,1.011-1.073,2.456-1.91,2.704
		c-1.492,0.442-3.229,0.27-4.821,0.046c-0.538-0.075-1.077-1.022-1.388-1.679c-5.556-11.747-11.077-23.511-16.604-35.271
		c-1.054-2.24-2.086-4.489-3.175-6.71c-0.253-0.517-0.698-0.941-1.056-1.407c-0.145,0.548-0.402,1.092-0.414,1.642
		c-0.046,2.245-0.016,4.49-0.016,6.736c-0.001,18.582-0.001,37.165-0.005,55.747c-0.001,2.763-0.009,2.753-2.806,2.703
		c-1.626-0.028-3.253-0.037-4.88-0.02c-0.977,0.011-1.394-0.403-1.374-1.395c0.033-1.703-0.011-3.406-0.011-5.109
		C275.258,162.889,275.259,152.126,275.26,141.364"/>
	<path fill="#333333" d="M160.827,101.108c7.907-0.242,15.778,1.532,23.487,4.295c1.758,0.629,2.364,1.569,2.243,3.43
		c-0.166,2.541,0.019,5.104,0.01,7.658c-0.002,0.423-0.229,0.847-0.353,1.271c-0.409-0.151-0.872-0.225-1.218-0.465
		c-7.534-5.262-16.014-7.643-25.081-7.923c-4.502-0.139-8.959,0.532-13,2.822c-5.739,3.252-7.415,7.975-5.761,14.147
		c0.821,3.064,2.909,5.242,5.825,6.179c3.954,1.271,8.044,2.132,12.097,3.077c5.485,1.279,11.045,2.273,16.47,3.765
		c4.229,1.163,8.012,3.386,10.687,7.018c5.311,7.209,4.336,18.773-2.14,25.755c-4.426,4.772-10.03,7.566-16.333,8.65
		c-12.279,2.111-24.156,0.325-35.678-4.305c-1.8-0.723-2.482-1.66-2.354-3.588c0.169-2.545,0.013-5.109,0.056-7.664
		c0.011-0.648,0.243-1.292,0.374-1.939c0.533,0.276,1.118,0.485,1.593,0.84c4.782,3.559,10.121,5.905,15.855,7.455
		c6.453,1.743,12.94,2.224,19.486,0.671c4.409-1.045,8.375-2.894,10.771-7.009c3.454-5.931,1.275-13.414-5.045-15.911
		c-4.051-1.6-8.46-2.328-12.744-3.295c-4.592-1.037-9.287-1.666-13.823-2.893c-5.34-1.445-10.063-4.112-13.105-8.979
		c-4.667-7.465-4.725-20.263,5.969-27.497C145.611,102.276,152.798,100.763,160.827,101.108"/>
	<path fill="#333333" d="M206.967,141.313c0-12.078,0-24.155,0-36.233c0-2.646-0.001-2.672,2.749-2.675
		c15.184-0.011,30.365-0.012,45.549-0.003c2.614,0.002,2.744,0.168,2.793,2.751c0.023,1.238,0.082,2.476,0.108,3.713
		c0.045,2.044-0.144,2.264-2.209,2.266c-10.458,0.011-20.915,0.005-31.373,0.004c-2.014,0-4.029,0.037-6.041-0.021
		c-1.12-0.033-1.689,0.228-1.678,1.52c0.051,6.27,0.059,12.542,0,18.812c-0.016,1.79,1.085,1.739,2.3,1.738
		c7.514-0.005,15.027-0.002,22.542-0.001c4.647,0,9.296-0.011,13.943,0.006c2.496,0.009,2.477,0.03,2.456,2.421
		c-0.013,1.315,0.08,2.631,0.075,3.946c-0.008,2.03-0.216,2.256-2.28,2.261c-6.585,0.021-13.169,0.01-19.754,0.009
		c-5.577-0.002-11.154-0.012-16.731-0.01c-2.503,0.001-2.528,0.01-2.531,2.363c-0.008,8.283-0.008,16.567,0.01,24.851
		c0.004,2.354,0.033,2.38,2.479,2.383c12.085,0.012,24.169,0.007,36.253,0.012c2.537,0.001,2.592,0.071,2.53,2.586
		c-0.038,1.547-0.094,3.097-0.04,4.642c0.043,1.213-0.398,1.591-1.631,1.582c-9.219-0.064-18.437-0.069-27.654-0.07
		c-6.584-0.001-13.169-0.035-19.751,0.102c-1.665,0.035-2.162-0.378-2.145-2.025c0.071-6.812,0.031-13.625,0.031-20.438
		C206.967,152.305,206.967,146.809,206.967,141.313"/>
	<polygon fill="#333333" points="34.551,152.721 34.732,152.73 34.604,152.77 	"/>
	<path fill="#333333" d="M361.468,109.183c-0.207,0.072-0.726,0.104-1.559,0.104h-1.282v-2.177h1.354
		c0.702,0,1.126,0.009,1.265,0.027c0.282,0.047,0.502,0.161,0.655,0.337c0.154,0.178,0.231,0.412,0.231,0.703
		c0,0.258-0.06,0.471-0.175,0.643C361.838,108.99,361.676,109.112,361.468,109.183"/>
	<path fill="#333333" d="M360.215,103.074c-3.798,0-6.876,3.079-6.876,6.877c0,3.798,3.078,6.876,6.876,6.876
		s6.876-3.079,6.876-6.876C367.091,106.152,364.013,103.074,360.215,103.074 M362.54,114.247l-1.253-1.87
		c-0.444-0.669-0.749-1.09-0.916-1.262c-0.162-0.175-0.337-0.293-0.521-0.358c-0.183-0.065-0.474-0.098-0.87-0.098h-0.353v3.588
		h-1.736v-8.592h3.652c0.919,0,1.586,0.078,2,0.231c0.418,0.154,0.75,0.43,1.002,0.824c0.249,0.394,0.373,0.847,0.373,1.354
		c0,0.646-0.189,1.176-0.568,1.597c-0.379,0.421-0.946,0.685-1.698,0.794c0.374,0.219,0.685,0.459,0.927,0.72
		c0.246,0.263,0.575,0.728,0.99,1.396l1.049,1.677H362.54z"/>
</g>
</svg>
