<?xml version="1.0" encoding="utf-8"?>
<!-- Generator: Adobe Illustrator 16.0.0, SVG Export Plug-In . SVG Version: 6.00 Build 0)  -->
<!DOCTYPE svg PUBLIC "-//W3C//DTD SVG 1.1//EN" "http://www.w3.org/Graphics/SVG/1.1/DTD/svg11.dtd">
<svg version="1.1" id="Layer_1" xmlns="http://www.w3.org/2000/svg" xmlns:xlink="http://www.w3.org/1999/xlink" x="0px" y="0px"
	 width="400px" height="300px" viewBox="0 0 400 300" enable-background="new 0 0 400 300" xml:space="preserve">
<g>
	<path fill="#555555" d="M27.399,120.661c0.242,0.011,0.484,0.032,0.727,0.032c17.084,0.001,34.17-0.002,51.254,0.018
		c0.621,0.001,0.865-0.191,1.065-0.76c5.63-16.005,11.278-32.003,16.919-48.003c0.088-0.246,0.24-0.479,0.199-0.759h1.062
		c2.289,6.468,4.583,12.935,6.867,19.405c3.467,9.819,6.931,19.64,10.378,29.466c0.18,0.511,0.426,0.647,0.948,0.647
		c17.417-0.015,34.834-0.012,52.251-0.012c0.277,0,0.557,0,0.868,0c-0.097,0.343-0.341,0.433-0.52,0.574
		c-13.533,10.637-27.065,21.275-40.615,31.891c-0.569,0.445-0.708,0.793-0.495,1.512c4.826,16.311,9.619,32.631,14.414,48.951
		c0.084,0.287,0.248,0.564,0.19,0.896c-0.271-0.033-0.442-0.221-0.638-0.352c-14.502-9.664-29.003-19.328-43.493-29.01
		c-0.474-0.316-0.776-0.334-1.261-0.01c-14.49,9.684-28.993,19.348-43.494,29.016c-0.22,0.145-0.441,0.287-0.778,0.504
		c0.536-1.83,1.034-3.537,1.536-5.246c4.413-15.006,8.823-30.016,13.252-45.018c0.143-0.486,0.063-0.746-0.328-1.055
		c-13.334-10.458-26.66-20.929-39.987-31.398c-0.104-0.081-0.214-0.152-0.321-0.228C27.399,121.368,27.399,121.014,27.399,120.661"
		/>
	<polygon fill="#555555" points="218.234,131.459 218.234,120.188 206.217,100.757 211.832,100.757 220.734,115.625 
		229.684,100.757 235.297,100.757 223.236,120.188 223.236,131.459 	"/>
	<rect x="239.332" y="100.757" fill="#555555" width="5" height="30.702"/>
	<polygon fill="#555555" points="256.787,100.757 256.787,126.811 272.93,126.811 272.93,131.459 251.789,131.459 251.789,100.757 	
		"/>
	<path fill="#555555" d="M288.018,100.757c5.264,0,9.27,1.403,12.018,4.21s4.123,6.521,4.123,11.141
		c0,4.62-1.375,8.333-4.123,11.141s-6.754,4.21-12.018,4.21h-10.746v-30.702H288.018z M296.242,124.114
		c1.885-1.857,2.828-4.525,2.828-8.005s-0.943-6.147-2.828-8.005c-1.887-1.856-4.643-2.785-8.27-2.785h-5.701v21.579h5.701
		C291.6,126.898,294.355,125.97,296.242,124.114"/>
	<rect x="309.771" y="100.757" fill="#555555" width="5" height="30.702"/>
	<polygon fill="#555555" points="319.992,131.459 319.992,127.468 336.352,105.362 320.518,105.362 320.518,100.757 
		342.713,100.757 342.713,104.749 326.352,126.811 343.326,126.811 343.326,131.459 	"/>
	<path fill="#555555" d="M199.835,153.391c8.743,0,13.114,3.361,13.114,10.088c0,6.725-4.371,10.088-13.114,10.088h-5.966v10.525h-5
		v-30.701H199.835z M205.779,167.799c1.387-0.805,2.082-2.244,2.082-4.32s-0.695-3.516-2.082-4.32
		c-1.391-0.805-3.283-1.205-5.681-1.205h-6.229v11.053h6.229C202.496,169.006,204.389,168.604,205.779,167.799"/>
	<polygon fill="#555555" points="222.949,153.391 222.949,179.443 239.09,179.443 239.09,184.092 217.949,184.092 217.949,153.391 	
		"/>
	<path fill="#555555" d="M239.967,184.092l12.984-30.701h5.482l12.939,30.701h-5.264l-2.721-6.621h-15.395l-2.719,6.621H239.967z
		 M249.705,173.084h11.93l-5.395-13.115c-0.234-0.643-0.424-1.213-0.57-1.711c-0.146,0.498-0.338,1.068-0.57,1.711L249.705,173.084z
		"/>
	<path fill="#555555" d="M273.258,161.197c0-2.689,1.031-4.76,3.092-6.207c2.063-1.447,4.629-2.17,7.699-2.17
		c3.713,0,6.914,0.775,9.605,2.324v4.781c-2.604-1.754-5.674-2.604-9.211-2.545c-4.064,0-6.098,1.244-6.098,3.729
		c0,1.199,0.6,2.201,1.799,3.004c1.199,0.805,2.66,1.471,4.387,1.996c1.725,0.527,3.449,1.127,5.176,1.799
		c1.725,0.674,3.186,1.689,4.385,3.049s1.799,3.049,1.799,5.066c0,3.01-1.09,5.213-3.268,6.602s-4.963,2.066-8.355,2.037
		c-4.094,0-7.721-0.891-10.877-2.674v-4.912c3.127,2.018,6.637,3.025,10.525,3.025c4.592,0,6.887-1.271,6.887-3.816
		c0-1.109-0.432-2.061-1.293-2.85c-0.863-0.791-1.945-1.389-3.246-1.799c-1.303-0.41-2.713-0.9-4.232-1.469
		c-1.521-0.57-2.932-1.17-4.232-1.799c-1.303-0.629-2.385-1.557-3.246-2.785C273.689,164.355,273.258,162.893,273.258,161.197"/>
	<polygon fill="#555555" points="322.777,153.391 322.777,157.996 312.645,157.996 312.645,184.092 307.646,184.092 
		307.646,157.996 297.469,157.996 297.469,153.391 	"/>
	<path fill="#555555" d="M326.461,147.688c0-0.935,0.293-1.659,0.877-2.171c0.586-0.511,1.316-0.767,2.193-0.767
		s1.609,0.256,2.193,0.767c0.584,0.512,0.877,1.236,0.877,2.171c0,0.995-0.293,1.748-0.877,2.26
		c-0.584,0.511-1.316,0.768-2.193,0.768s-1.607-0.264-2.193-0.79C326.754,149.399,326.461,148.654,326.461,147.688 M332.119,184.092
		h-5v-30.701h5V184.092z"/>
	<polygon fill="#555555" points="339.531,184.092 339.531,153.391 344.533,153.391 344.533,166.197 349.357,166.197 
		359.139,153.391 364.797,153.391 353.48,168.215 365.586,184.092 359.928,184.092 349.445,170.803 344.533,170.803 
		344.533,184.092 	"/>
</g>
<g>
	<defs>
		<rect id="SVGID_1_" x="576.157" y="123.743" width="342.998" height="68.999"/>
	</defs>
	<clipPath id="SVGID_2_">
		<use xlink:href="#SVGID_1_"  overflow="visible"/>
	</clipPath>
	<path clip-path="url(#SVGID_2_)" fill="#4B4B4B" d="M919.155,142.347c-0.827,0.098-1.11-0.269-1.122-1.094
		c-0.02-1.176-0.174-2.35-0.479-3.55c-0.41,0.91-0.822,1.819-1.225,2.731c-0.152,0.343-0.278,0.651-0.768,0.637
		c-0.448-0.013-0.547-0.305-0.684-0.614c-0.416-0.947-0.837-1.892-1.337-3.021c-0.325,1.475-0.241,2.804-0.423,4.102
		c-0.053,0.384,0.038,0.839-0.6,0.776c-0.616-0.06-0.409-0.495-0.386-0.826c0.131-1.829,0.273-3.657,0.415-5.486
		c0.023-0.3-0.001-0.637,0.447-0.662c0.384-0.022,0.702-0.002,0.885,0.447c0.526,1.3,1.092,2.585,1.715,4.046
		c0.521-1.219,0.981-2.3,1.443-3.379c0.096-0.225,0.208-0.444,0.285-0.676c0.15-0.458,0.504-0.458,0.888-0.438
		c0.476,0.024,0.389,0.392,0.415,0.673c0.115,1.247,0.211,2.497,0.332,3.744c0.026,0.255-0.099,0.563,0.196,0.753V142.347z"/>
	<path clip-path="url(#SVGID_2_)" fill="#505050" d="M877.838,191.298c-7.356-0.023-13.876-2.315-19.416-7.229
		c-1.039-0.922-1.026-0.936-0.241-2.073c2.09-3.021,4.181-6.045,6.271-9.068c0.652-0.942,0.638-0.925,1.497-0.225
		c3.032,2.473,6.35,4.384,10.271,5.027c1.491,0.246,2.99,0.264,4.446-0.253c1.317-0.468,2.178-1.324,2.355-2.768
		c0.161-1.306-0.646-2.045-1.579-2.688c-1.548-1.066-3.288-1.759-5.009-2.483c-3.357-1.412-6.749-2.755-9.817-4.763
		c-3.372-2.207-6.052-4.978-7.198-8.965c-2.261-7.864,1.808-16.123,9.676-19.491c6.145-2.629,12.416-2.392,18.691-0.488
		c2.99,0.906,5.7,2.366,8.077,4.423c0.625,0.54,0.764,0.987,0.338,1.781c-1.827,3.397-3.586,6.831-5.331,10.27
		c-0.32,0.63-0.519,0.61-1.038,0.188c-2.952-2.4-6.252-4.061-10.077-4.54c-1.452-0.181-2.876-0.1-4.239,0.473
		c-1.144,0.479-1.941,1.272-2.128,2.554c-0.185,1.285,0.578,2.077,1.517,2.728c1.956,1.359,4.206,2.104,6.394,2.976
		c3.216,1.283,6.421,2.581,9.294,4.561c3.435,2.365,5.971,5.401,6.67,9.614c1.528,9.201-3.591,16.871-11.984,19.454
		C882.855,191.059,880.376,191.382,877.838,191.298"/>
	<path clip-path="url(#SVGID_2_)" fill="#5C5C5C" d="M803.331,172.289c-1.102,0.011-2.207,0.072-3.306,0.016
		c-0.789-0.041-0.971,0.251-0.967,0.994c0.027,5.27,0.016,10.539,0.015,15.81c-0.001,1.259-0.002,1.26-1.234,1.26
		c-4.074,0.002-8.149-0.015-12.223,0.016c-0.761,0.006-1.059-0.146-1.058-0.999c0.026-17.68,0.021-35.357,0.02-53.036
		c0-0.517-0.108-1.015,0.742-1.01c6.004,0.041,12.007,0.038,18.011,0.047c0.504,0.36,0.44,0.908,0.444,1.416
		c0.022,2.775,0.019,5.55,0.004,8.324c-0.005,0.999-0.021,1.972,0.987,2.574c0.099,0.059,0.104,0.212,0.1,0.338
		c-0.204,0.459-0.638,0.422-1.024,0.443c-0.917,0.046-1.837,0-2.754,0.028c-1.151,0.036-1.505,0.359-1.519,1.486
		c-0.029,2.572-0.032,5.146,0.002,7.718c0.014,1.078,0.372,1.41,1.459,1.451c0.979,0.037,1.959-0.013,2.938,0.028
		c0.389,0.018,0.816-0.025,1.062,0.395c0.059,0.288-0.087,0.49-0.32,0.592c-0.817,0.357-0.922,1.056-0.922,1.823
		c-0.004,2.927,0.012,5.853-0.011,8.779C803.771,171.317,803.867,171.903,803.331,172.289"/>
	<path clip-path="url(#SVGID_2_)" fill="#626262" d="M758.472,190.33c-5.788,0.012-11.578,0.02-17.367,0.042
		c-0.529,0.001-0.714-0.229-0.677-0.721c0.012-0.184,0-0.368,0-0.553c0-17.493-0.002-34.988,0-52.484
		c0-1.257,0.002-1.261,1.229-1.258c5.667,0.009,11.333,0.02,17,0.031c0.536,0.39,0.44,0.979,0.444,1.515
		c0.022,2.818,0.003,5.637,0.012,8.455c0.006,1.752,0.293,2.045,2.021,2.05c4.226,0.01,8.453-0.009,12.679,0.015
		c0.529,0.003,1.129-0.129,1.504,0.443c-0.378,0.184-0.782,0.105-1.176,0.105c-6.034,0.004-12.067,0.001-18.102,0.001
		c-1.21,0-1.214,0.004-1.214,1.212c-0.002,2.084,0.027,4.167-0.016,6.251c-0.016,0.739,0.249,0.933,0.953,0.93
		c4.778-0.025,9.556-0.017,14.334-0.009c0.354,0.001,0.738-0.114,1.061,0.152c-0.357,0.61-0.972,0.436-1.49,0.44
		c-3.704,0.029-7.408,0.01-11.111,0.015c-2.211,0.003-2.383,0.18-2.387,2.422c-0.002,2.726,0.014,5.45-0.011,8.175
		c-0.005,0.509,0.069,1.062-0.444,1.421c-0.623-0.038-0.921,0.154-0.906,0.879c0.047,2.357,0.037,4.717,0.004,7.075
		c-0.01,0.694,0.236,0.91,0.906,0.885c0.916-0.036,1.836,0.015,2.754,0.028c0.398,0.287,0.435,0.717,0.439,1.149
		c0.027,3.396,0.027,6.79,0,10.184C758.906,189.612,758.87,190.042,758.472,190.33"/>
	<path clip-path="url(#SVGID_2_)" fill="#595959" d="M804.802,148.014c-0.176-0.048-0.354-0.142-0.528-0.133
		c-0.809,0.041-0.953-0.417-0.95-1.104c0.017-3.797,0.008-7.594,0.008-11.39c3.066-0.092,6.136-0.101,9.141,0.6
		c6.852,1.598,11.546,6.953,12.354,13.979c0.606,5.26-0.335,10.125-3.622,14.396c-0.94,1.223-2.056,2.274-3.364,3.096
		c-0.448,0.281-0.562,0.475-0.257,0.991c4.093,6.938,7.875,14.051,11.825,21.067c0.469,0.836,0.455,0.852-0.542,0.854
		c-4.748,0.003-9.496-0.02-14.243,0.02c-0.768,0.008-1.136-0.281-1.47-0.921c-2.847-5.457-5.729-10.895-8.579-16.349
		c-0.283-0.542-0.587-0.913-1.243-0.831c0-3.672-0.001-7.345,0-11.016c0-1.304,0.002-1.303,1.306-1.492
		c0.119-0.019,0.232-0.072,0.35-0.111c0.125-0.533,0.609-0.551,1-0.671c3.563-1.097,5.116-5.564,3.004-8.667
		c-0.652-0.957-1.679-1.265-2.714-1.584C805.755,148.588,805.079,148.685,804.802,148.014"/>
	<path clip-path="url(#SVGID_2_)" fill="#6C6C6C" d="M656.98,179.161c7.746-1.925,11.828-8.513,12.506-15.007
		c0.666-6.389-1.293-11.771-6.246-15.97c-0.354-0.51-0.451-1.085-0.452-1.691c-0.007-3.946-0.017-7.893,0.009-11.839
		c0.003-0.564-0.09-1.204,0.625-1.484c7.208,2.127,12.834,6.378,16.769,12.761c7.291,11.828,5.446,27.955-4.305,37.845
		c-4.758,4.825-10.575,7.608-17.263,8.605c-0.543,0.082-1.078,0.23-1.636,0.152c-0.405-0.282-0.435-0.714-0.438-1.146
		c-0.03-3.696-0.028-7.393,0-11.091C656.553,179.88,656.523,179.42,656.98,179.161"/>
	<path clip-path="url(#SVGID_2_)" fill="#787878" d="M601.634,184.341c-13.47-1.838-23.594-12.143-25.195-25.646
		c-0.979-8.257,0.538-15.919,5.514-22.718c3.454-4.72,7.954-8.094,13.446-10.126c0.432,0.269,0.436,0.712,0.438,1.137
		c0.029,4.452,0.023,8.905,0.008,13.356c-0.002,0.451-0.217,0.859-0.203,1.307c-2.156,2.469-3.682,5.271-4.176,8.527
		c-1.1,7.259,0.702,13.513,6.591,18.265c1.2,0.969,2.615,1.562,4.009,2.185c0.143,0.604,0.036,1.214,0.036,1.82
		c0.003,3.47,0.02,6.942-0.011,10.414C602.086,183.382,602.236,183.989,601.634,184.341"/>
	<path clip-path="url(#SVGID_2_)" fill="#555555" d="M835.866,162.856c0-8.762,0-17.524,0-26.286c0-1.215,0.002-1.216,1.254-1.216
		c4.073,0,8.148,0.015,12.221-0.016c0.737-0.006,1.007,0.17,1.006,0.958c-0.021,17.708-0.021,35.415-0.001,53.123
		c0.001,0.785-0.27,0.971-1.008,0.965c-4.104-0.029-8.209-0.04-12.313,0.005c-0.905,0.011-1.187-0.2-1.183-1.157
		C835.884,180.439,835.866,171.647,835.866,162.856"/>
	<path clip-path="url(#SVGID_2_)" fill="#686868" d="M711.223,190.33c-2.847,0.012-5.693,0.006-8.541,0.051
		c-0.664,0.01-0.809-0.385-0.977-0.862c-2.117-6.004-4.24-12.006-6.362-18.008c-4.112-11.627-8.227-23.254-12.339-34.882
		c-0.082-0.231-0.157-0.464-0.246-0.692c-0.178-0.459,0.012-0.585,0.461-0.584c4.838,0.008,9.676,0.014,14.514-0.006
		c0.668-0.002,0.697,0.461,0.829,0.885c2.077,6.694,4.175,13.381,6.217,20.085c1.517,4.976,3.257,9.884,4.4,14.97
		c0.022,0.105,0.081,0.202,0.207,0.499c0.62-2.039,0.868-3.984,1.623-5.779c0.449,0.078,0.571,0.406,0.618,0.797
		c0.043,0.365,0.048,0.731,0.048,1.099c0.005,6.879,0.009,13.759-0.007,20.637C711.667,189.159,711.822,189.846,711.223,190.33"/>
	<path clip-path="url(#SVGID_2_)" fill="#666666" d="M711.223,190.33c0-7.503-0.002-15.006,0.002-22.51
		c0-0.615-0.016-1.225-0.216-1.814c0.888-2.894,1.761-5.794,2.665-8.684c2.186-6.979,4.396-13.949,6.562-20.934
		c0.235-0.754,0.544-1.064,1.384-1.056c4.469,0.045,8.939,0.021,13.41,0.021c1.062,0.001,1.066,0.007,0.699,1.049
		c-6.229,17.692-12.463,35.384-18.68,53.081c-0.225,0.64-0.518,0.934-1.236,0.901C714.285,190.319,712.753,190.343,711.223,190.33"
		/>
	<path clip-path="url(#SVGID_2_)" fill="#727272" d="M642.27,149.882c-0.166,0.479-0.57,0.785-0.859,1.171
		c-2.894,3.859-3.938,8.209-3.447,12.965c0.057,0.548,0.162,1.083-0.104,1.615c-3.031,6.08-7.575,10.742-13.346,14.256
		c-0.531,0.186-0.731-0.11-0.818-0.564c-0.076-0.394-0.068-0.792-0.07-1.19c-0.004-6.736,0.003-13.474-0.007-20.211
		c-0.001-1.026,0.271-2.045,0.081-3.076c0.64-3.45,2.047-6.59,3.937-9.515c3.339-5.166,7.913-8.859,13.583-11.213
		c0.225-0.093,0.463-0.147,0.696-0.221c0.522,0.145,0.589,0.564,0.61,1.011c0.042,0.827,0.024,1.654,0.024,2.481
		c0.001,2.972,0,5.944,0.001,8.916C642.551,147.506,642.611,148.71,642.27,149.882"/>
	<path clip-path="url(#SVGID_2_)" fill="#707070" d="M656.98,179.161c0.002,4.457,0.005,8.915,0.007,13.372
		c-5.308,0.606-10.441-0.122-15.392-2.101c-4.818-1.927-8.834-4.955-12.106-8.987c-0.494-0.608-0.522-0.899,0.175-1.404
		c3.768-2.725,6.892-6.048,9.13-10.159c0.097-0.18,0.144-0.413,0.405-0.483C642.873,176.752,648.515,180.535,656.98,179.161"/>
	<path clip-path="url(#SVGID_2_)" fill="#757575" d="M595.641,141.651c-0.303-0.4-0.24-0.871-0.24-1.324
		c-0.002-4.825-0.002-9.652-0.001-14.477c4.649-1.842,9.497-2.347,14.437-2.01c5.115,0.348,9.928,1.779,14.365,4.391
		c0.986,0.581,0.986,0.582,0.293,1.533c-2.178,2.998-4.374,5.984-6.522,9.004c-0.436,0.612-0.761,0.737-1.476,0.39
		c-4.797-2.335-9.759-2.879-14.892-1.204C599.314,138.702,597.391,140.034,595.641,141.651"/>
	<path clip-path="url(#SVGID_2_)" fill="#747474" d="M623.701,154.848c0.496,0.384,0.373,0.938,0.373,1.443
		c0.006,7.432,0.003,14.865,0.01,22.298c0,0.471-0.142,1.01,0.43,1.3c-3.265,2.132-6.865,3.417-10.66,4.193
		c-1.703,0.349-3.423,0.615-5.173,0.572c-1.071,0.129-2.144,0.13-3.216-0.002c-1.289,0.045-2.567-0.051-3.831-0.312
		c0.005-4.059,0.011-8.115,0.015-12.174c0.002-0.55-0.033-1.109,0.416-1.539c1.246,0.416,2.508,0.75,3.827,0.807
		c1.154,0.102,2.308,0.082,3.462,0.009c5.121-0.613,9.377-3.015,13.191-6.355c0.487-0.427,0.414-0.902,0.379-1.416
		c-0.193-2.859,0.041-5.688,0.637-8.487C623.586,155.066,623.653,154.959,623.701,154.848"/>
	<path clip-path="url(#SVGID_2_)" fill="#6F6F6F" d="M642.27,149.882c-0.225-0.395-0.172-0.829-0.172-1.254
		c-0.003-4.429-0.002-8.858-0.003-13.287c0-0.487,0.033-0.98-0.18-1.442c4.453-1.776,9.088-2.391,13.852-2.109
		c2.603,0.153,5.177,0.515,7.655,1.381c-0.166,0.532-0.186,1.079-0.186,1.632c0.004,4.46,0.002,8.921,0.004,13.382
		c-2.561-1.84-5.375-2.979-8.549-3.179c-2.039-0.129-4.02,0.145-5.947,0.797C646.262,146.642,644.055,147.931,642.27,149.882"/>
	<path clip-path="url(#SVGID_2_)" fill="#5F5F5F" d="M758.472,190.33v-12.483c5.759-0.012,11.517-0.021,17.276-0.045
		c0.538-0.001,0.681,0.242,0.681,0.727c-0.008,3.706-0.008,7.413,0,11.122c0,0.481-0.143,0.728-0.681,0.725
		C769.988,190.351,764.23,190.343,758.472,190.33"/>
	<path clip-path="url(#SVGID_2_)" fill="#5F5F5F" d="M775.316,147.864c-5.082-0.001-10.165-0.001-15.247-0.003
		c-1.41-0.001-1.412-0.004-1.413-1.45c-0.001-3.674,0-7.349,0-11.024c5.349-0.011,10.698-0.02,16.047-0.036
		c0.425-0.002,0.692,0.078,0.686,0.596C775.34,139.919,775.475,143.893,775.316,147.864"/>
	<path clip-path="url(#SVGID_2_)" fill="#5F5F5F" d="M755.714,168.979c0-3.701-0.001-7.403,0.001-11.105
		c0-1.351,0.017-1.366,1.402-1.366c4.679-0.001,9.36-0.001,14.04-0.001c0.034,0.27,0.1,0.539,0.101,0.81
		c0.006,3.577-0.017,7.155,0.019,10.731c0.008,0.759-0.219,0.985-0.983,0.978C765.434,168.983,760.573,168.99,755.714,168.979"/>
	<path clip-path="url(#SVGID_2_)" fill="#4E4E4E" d="M907.938,139.287c-0.001-0.764-0.026-1.529,0.009-2.291
		c0.024-0.543-0.145-0.795-0.72-0.751c-0.425,0.033-0.855,0.001-1.282-0.006c-0.33-0.005-0.388-0.218-0.388-0.496
		c0-0.267,0.122-0.401,0.381-0.401c1.648-0.002,3.299-0.002,4.948,0.001c0.263,0,0.375,0.151,0.379,0.409
		c0.004,0.285-0.086,0.478-0.404,0.487c-0.152,0.004-0.306,0.008-0.458,0.011c-1.492,0.027-1.44-0.271-1.441,1.512
		c-0.002,1.222,0.011,2.444-0.009,3.667c-0.006,0.358,0.16,0.858-0.489,0.879c-0.748,0.025-0.499-0.545-0.516-0.914
		C907.917,140.694,907.939,139.99,907.938,139.287"/>
	<path clip-path="url(#SVGID_2_)" fill="#787878" d="M609.354,171.443c-1.154,0.224-2.309,0.239-3.461-0.009
		C607.046,171.438,608.2,171.44,609.354,171.443"/>
	<path clip-path="url(#SVGID_2_)" fill="#787878" d="M605.465,184.652c1.072,0,2.145,0,3.216,0
		C607.609,184.817,606.537,184.817,605.465,184.652"/>
	<path clip-path="url(#SVGID_2_)" fill="#FEFEFE" d="M804.802,148.014c0.967,0.146,1.933,0.292,2.841,0.686
		c1.232,0.533,2.041,1.433,2.369,2.735c0.356,1.416,0.398,2.845,0.016,4.263c-0.693,2.568-2.563,3.66-5.041,3.973
		c-1.682-0.003-3.362-0.023-5.043-0.001c-0.59,0.009-0.888-0.117-0.882-0.801c0.028-3.363,0.026-6.726,0.001-10.088
		c-0.004-0.674,0.286-0.83,0.882-0.817C801.563,147.999,803.183,147.999,804.802,148.014"/>
</g>
</svg>
