<?xml version="1.0" encoding="utf-8"?>
<!-- Generator: Adobe Illustrator 16.0.0, SVG Export Plug-In . SVG Version: 6.00 Build 0)  -->
<!DOCTYPE svg PUBLIC "-//W3C//DTD SVG 1.1//EN" "http://www.w3.org/Graphics/SVG/1.1/DTD/svg11.dtd">
<svg version="1.1" id="Layer_1" xmlns="http://www.w3.org/2000/svg" xmlns:xlink="http://www.w3.org/1999/xlink" x="0px" y="0px"
	 width="400px" height="300px" viewBox="0 0 400 300" enable-background="new 0 0 400 300" xml:space="preserve">
<polygon fill="#333333" points="71.27,146.221 43.219,175.659 16.035,175.918 16.035,179.471 44.605,179.471 71.616,149.339 
	88.066,149.339 88.066,146.221 "/>
<polygon fill="#333333" points="70.058,138.259 42.007,167.697 16.035,167.942 16.035,171.504 43.393,171.504 70.407,141.375 
	88.066,141.375 88.066,138.259 "/>
<polygon fill="#333333" points="68.5,131.677 40.447,161.116 16.035,161.347 16.035,164.922 41.835,164.922 68.846,134.794 
	88.066,134.794 88.066,131.677 "/>
<polygon fill="#333333" points="67.634,123.698 39.583,153.133 16.035,153.354 16.035,156.943 40.972,156.943 67.983,126.814 
	88.066,126.814 88.066,123.698 "/>
<polygon fill="#333333" points="16.035,124.75 16.035,127.478 33.349,127.263 50.305,146.548 52.27,144.348 35.339,124.75 "/>
<polygon fill="#333333" points="16.035,131.677 16.035,134.38 31.706,134.186 46.406,150.912 48.392,148.688 33.697,131.677 "/>
<polygon fill="#333333" points="16.035,138.522 16.035,141.203 29.799,141.032 42.415,155.381 44.418,153.137 31.791,138.522 "/>
<g>
	<path fill="#333333" d="M362.771,171.278c1.926-3.546-2.729-14.439-6.799-15.708c-0.961-0.299-2.224-0.236-2.167,0.935
		c0.237,5.005-2.079,10.487,2.758,14.98h-18.854c4.099-4.761,4.039-30.112-0.148-35.284c10.21,0,20.155-0.09,30.098,0.049
		c3.521,0.048,7.666-0.079,8.736,4.45c0.984,4.175-2.026,6.546-5.117,8.593c-0.909,0.602-1.83,1.186-3.186,2.061
		c6.688,5.43,8.602,13.821,14.44,19.924H362.771z M353.34,151.756c5.381-1.923,10.211-2.769,9.779-8.413
		c-0.271-3.545-3.852-4.313-6.523-3.34C350.67,142.161,354.796,147.199,353.34,151.756"/>
	<path fill="#333333" d="M215.221,136.296c-2.264,5,2.013,7.946,3.314,12.651c2.547-4.389,6.341-7.345,5.368-12.66h18.611
		c-4.047,5.293-4.17,30.361,0.011,35.091H224.47c4.809-8.184,1.149-17.208,1.555-26.261c-3.63,6.231-7.262,12.461-11.308,19.397
		c-3.74-6.717-7.137-12.816-10.535-18.916c0.131,8.789-3.492,17.675,1.429,25.932h-10.289c3.605-5.203,3.21-30.509-0.574-35.235
		H215.221z"/>
	<path fill="#333333" d="M166.132,172.742c-14.796-0.063-23.665-7.959-22.852-20.356c0.049-0.751,0.083-1.513,0.237-2.245
		c2.246-10.609,14.948-16.965,28.796-14.424c12.238,2.244,18.301,10.324,16.47,21.958
		C187.296,167.141,178.797,172.794,166.132,172.742 M175.159,155.711c0.123-3.803-0.122-7.504-2.299-10.825
		c-2.089-3.187-4.815-5.503-8.779-4.888c-3.751,0.581-5.711,3.52-6.532,6.971c-1.351,5.677-0.735,11.25,2.24,16.321
		c1.914,3.261,4.754,5.427,8.843,4.622c4.124-0.813,5.669-3.955,6.267-7.703C175.134,158.734,175.079,157.211,175.159,155.711"/>
	<path fill="#333333" d="M250.019,172.218c-0.454-4.333-0.854-8.138-1.254-11.964c2.688-0.367,2.891,1.873,3.971,2.979
		c4.508,4.615,9.898,6.01,16.021,4.391c2.211-0.585,4.383-1.826,4.367-4.541c-0.015-2.504-2.121-3.383-4.139-4.019
		c-3.764-1.185-7.576-2.212-11.332-3.419c-3.999-1.283-7.389-3.581-7.626-8.092c-0.253-4.832,2.672-8.127,6.892-10.108
		c4.729-2.221,9.726-2.823,14.88-1.771c2.954,0.604,5.907,1.11,9.231-0.158c0.483,3.465,0.942,6.738,1.542,11.029
		c-2.951-2.172-5.005-3.904-7.272-5.289c-2.297-1.403-4.94-2.026-7.609-1.36c-2.012,0.503-4.19,1.365-4.31,3.843
		c-0.111,2.292,1.931,3.125,3.718,3.674c3.95,1.214,7.969,2.204,11.947,3.332c4.316,1.224,7.623,3.632,7.867,8.459
		c0.246,4.866-2.611,8.222-6.623,10.377c-6.957,3.736-14.51,3.623-22.053,2.571C255.605,171.787,253.057,171.153,250.019,172.218"/>
	<path fill="#333333" d="M293.084,136.157c10.354,0,20.518,0.158,30.673-0.109c2.642-0.071,3.405,1.12,3.693,3.048
		c0.414,2.758,2.026,5.31,1.365,8.947c-3.303-4.921-7.339-7.985-12.953-8.217c-2.607-0.107-5.526-0.547-6.613,2.795
		c-0.501,1.542-1.173,3.899,0.499,4.606c2.769,1.171,5.901,1.148,8.492-0.964c0.666-0.543,1.05-1.435,2.147-2.999
		c1.007,5.051,1.845,9.244,2.682,13.437c-0.325,0.224-0.65,0.445-0.979,0.669c-1.154-1.434-2.109-3.12-3.514-4.241
		c-2.333-1.86-5.334-2.302-8.053-1.439c-2.957,0.938-1.532,3.879-1.565,5.893c-0.182,10.879,4.638,13.659,14.635,8.688
		c3.033-1.51,5.308-3.895,8.353-5.973c-1.182,3.396-2.325,6.807-3.568,10.18c-0.373,1.011-0.82,1.733-2.387,1.713
		c-10.71-0.147-21.423-0.077-32.552-0.077C297.427,165.801,297.013,140.945,293.084,136.157"/>
	<path fill="#333333" d="M122.472,136.426c-2.458,4.137-2.221,4.819,4.891,13.697c1.525-4.703,7.885-7.145,5.111-13.692h11.781
		c-6.594,4.521-9.804,10.751-13.911,16.23c-3.735,4.982-2.707,15.113,1.826,18.843h-19.977c7.621-9.51,2.473-20.53-11.588-35.079
		H122.472z"/>
	<path fill="#333333" d="M160.427,123.813c2.364,0.386,4.464,1.444,4.408,4.13c-0.062,2.93-2.171,4.225-4.959,4.119
		c-2.537-0.097-4.579-1.482-4.527-4.047C155.402,125.177,157.63,123.972,160.427,123.813"/>
	<path fill="#333333" d="M171.77,123.812c2.592,0.324,4.768,1.358,4.662,4.377c-0.095,2.683-2.071,3.852-4.565,3.862
		c-2.773,0.015-4.82-1.351-4.737-4.277C167.203,125.144,169.263,124.093,171.77,123.812"/>
</g>
</svg>
