<?xml version="1.0" encoding="utf-8"?>
<!-- Generator: Adobe Illustrator 16.0.0, SVG Export Plug-In . SVG Version: 6.00 Build 0)  -->
<!DOCTYPE svg PUBLIC "-//W3C//DTD SVG 1.1//EN" "http://www.w3.org/Graphics/SVG/1.1/DTD/svg11.dtd">
<svg version="1.1" id="Layer_1" xmlns="http://www.w3.org/2000/svg" xmlns:xlink="http://www.w3.org/1999/xlink" x="0px" y="0px"
	 width="245px" height="72px" viewBox="0 0 245 72" enable-background="new 0 0 245 72" xml:space="preserve">
<g>
	<path fill="#FFFFFF" d="M32.455,18.904c0,1.528-0.263,3.021-0.777,4.485c-0.037,0.098-0.069,0.199-0.107,0.297
		c-0.589,1.56-1.426,2.946-2.515,4.159c-1.086,1.216-2.391,2.197-3.913,2.948c-1.522,0.754-3.206,1.138-5.055,1.155h-6.495
		c-0.107,0-0.214-0.002-0.324-0.002c-0.069,0-0.139,0-0.205,0.002h-0.011c-0.182,0-0.358,0.004-0.537,0.012
		c-0.049-0.003-0.096,0-0.145,0.003c-0.167,0.006-0.335,0.012-0.5,0.022c-0.011,0-0.023,0-0.035,0.004
		c-0.19,0.012-0.378,0.022-0.566,0.04c-0.193,0.015-0.387,0.032-0.577,0.055c-0.156,0.015-0.315,0.032-0.471,0.055
		c-0.127,0.015-0.254,0.032-0.381,0.052c-0.127,0.018-0.254,0.038-0.381,0.059c-0.147,0.025-0.294,0.049-0.439,0.078
		c-0.133,0.023-0.266,0.049-0.398,0.078c-0.179,0.034-0.355,0.074-0.529,0.115c-0.176,0.04-0.346,0.083-0.517,0.129
		c-0.139,0.035-0.275,0.076-0.411,0.113c-0.04,0.012-0.081,0.023-0.124,0.037c-0.15,0.043-0.297,0.09-0.442,0.139
		c-0.003,0-0.005,0.004-0.009,0.004c-0.101,0.034-0.202,0.066-0.3,0.104c-0.26,0.09-0.514,0.188-0.759,0.292
		c-0.122,0.046-0.24,0.098-0.355,0.152c-0.011,0.003-0.023,0.009-0.037,0.018c-0.127,0.055-0.254,0.116-0.378,0.179
		c-0.066,0.032-0.133,0.064-0.196,0.102c-0.13,0.063-0.257,0.133-0.379,0.205c-0.061,0.035-0.124,0.068-0.182,0.107
		c-0.586,0.349-1.089,0.732-1.493,1.146c-0.035,0.031-0.067,0.066-0.096,0.098c-0.139,0.145-0.263,0.295-0.373,0.445
		c-0.035,0.043-0.066,0.089-0.095,0.133c-0.246,0.357-0.422,0.73-0.52,1.114c-0.014,0.05-0.026,0.099-0.035,0.147
		c-0.04,0.193-0.061,0.39-0.061,0.589v-5.048c0-5.155,4.182-9.337,9.337-9.337h6.946c0.063,0,0.124-0.009,0.188-0.009
		c0.872,0.099,1.779,0.153,2.715,0.153c6.339,0,11.521-2.414,11.91-5.461C32.447,18.347,32.455,18.627,32.455,18.904"/>
	<path fill="#FFFFFF" d="M32.429,17.684c-0.39,3.047-5.571,5.461-11.91,5.461c-0.936,0-1.843-0.055-2.715-0.153
		c0.575-0.025,1.104-0.15,1.577-0.387c0.526-0.26,0.965-0.601,1.32-1.017c0.353-0.418,0.624-0.898,0.814-1.441
		c0.19-0.543,0.286-1.106,0.286-1.687c0-0.543-0.095-1.085-0.286-1.628c-0.191-0.546-0.468-1.028-0.829-1.456
		c-0.364-0.425-0.803-0.774-1.317-1.046c-0.517-0.271-1.101-0.407-1.753-0.407H2.544c-0.667,0-1.21-0.543-1.21-1.21V6.556
		c0-0.378,0.101-0.681,0.3-0.91c0.199-0.225,0.497-0.341,0.898-0.341h17.366c1.251,0,2.429,0.173,3.532,0.517
		c1.106,0.344,2.12,0.82,3.044,1.427c0.924,0.609,1.759,1.331,2.501,2.175c0.742,0.843,1.375,1.753,1.889,2.732
		c0.303,0.572,0.558,1.161,0.774,1.768c0.156,0.43,0.297,0.869,0.41,1.317c0.087,0.341,0.153,0.685,0.211,1.028
		C32.34,16.736,32.4,17.21,32.429,17.684"/>
	<path fill="#FFFFFF" d="M13.054,31.949c-0.664,0.006-1.202,0.546-1.202,1.21v11.728c0,0.781-0.416,1.17-1.248,1.17H2.532
		c-0.363,0-0.652-0.094-0.872-0.285c-0.217-0.191-0.326-0.485-0.326-0.885v-7.112c0-0.199,0.02-0.396,0.061-0.589
		c0.009-0.049,0.021-0.098,0.035-0.147c0.098-0.384,0.274-0.757,0.52-1.114c0.029-0.044,0.061-0.09,0.096-0.133
		c0.11-0.15,0.234-0.301,0.373-0.445c0.029-0.031,0.061-0.066,0.095-0.098c0.404-0.414,0.907-0.798,1.493-1.146
		c0.061-0.039,0.122-0.072,0.182-0.107c0.124-0.069,0.248-0.139,0.378-0.205c0.064-0.037,0.13-0.069,0.197-0.102
		c0.124-0.061,0.248-0.121,0.378-0.179c0.015-0.009,0.026-0.015,0.038-0.018c0.116-0.052,0.234-0.104,0.355-0.152
		c0.246-0.104,0.5-0.202,0.76-0.292c0.098-0.038,0.199-0.068,0.3-0.104c0.003,0,0.005-0.004,0.009-0.004
		c0.144-0.049,0.292-0.096,0.442-0.139c0.043-0.014,0.083-0.025,0.124-0.037c0.133-0.037,0.271-0.075,0.41-0.113
		c0.17-0.046,0.341-0.088,0.517-0.129c0.173-0.041,0.349-0.081,0.528-0.115c0.133-0.029,0.266-0.055,0.399-0.079
		c0.145-0.028,0.292-0.052,0.439-0.077c0.127-0.021,0.254-0.041,0.381-0.059c0.127-0.02,0.254-0.037,0.381-0.051
		c0.156-0.023,0.315-0.041,0.471-0.056c0.191-0.022,0.384-0.04,0.578-0.055c0.188-0.018,0.375-0.028,0.566-0.04
		c0.011-0.004,0.023-0.004,0.035-0.004c0.165-0.008,0.332-0.017,0.5-0.022c0.049-0.003,0.095-0.006,0.144-0.003
		C12.695,31.955,12.875,31.952,13.054,31.949"/>
	<path fill="#FFFFFF" d="M41.471,7.557c0-0.523,0.131-0.964,0.392-1.324c0.262-0.359,0.711-0.539,1.348-0.539h6.004
		c0.164,0,0.334,0.045,0.515,0.134c0.18,0.09,0.347,0.217,0.502,0.38c0.155,0.164,0.285,0.36,0.392,0.588
		c0.105,0.229,0.159,0.482,0.159,0.76V44.17c0,0.621-0.176,1.091-0.527,1.41c-0.352,0.318-0.805,0.477-1.361,0.477h-5.685
		c-0.637,0-1.086-0.158-1.348-0.477c-0.261-0.319-0.392-0.789-0.392-1.41V7.557z"/>
	<path fill="#FFFFFF" d="M88.696,44.244c0,0.277-0.049,0.543-0.147,0.796c-0.098,0.253-0.262,0.454-0.49,0.601
		c-0.181,0.18-0.393,0.295-0.638,0.344c-0.245,0.049-0.457,0.072-0.637,0.072h-4.828c-0.343,0-0.621-0.045-0.833-0.134
		c-0.213-0.09-0.384-0.217-0.515-0.38c-0.131-0.163-0.242-0.363-0.332-0.602c-0.089-0.235-0.184-0.493-0.281-0.771l-0.319-1.102
		c-0.44,0.44-0.943,0.873-1.507,1.298s-1.185,0.806-1.862,1.14c-0.678,0.335-1.405,0.604-2.181,0.809
		c-0.776,0.205-1.581,0.307-2.414,0.307c-1.487,0-2.913-0.188-4.277-0.564c-1.364-0.375-2.639-0.91-3.823-1.604
		c-1.185-0.695-2.259-1.527-3.223-2.501c-0.964-0.972-1.793-2.054-2.488-3.247c-0.695-1.192-1.229-2.479-1.605-3.859
		c-0.375-1.381-0.563-2.822-0.563-4.326c0-2.27,0.417-4.382,1.25-6.335c0.833-1.952,1.969-3.651,3.407-5.097
		c1.438-1.446,3.129-2.582,5.073-3.406c1.944-0.825,4.027-1.238,6.249-1.238c1.013,0,1.957,0.114,2.831,0.343
		c0.874,0.229,1.674,0.539,2.401,0.931c0.727,0.392,1.384,0.861,1.973,1.409c0.588,0.547,1.103,1.14,1.543,1.777l0.711-2.23
		c0.163-0.408,0.298-0.739,0.404-0.992c0.106-0.253,0.221-0.441,0.343-0.564c0.123-0.122,0.273-0.204,0.453-0.245
		c0.18-0.04,0.433-0.061,0.76-0.061h3.651c0.18,0,0.392,0.024,0.637,0.074c0.246,0.048,0.458,0.163,0.638,0.343
		c0.228,0.18,0.392,0.384,0.49,0.613c0.098,0.229,0.147,0.49,0.147,0.784V44.244z M64.557,30.52c0,1.078,0.167,2.088,0.502,3.027
		s0.813,1.752,1.434,2.438c0.62,0.687,1.368,1.229,2.242,1.63s1.842,0.6,2.904,0.6c1.094,0,2.111-0.199,3.051-0.6
		c0.939-0.4,1.756-0.943,2.451-1.63c0.694-0.687,1.237-1.499,1.63-2.438c0.392-0.939,0.588-1.949,0.588-3.027
		c0-1.045-0.196-2.043-0.588-2.989c-0.393-0.948-0.936-1.78-1.63-2.5c-0.695-0.719-1.512-1.287-2.451-1.703
		c-0.94-0.417-1.957-0.625-3.051-0.625c-1.063,0-2.03,0.208-2.904,0.625c-0.874,0.417-1.622,0.984-2.242,1.703
		c-0.621,0.72-1.099,1.552-1.434,2.5C64.724,28.477,64.557,29.475,64.557,30.52"/>
	<path fill="#FFFFFF" d="M99.233,36.377c0.441,0.441,0.918,0.813,1.434,1.115c0.514,0.303,1.008,0.547,1.482,0.734
		c0.474,0.189,0.891,0.324,1.25,0.405s0.604,0.122,0.735,0.122c0.31,0,0.706-0.012,1.188-0.036s0.944-0.099,1.385-0.221
		c0.441-0.122,0.821-0.322,1.139-0.601c0.319-0.277,0.479-0.67,0.479-1.176c0-0.457-0.09-0.822-0.27-1.092
		c-0.18-0.269-0.441-0.498-0.784-0.686s-0.764-0.355-1.262-0.502c-0.499-0.146-1.058-0.318-1.679-0.516
		c-1.96-0.521-3.578-1.151-4.853-1.887c-1.274-0.734-2.283-1.556-3.026-2.463c-0.744-0.906-1.262-1.883-1.556-2.929
		c-0.294-1.045-0.441-2.148-0.441-3.308c0-1.356,0.27-2.589,0.809-3.701c0.539-1.111,1.307-2.062,2.304-2.855
		c0.996-0.792,2.189-1.405,3.578-1.838c1.388-0.433,2.932-0.65,4.631-0.65c1.029,0,1.993,0.086,2.892,0.258
		c0.898,0.171,1.756,0.441,2.573,0.809c0.816,0.368,1.613,0.841,2.389,1.421s1.548,1.271,2.316,2.071
		c0.277,0.327,0.42,0.634,0.429,0.919c0.009,0.286-0.176,0.592-0.552,0.919c-0.636,0.523-1.246,1.038-1.825,1.544
		c-0.58,0.507-1.181,1.07-1.801,1.691c-0.196,0.163-0.393,0.266-0.588,0.306c-0.196,0.041-0.384,0.037-0.563-0.012
		c-0.181-0.049-0.352-0.131-0.515-0.245c-0.164-0.114-0.311-0.254-0.441-0.417c-0.572-0.638-1.225-1.066-1.96-1.287
		c-0.736-0.221-1.421-0.331-2.059-0.331c-0.801,0-1.438,0.139-1.912,0.417c-0.474,0.278-0.695,0.703-0.662,1.274
		c0.032,0.425,0.191,0.756,0.478,0.993c0.286,0.237,0.638,0.429,1.054,0.576c0.417,0.147,0.858,0.266,1.323,0.355
		c0.466,0.089,0.895,0.192,1.287,0.307c1.471,0.474,2.819,0.988,4.044,1.543c1.225,0.557,2.287,1.237,3.186,2.046
		c0.898,0.81,1.597,1.777,2.096,2.904c0.498,1.128,0.747,2.5,0.747,4.117c0,1.618-0.323,3.063-0.968,4.338
		c-0.646,1.275-1.532,2.346-2.659,3.211c-1.128,0.865-2.463,1.527-4.007,1.984c-1.543,0.458-3.206,0.687-4.986,0.687
		c-1.014,0-2.043-0.09-3.088-0.27c-1.046-0.18-2.058-0.47-3.039-0.87s-1.912-0.914-2.794-1.544
		c-0.882-0.629-1.667-1.393-2.353-2.292c-0.18-0.228-0.315-0.469-0.404-0.723c-0.09-0.253-0.131-0.502-0.123-0.747
		c0.008-0.245,0.057-0.47,0.146-0.673c0.09-0.205,0.233-0.381,0.429-0.527l3.162-3.162c0.392-0.326,0.739-0.441,1.042-0.343
		C98.372,35.643,98.759,35.92,99.233,36.377"/>
	<path fill="#FFFFFF" d="M123.594,15.372c0.211-0.179,0.436-0.294,0.672-0.343c0.238-0.049,0.463-0.074,0.676-0.074h3.699
		c0.295,0,0.549,0.054,0.76,0.159c0.213,0.107,0.393,0.25,0.539,0.429c0.148,0.179,0.266,0.383,0.355,0.611
		c0.09,0.228,0.176,0.464,0.258,0.708l0.514,2.151c0.246-0.505,0.598-1.027,1.055-1.564c0.457-0.538,1.037-1.026,1.74-1.466
		c0.701-0.439,1.539-0.802,2.512-1.088c0.973-0.284,2.111-0.427,3.418-0.427c1.029,0,1.965,0.101,2.807,0.305
		c0.842,0.203,1.609,0.505,2.303,0.904c0.695,0.399,1.328,0.888,1.9,1.466c0.572,0.579,1.111,1.242,1.617,1.992
		c0.311-0.505,0.771-1.034,1.385-1.588s1.344-1.059,2.193-1.516c0.85-0.456,1.797-0.831,2.842-1.124
		c1.047-0.293,2.158-0.44,3.334-0.44c1.863,0,3.488,0.358,4.877,1.075c1.389,0.717,2.545,1.694,3.469,2.933
		c0.922,1.239,1.611,2.685,2.07,4.341c0.457,1.656,0.686,3.423,0.686,5.303V44.17c0,0.621-0.135,1.092-0.404,1.41
		s-0.699,0.477-1.287,0.477h-5.66c-0.703,0-1.186-0.117-1.447-0.355c-0.262-0.235-0.391-0.697-0.391-1.384V28.119
		c0-0.703-0.111-1.356-0.332-1.961c-0.219-0.605-0.525-1.132-0.918-1.582c-0.393-0.449-0.871-0.8-1.434-1.054
		c-0.564-0.252-1.189-0.379-1.875-0.379c-0.621,0-1.209,0.122-1.766,0.368c-0.555,0.245-1.045,0.583-1.469,1.017
		c-0.426,0.433-0.766,0.956-1.018,1.568c-0.254,0.613-0.381,1.287-0.381,2.023V44.17c0,0.621-0.133,1.092-0.404,1.41
		c-0.27,0.318-0.697,0.477-1.285,0.477h-0.516h-0.195h-4.951c-0.703,0-1.186-0.117-1.445-0.355
		c-0.262-0.235-0.393-0.697-0.393-1.384V28.119c0-0.703-0.102-1.356-0.307-1.961c-0.205-0.605-0.498-1.132-0.881-1.582
		c-0.385-0.449-0.852-0.8-1.398-1.054c-0.547-0.252-1.164-0.379-1.85-0.379c-0.588,0-1.164,0.119-1.727,0.354
		c-0.564,0.238-1.07,0.572-1.521,1.005c-0.449,0.433-0.824,0.952-1.127,1.556c-0.303,0.605-0.477,1.274-0.525,2.011v16.174
		c0,0.277-0.055,0.555-0.16,0.834c-0.107,0.277-0.266,0.488-0.479,0.637c-0.213,0.131-0.412,0.221-0.6,0.27
		c-0.189,0.049-0.404,0.072-0.648,0.072h-5.539c-0.703,0-1.211-0.171-1.52-0.514c-0.311-0.344-0.467-0.801-0.467-1.373V16.765
		c0-0.31,0.071-0.595,0.209-0.855s0.33-0.464,0.576-0.611L123.594,15.372z"/>
	<path fill="#FFFFFF" d="M207.211,44.244c0,0.277-0.051,0.543-0.148,0.796s-0.262,0.454-0.49,0.601
		c-0.18,0.18-0.393,0.295-0.637,0.344c-0.246,0.049-0.457,0.072-0.639,0.072h-4.826c-0.344,0-0.621-0.045-0.834-0.134
		c-0.213-0.09-0.383-0.217-0.514-0.38s-0.242-0.363-0.332-0.602c-0.088-0.235-0.184-0.493-0.281-0.771l-0.318-1.102
		c-0.441,0.44-0.943,0.873-1.508,1.298c-0.563,0.425-1.184,0.806-1.861,1.14c-0.678,0.335-1.406,0.604-2.182,0.809
		c-0.777,0.205-1.58,0.307-2.414,0.307c-1.486,0-2.912-0.188-4.277-0.564c-1.363-0.375-2.637-0.91-3.822-1.604
		c-1.184-0.695-2.26-1.527-3.223-2.501c-0.965-0.972-1.793-2.054-2.488-3.247c-0.693-1.192-1.229-2.479-1.605-3.859
		c-0.375-1.381-0.563-2.822-0.563-4.326c0-2.27,0.416-4.382,1.25-6.335c0.832-1.952,1.969-3.651,3.406-5.097
		s3.129-2.582,5.072-3.406c1.945-0.825,4.027-1.238,6.25-1.238c1.014,0,1.957,0.114,2.83,0.343c0.873,0.229,1.676,0.539,2.402,0.931
		c0.727,0.392,1.385,0.861,1.973,1.409s1.102,1.14,1.545,1.777l0.709-2.23c0.164-0.408,0.299-0.739,0.404-0.992
		c0.107-0.253,0.221-0.441,0.344-0.564c0.123-0.122,0.273-0.204,0.453-0.245c0.18-0.04,0.434-0.061,0.76-0.061h3.65
		c0.182,0,0.393,0.024,0.639,0.074c0.244,0.048,0.457,0.163,0.637,0.343c0.229,0.18,0.393,0.384,0.49,0.613s0.148,0.49,0.148,0.784
		V44.244z M183.07,30.52c0,1.078,0.168,2.088,0.502,3.027c0.336,0.939,0.813,1.752,1.434,2.438s1.369,1.229,2.244,1.63
		c0.873,0.4,1.84,0.6,2.902,0.6c1.094,0,2.111-0.199,3.053-0.6c0.939-0.4,1.754-0.943,2.449-1.63s1.238-1.499,1.631-2.438
		c0.391-0.939,0.588-1.949,0.588-3.027c0-1.045-0.197-2.043-0.588-2.989c-0.393-0.948-0.936-1.78-1.631-2.5
		c-0.695-0.719-1.51-1.287-2.449-1.703c-0.941-0.417-1.959-0.625-3.053-0.625c-1.063,0-2.029,0.208-2.902,0.625
		c-0.875,0.417-1.623,0.984-2.244,1.703c-0.621,0.72-1.098,1.552-1.434,2.5C183.238,28.477,183.07,29.475,183.07,30.52"/>
	<path fill="#FFFFFF" d="M213.092,7.557c0-0.278,0.008-0.531,0.023-0.76c0.016-0.228,0.086-0.424,0.209-0.588
		c0.123-0.163,0.314-0.29,0.576-0.38c0.262-0.089,0.629-0.134,1.102-0.134h5.859c0.309,0,0.566,0.053,0.771,0.159
		c0.203,0.107,0.367,0.241,0.49,0.404c0.121,0.164,0.203,0.34,0.244,0.527s0.061,0.364,0.061,0.526v18.136l8.824-9.803
		c0.424-0.474,0.93-0.711,1.518-0.711h7.525c0.896,0,1.348,0.352,1.348,1.054c0,0.18-0.029,0.327-0.086,0.441
		c-0.059,0.114-0.176,0.277-0.355,0.49l-10.072,10.636l12.67,16.273h-0.049c0.211,0.212,0.363,0.428,0.453,0.648
		s0.135,0.421,0.135,0.602c0,0.375-0.104,0.633-0.307,0.771s-0.51,0.207-0.92,0.207h-8.283c-0.277,0-0.539-0.105-0.783-0.318
		c-0.246-0.211-0.516-0.53-0.809-0.955l-8.014-11.348l-2.721,2.819v7.915c0,0.131-0.02,0.303-0.061,0.516
		c-0.041,0.212-0.123,0.42-0.246,0.624c-0.123,0.205-0.291,0.38-0.502,0.528c-0.213,0.146-0.49,0.219-0.832,0.219h-6.152
		c-0.293,0-0.547-0.077-0.76-0.232s-0.381-0.33-0.502-0.526c-0.123-0.196-0.213-0.38-0.27-0.552
		c-0.059-0.172-0.086-0.273-0.086-0.307V7.557z"/>
</g>
<g>
	<path fill="#FFFFFF" d="M85.324,68.361c-0.269,0-0.521-0.107-0.759-0.324c-0.237-0.217-0.434-0.486-0.588-0.807
		c-0.155-0.318-0.263-0.653-0.325-1.005c-0.062-0.351-0.062-0.671,0-0.959l2.693-10.835c0.062-0.268,0.217-0.583,0.465-0.943
		c0.247-0.361,0.531-0.702,0.851-1.021c0.32-0.32,0.65-0.59,0.991-0.805c0.34-0.217,0.645-0.325,0.914-0.325h16.313
		c0.269,0,0.522,0.108,0.759,0.325c0.237,0.215,0.434,0.484,0.588,0.805c0.154,0.319,0.262,0.66,0.325,1.021
		c0.062,0.36,0.062,0.676,0,0.943l-0.836,3.436h-6.5l0.278-1.176c0.042-0.123,0.026-0.248-0.046-0.371
		c-0.072-0.124-0.159-0.186-0.262-0.186h-7.337c-0.103,0-0.211,0.066-0.325,0.2c-0.114,0.135-0.19,0.253-0.232,0.356l-1.578,6.315
		c-0.042,0.124-0.031,0.247,0.03,0.37c0.062,0.125,0.155,0.188,0.279,0.188h7.336c0.103,0,0.211-0.063,0.325-0.188
		c0.114-0.123,0.192-0.246,0.233-0.37l0.309-1.177h6.5l-0.866,3.437c-0.063,0.288-0.217,0.608-0.465,0.959
		c-0.247,0.352-0.532,0.687-0.851,1.005c-0.32,0.32-0.65,0.59-0.99,0.807c-0.342,0.217-0.646,0.324-0.914,0.324H85.324z"/>
	<path fill="#FFFFFF" d="M124.525,68.361h-16.313c-0.269,0-0.522-0.107-0.759-0.324s-0.434-0.486-0.588-0.807
		c-0.155-0.318-0.263-0.653-0.325-1.005c-0.062-0.351-0.062-0.671,0-0.959l2.693-10.835c0.062-0.268,0.217-0.583,0.465-0.943
		c0.247-0.361,0.531-0.702,0.851-1.021c0.32-0.32,0.65-0.59,0.991-0.805c0.34-0.217,0.645-0.325,0.914-0.325h16.312
		c0.27,0,0.522,0.108,0.76,0.325c0.236,0.215,0.434,0.484,0.588,0.805c0.154,0.319,0.262,0.66,0.325,1.021
		c0.062,0.36,0.062,0.676,0,0.943l-2.692,10.835c-0.063,0.288-0.217,0.608-0.466,0.959c-0.247,0.352-0.532,0.687-0.851,1.005
		c-0.32,0.32-0.65,0.59-0.99,0.807C125.098,68.254,124.794,68.361,124.525,68.361z M121.802,63.007l1.578-6.315
		c0.042-0.123,0.026-0.248-0.046-0.371c-0.072-0.124-0.159-0.186-0.263-0.186h-7.337c-0.103,0-0.211,0.066-0.325,0.2
		c-0.113,0.135-0.19,0.253-0.231,0.356l-1.578,6.315c-0.042,0.124-0.031,0.247,0.03,0.37c0.062,0.125,0.155,0.188,0.278,0.188h7.336
		c0.104,0,0.212-0.063,0.325-0.188C121.683,63.254,121.761,63.131,121.802,63.007z"/>
	<path fill="#FFFFFF" d="M145.494,59.725l2.075-8.388h6.5l-4.241,17.024h-5.943l-6.623-8.388l-2.105,8.388h-6.501l4.241-17.024
		h5.912L145.494,59.725z"/>
	<path fill="#FFFFFF" d="M168.352,59.725l2.074-8.388h6.501l-4.241,17.024h-5.943l-6.623-8.388l-2.106,8.388h-6.5l4.241-17.024
		h5.912L168.352,59.725z"/>
	<path fill="#FFFFFF" d="M174.369,68.361l4.241-17.024h19.72l-1.208,4.798h-13.155l-0.311,1.33h9.936l-1.205,4.768h-9.938
		l-0.311,1.332h13.156l-1.206,4.797H174.369z"/>
	<path fill="#FFFFFF" d="M198.217,68.361c-0.268,0-0.521-0.107-0.758-0.324c-0.237-0.217-0.434-0.486-0.589-0.807
		c-0.155-0.318-0.263-0.653-0.325-1.005c-0.062-0.351-0.062-0.671,0-0.959l2.693-10.835c0.062-0.268,0.217-0.583,0.465-0.943
		c0.247-0.361,0.531-0.702,0.851-1.021c0.32-0.32,0.65-0.59,0.991-0.805c0.34-0.217,0.645-0.325,0.913-0.325h16.313
		c0.269,0,0.522,0.108,0.759,0.325c0.236,0.215,0.434,0.484,0.589,0.805c0.153,0.319,0.262,0.66,0.325,1.021
		c0.062,0.36,0.062,0.676,0,0.943l-0.837,3.436h-6.501l0.279-1.176c0.041-0.123,0.025-0.248-0.047-0.371
		c-0.072-0.124-0.158-0.186-0.262-0.186h-7.338c-0.104,0-0.211,0.066-0.324,0.2c-0.114,0.135-0.191,0.253-0.232,0.356l-1.578,6.315
		c-0.041,0.124-0.031,0.247,0.03,0.37c0.062,0.125,0.155,0.188,0.278,0.188h7.336c0.104,0,0.212-0.063,0.325-0.188
		c0.114-0.123,0.192-0.246,0.233-0.37l0.309-1.177h6.5l-0.865,3.437c-0.063,0.288-0.217,0.608-0.465,0.959
		c-0.247,0.352-0.532,0.687-0.852,1.005c-0.319,0.32-0.65,0.59-0.99,0.807c-0.342,0.217-0.645,0.324-0.914,0.324H198.217z"/>
	<path fill="#FFFFFF" d="M226.027,68.361l3.033-12.227h-7.367l1.207-4.798h21.235l-1.208,4.798h-7.367l-3.033,12.227H226.027z"/>
</g>
</svg>
