<?xml version="1.0" encoding="utf-8"?>
<!-- Generator: Adobe Illustrator 16.0.0, SVG Export Plug-In . SVG Version: 6.00 Build 0)  -->
<!DOCTYPE svg PUBLIC "-//W3C//DTD SVG 1.1//EN" "http://www.w3.org/Graphics/SVG/1.1/DTD/svg11.dtd">
<svg version="1.1" id="Layer_1" xmlns="http://www.w3.org/2000/svg" xmlns:xlink="http://www.w3.org/1999/xlink" x="0px" y="0px"
	 width="115px" height="21px" viewBox="0 0 115 21" enable-background="new 0 0 115 21" xml:space="preserve">
<g>
	<defs>
		<path id="SVGID_1_" d="M12.486,8.849c-0.433,0-0.853-0.025-1.258-0.072c-0.029,0-0.058,0.005-0.087,0.005H7.92
			c-2.389,0-4.329,1.938-4.329,4.329v2.342c0-0.093,0.008-0.186,0.028-0.274c0.003-0.023,0.009-0.046,0.016-0.068
			c0.045-0.179,0.127-0.35,0.241-0.518c0.014-0.019,0.028-0.042,0.045-0.061c0.051-0.07,0.106-0.141,0.171-0.207
			c0.014-0.016,0.028-0.029,0.043-0.045c0.189-0.192,0.421-0.37,0.694-0.531c0.026-0.018,0.056-0.033,0.084-0.051
			c0.056-0.033,0.115-0.064,0.176-0.095c0.028-0.017,0.06-0.031,0.089-0.047c0.059-0.029,0.117-0.058,0.176-0.082
			c0.007-0.005,0.012-0.007,0.018-0.009c0.052-0.024,0.108-0.049,0.164-0.071c0.114-0.048,0.232-0.093,0.353-0.135
			c0.045-0.018,0.093-0.031,0.138-0.049c0.002,0,0.003,0,0.005,0c0.066-0.022,0.134-0.046,0.205-0.064
			c0.019-0.008,0.038-0.013,0.058-0.018c0.063-0.018,0.125-0.037,0.19-0.053c0.079-0.021,0.157-0.042,0.239-0.06
			c0.081-0.02,0.163-0.038,0.245-0.054c0.061-0.015,0.123-0.024,0.184-0.037c0.068-0.014,0.136-0.024,0.205-0.035
			c0.059-0.01,0.117-0.019,0.176-0.027c0.06-0.009,0.119-0.018,0.178-0.024c0.072-0.011,0.145-0.02,0.217-0.024
			c0.089-0.011,0.178-0.02,0.269-0.026c0.086-0.007,0.173-0.013,0.262-0.018c0.005-0.002,0.01-0.002,0.016-0.002
			c0.077-0.005,0.154-0.009,0.232-0.011c0.023-0.001,0.044-0.003,0.066-0.001c0.082-0.006,0.165-0.006,0.25-0.006h0.005
			c0.03-0.002,0.063-0.002,0.094-0.002c0.051,0,0.1,0.002,0.15,0.002h3.011c0.856-0.009,1.639-0.186,2.344-0.536
			c0.706-0.348,1.311-0.803,1.813-1.367c0.505-0.563,0.895-1.206,1.167-1.929c0.018-0.045,0.032-0.093,0.049-0.136
			c0.24-0.68,0.362-1.373,0.362-2.081c0-0.129-0.005-0.259-0.012-0.385C17.829,7.729,15.426,8.849,12.486,8.849"/>
	</defs>
	<clipPath id="SVGID_2_">
		<use xlink:href="#SVGID_1_"  overflow="visible"/>
	</clipPath>
	
		<linearGradient id="SVGID_3_" gradientUnits="userSpaceOnUse" x1="-358.791" y1="308.0488" x2="-358.6104" y2="308.0488" gradientTransform="matrix(79.9961 0 0 -79.9961 28705.5 24653.625)">
		<stop  offset="0" style="stop-color:#808184"/>
		<stop  offset="0.0513" style="stop-color:#808184"/>
		<stop  offset="0.08" style="stop-color:#848588"/>
		<stop  offset="0.1111" style="stop-color:#929295"/>
		<stop  offset="0.1435" style="stop-color:#A7A8AA"/>
		<stop  offset="0.1766" style="stop-color:#C6C6C7"/>
		<stop  offset="0.2101" style="stop-color:#ECEDED"/>
		<stop  offset="0.2241" style="stop-color:#FFFFFF"/>
		<stop  offset="0.227" style="stop-color:#FDFDFD"/>
		<stop  offset="0.2895" style="stop-color:#D0D1D2"/>
		<stop  offset="0.3497" style="stop-color:#ADAEB0"/>
		<stop  offset="0.4062" style="stop-color:#949598"/>
		<stop  offset="0.4576" style="stop-color:#858689"/>
		<stop  offset="0.4994" style="stop-color:#808184"/>
		<stop  offset="0.6297" style="stop-color:#7C7D80"/>
		<stop  offset="0.7669" style="stop-color:#6F7073"/>
		<stop  offset="0.8966" style="stop-color:#5C5D60"/>
		<stop  offset="1" style="stop-color:#5C5D60"/>
	</linearGradient>
	<rect x="3.592" y="6.317" clip-path="url(#SVGID_2_)" fill="url(#SVGID_3_)" width="14.431" height="9.136"/>
</g>
<linearGradient id="SVGID_4_" gradientUnits="userSpaceOnUse" x1="7.6567" y1="4.7129" x2="23.8287" y2="4.7129">
	<stop  offset="0" style="stop-color:#808184"/>
	<stop  offset="0.0513" style="stop-color:#808184"/>
	<stop  offset="0.0927" style="stop-color:#848588"/>
	<stop  offset="0.1321" style="stop-color:#8F9093"/>
	<stop  offset="0.1707" style="stop-color:#A3A3A5"/>
	<stop  offset="0.2089" style="stop-color:#BEBEC0"/>
	<stop  offset="0.2464" style="stop-color:#E0E0E1"/>
	<stop  offset="0.2745" style="stop-color:#FFFFFF"/>
	<stop  offset="0.2964" style="stop-color:#D6D7D7"/>
	<stop  offset="0.3212" style="stop-color:#B0B0B1"/>
	<stop  offset="0.347" style="stop-color:#909192"/>
	<stop  offset="0.3737" style="stop-color:#77787A"/>
	<stop  offset="0.4015" style="stop-color:#666769"/>
	<stop  offset="0.4313" style="stop-color:#5B5C5E"/>
	<stop  offset="0.4665" style="stop-color:#58595B"/>
	<stop  offset="1" style="stop-color:#58595B"/>
</linearGradient>
<path fill="url(#SVGID_4_)" d="M18.009,6.317c-0.18,1.412-2.583,2.532-5.521,2.532c-0.435,0-0.856-0.025-1.26-0.07
	c0.268-0.014,0.512-0.071,0.73-0.18c0.243-0.121,0.448-0.278,0.614-0.472c0.162-0.194,0.288-0.416,0.377-0.669
	c0.087-0.25,0.131-0.512,0.131-0.781c0-0.252-0.043-0.503-0.131-0.756c-0.089-0.252-0.217-0.476-0.385-0.674
	c-0.169-0.197-0.372-0.359-0.611-0.485c-0.24-0.126-0.509-0.187-0.811-0.187H4.151c-0.308,0-0.561-0.253-0.561-0.564V1.157
	c0-0.176,0.047-0.315,0.142-0.422C3.824,0.63,3.96,0.576,4.147,0.576h8.051c0.582,0,1.129,0.081,1.637,0.24
	c0.516,0.161,0.984,0.38,1.414,0.662c0.428,0.284,0.814,0.618,1.157,1.008c0.346,0.392,0.64,0.813,0.877,1.266
	c0.142,0.266,0.259,0.54,0.358,0.822c0.073,0.198,0.138,0.401,0.19,0.609c0.042,0.159,0.073,0.317,0.1,0.476
	C17.968,5.878,17.997,6.096,18.009,6.317z"/>
<path fill="none" d="M18.009,6.317c-0.18,1.412-2.583,2.532-5.521,2.532c-0.435,0-0.856-0.025-1.26-0.07
	c0.268-0.014,0.512-0.071,0.73-0.18c0.243-0.121,0.448-0.278,0.614-0.472c0.162-0.194,0.288-0.416,0.377-0.669
	c0.087-0.25,0.131-0.512,0.131-0.781c0-0.252-0.043-0.503-0.131-0.756c-0.089-0.252-0.217-0.476-0.385-0.674
	c-0.169-0.197-0.372-0.359-0.611-0.485c-0.24-0.126-0.509-0.187-0.811-0.187H4.151c-0.308,0-0.561-0.253-0.561-0.564V1.157
	c0-0.176,0.047-0.315,0.142-0.422C3.824,0.63,3.96,0.576,4.147,0.576h8.051c0.582,0,1.129,0.081,1.637,0.24
	c0.516,0.161,0.984,0.38,1.414,0.662c0.428,0.284,0.814,0.618,1.157,1.008c0.346,0.392,0.64,0.813,0.877,1.266
	c0.142,0.266,0.259,0.54,0.358,0.822c0.073,0.198,0.138,0.401,0.19,0.609c0.042,0.159,0.073,0.317,0.1,0.476
	C17.968,5.878,17.997,6.096,18.009,6.317z"/>
<g>
	<defs>
		<path id="SVGID_5_" d="M8.776,12.757c-0.022-0.002-0.043,0-0.066,0.001c-0.079,0.002-0.155,0.007-0.232,0.011
			c-0.005,0-0.01,0-0.016,0.002c-0.089,0.005-0.176,0.011-0.262,0.018c-0.091,0.007-0.18,0.016-0.269,0.026
			c-0.072,0.005-0.145,0.014-0.217,0.024c-0.059,0.007-0.119,0.016-0.178,0.024c-0.059,0.009-0.117,0.018-0.176,0.027
			c-0.068,0.011-0.136,0.021-0.205,0.035c-0.061,0.013-0.123,0.022-0.184,0.037c-0.082,0.016-0.164,0.034-0.245,0.054
			c-0.082,0.018-0.161,0.039-0.239,0.06c-0.065,0.018-0.129,0.035-0.19,0.053c-0.02,0.005-0.039,0.01-0.058,0.018
			c-0.07,0.019-0.138,0.042-0.205,0.064c-0.002,0-0.003,0-0.005,0c-0.045,0.018-0.093,0.031-0.138,0.049
			c-0.121,0.042-0.239,0.087-0.353,0.135c-0.056,0.022-0.112,0.047-0.164,0.071c-0.005,0.002-0.01,0.004-0.018,0.009
			c-0.061,0.026-0.117,0.054-0.176,0.082c-0.03,0.016-0.061,0.03-0.089,0.047c-0.061,0.032-0.119,0.063-0.176,0.095
			c-0.028,0.018-0.056,0.033-0.084,0.051c-0.272,0.161-0.505,0.339-0.694,0.531c-0.016,0.016-0.03,0.029-0.043,0.045
			c-0.065,0.066-0.121,0.137-0.171,0.207c-0.018,0.019-0.031,0.042-0.045,0.061c-0.114,0.168-0.196,0.339-0.241,0.518
			c-0.007,0.022-0.012,0.045-0.016,0.068c-0.02,0.089-0.028,0.182-0.028,0.274v3.297c0,0.186,0.05,0.322,0.15,0.409
			c0.104,0.089,0.236,0.133,0.406,0.133h3.741c0.386,0,0.58-0.18,0.58-0.542v-5.438c0-0.307,0.245-0.555,0.549-0.562
			C8.937,12.753,8.857,12.753,8.776,12.757 M9.018,12.751c0.002,0,0.005,0,0.009,0C9.023,12.751,9.02,12.751,9.018,12.751"/>
	</defs>
	<clipPath id="SVGID_6_">
		<use xlink:href="#SVGID_5_"  overflow="visible"/>
	</clipPath>
	
		<linearGradient id="SVGID_7_" gradientUnits="userSpaceOnUse" x1="-362.3066" y1="316.1338" x2="-362.1262" y2="316.1338" gradientTransform="matrix(0.9216 30.1107 30.1107 -0.9216 -9178.8594 11214.3125)">
		<stop  offset="0" style="stop-color:#58595B"/>
		<stop  offset="0.144" style="stop-color:#6A6B6E"/>
		<stop  offset="0.3915" style="stop-color:#848689"/>
		<stop  offset="0.5369" style="stop-color:#8E9093"/>
		<stop  offset="0.8757" style="stop-color:#828487"/>
		<stop  offset="0.9327" style="stop-color:#808184"/>
		<stop  offset="1" style="stop-color:#808184"/>
	</linearGradient>
	<polygon clip-path="url(#SVGID_6_)" fill="url(#SVGID_7_)" points="9.02,12.585 9.226,19.285 3.597,19.458 3.391,12.757 	"/>
</g>
<g>
	<defs>
		<path id="SVGID_8_" d="M20.349,0.995c-0.295,0-0.503,0.083-0.625,0.25c-0.121,0.166-0.182,0.372-0.182,0.613v16.977
			c0,0.287,0.062,0.506,0.182,0.652c0.122,0.148,0.33,0.223,0.625,0.223h2.635c0.258,0,0.468-0.074,0.631-0.223
			c0.163-0.146,0.245-0.365,0.245-0.652V1.858c0-0.129-0.024-0.246-0.074-0.353c-0.05-0.106-0.11-0.197-0.182-0.272
			c-0.071-0.077-0.15-0.135-0.232-0.176c-0.083-0.042-0.164-0.062-0.239-0.062H20.349z"/>
	</defs>
	<clipPath id="SVGID_9_">
		<use xlink:href="#SVGID_8_"  overflow="visible"/>
	</clipPath>
	
		<linearGradient id="SVGID_10_" gradientUnits="userSpaceOnUse" x1="-354.9194" y1="307.9668" x2="-354.7388" y2="307.9668" gradientTransform="matrix(23.9379 0 0 -23.9379 8515.5625 7382.4219)">
		<stop  offset="0" style="stop-color:#808184"/>
		<stop  offset="0.0513" style="stop-color:#808184"/>
		<stop  offset="0.3538" style="stop-color:#7C7D80"/>
		<stop  offset="0.6419" style="stop-color:#717275"/>
		<stop  offset="0.9234" style="stop-color:#5E5F62"/>
		<stop  offset="1" style="stop-color:#58595B"/>
	</linearGradient>
	<rect x="19.541" y="0.995" clip-path="url(#SVGID_9_)" fill="url(#SVGID_10_)" width="4.318" height="18.715"/>
</g>
<g>
	<defs>
		<path id="SVGID_11_" d="M32.183,15.796c-0.405-0.186-0.751-0.438-1.04-0.756c-0.289-0.318-0.509-0.695-0.664-1.131
			c-0.156-0.436-0.234-0.902-0.234-1.404c0-0.484,0.079-0.946,0.234-1.386c0.155-0.439,0.375-0.825,0.664-1.159
			c0.288-0.333,0.634-0.598,1.04-0.79c0.405-0.194,0.854-0.29,1.346-0.29c0.508,0,0.98,0.096,1.416,0.29
			c0.435,0.192,0.814,0.457,1.138,0.79c0.321,0.334,0.573,0.72,0.755,1.159c0.182,0.439,0.272,0.901,0.272,1.386
			c0,0.502-0.091,0.969-0.272,1.404s-0.434,0.813-0.755,1.131c-0.323,0.318-0.703,0.57-1.138,0.756s-0.907,0.277-1.416,0.277
			C33.037,16.073,32.588,15.981,32.183,15.796 M30.666,5.625c-0.902,0.383-1.687,0.909-2.353,1.58
			c-0.667,0.669-1.193,1.458-1.58,2.363c-0.386,0.907-0.579,1.886-0.579,2.938c0,0.699,0.086,1.367,0.261,2.006
			c0.175,0.643,0.423,1.238,0.744,1.789c0.322,0.555,0.706,1.057,1.153,1.508c0.448,0.449,0.946,0.836,1.494,1.158
			c0.549,0.32,1.14,0.57,1.774,0.744c0.631,0.174,1.293,0.262,1.982,0.262c0.386,0,0.76-0.047,1.12-0.143
			c0.36-0.096,0.695-0.219,1.01-0.375c0.314-0.154,0.603-0.332,0.865-0.527c0.26-0.199,0.495-0.398,0.697-0.604l0.148,0.512
			c0.045,0.129,0.089,0.25,0.131,0.357c0.042,0.109,0.093,0.203,0.154,0.279c0.06,0.076,0.14,0.135,0.238,0.176
			c0.1,0.041,0.227,0.063,0.386,0.063h2.239c0.083,0,0.182-0.01,0.295-0.035c0.114-0.021,0.213-0.074,0.295-0.158
			c0.107-0.068,0.184-0.162,0.228-0.279c0.047-0.117,0.07-0.238,0.07-0.367V6.063c0-0.136-0.023-0.258-0.07-0.363
			c-0.044-0.106-0.121-0.201-0.228-0.285c-0.082-0.083-0.182-0.137-0.295-0.159c-0.113-0.023-0.211-0.033-0.295-0.033h-1.693
			c-0.152,0-0.27,0.009-0.352,0.028c-0.084,0.019-0.154,0.057-0.211,0.114c-0.056,0.057-0.11,0.144-0.159,0.261
			c-0.049,0.118-0.11,0.271-0.187,0.46l-0.329,1.034c-0.207-0.294-0.444-0.57-0.717-0.824c-0.272-0.253-0.578-0.471-0.914-0.653
			c-0.337-0.182-0.709-0.325-1.115-0.431c-0.403-0.107-0.842-0.159-1.312-0.159C32.532,5.052,31.567,5.242,30.666,5.625"/>
	</defs>
	<clipPath id="SVGID_12_">
		<use xlink:href="#SVGID_11_"  overflow="visible"/>
	</clipPath>
	
		<linearGradient id="SVGID_13_" gradientUnits="userSpaceOnUse" x1="-360.3535" y1="308.1055" x2="-360.1733" y2="308.1055" gradientTransform="matrix(84.7271 0 0 -84.7271 30557.875 26117.4375)">
		<stop  offset="0" style="stop-color:#808184"/>
		<stop  offset="0.0513" style="stop-color:#808184"/>
		<stop  offset="0.3538" style="stop-color:#7C7D80"/>
		<stop  offset="0.6419" style="stop-color:#717275"/>
		<stop  offset="0.9234" style="stop-color:#5E5F62"/>
		<stop  offset="1" style="stop-color:#58595B"/>
	</linearGradient>
	<rect x="26.155" y="5.052" clip-path="url(#SVGID_12_)" fill="url(#SVGID_13_)" width="15.284" height="14.92"/>
</g>
<g>
	<defs>
		<path id="SVGID_14_" d="M47.211,5.284c-0.645,0.201-1.197,0.485-1.66,0.852c-0.461,0.368-0.818,0.809-1.068,1.324
			c-0.25,0.515-0.375,1.088-0.375,1.716c0,0.538,0.068,1.05,0.206,1.535c0.136,0.485,0.375,0.938,0.722,1.357
			c0.344,0.422,0.813,0.803,1.401,1.143c0.593,0.342,1.342,0.633,2.251,0.875c0.289,0.092,0.547,0.172,0.779,0.238
			c0.229,0.068,0.425,0.146,0.584,0.232c0.161,0.088,0.281,0.195,0.363,0.318c0.084,0.127,0.126,0.295,0.126,0.508
			c0,0.234-0.074,0.416-0.222,0.545c-0.147,0.127-0.323,0.221-0.528,0.277c-0.204,0.059-0.419,0.092-0.641,0.102
			c-0.226,0.012-0.409,0.018-0.552,0.018c-0.06,0-0.175-0.018-0.341-0.057c-0.168-0.037-0.36-0.1-0.58-0.186
			c-0.219-0.088-0.449-0.201-0.687-0.344c-0.237-0.139-0.461-0.311-0.664-0.516c-0.22-0.213-0.4-0.34-0.542-0.387
			c-0.14-0.047-0.301,0.008-0.482,0.16l-1.464,1.467c-0.091,0.066-0.157,0.148-0.199,0.242s-0.064,0.199-0.068,0.313
			c-0.005,0.113,0.014,0.229,0.056,0.346s0.105,0.23,0.188,0.336c0.318,0.418,0.68,0.771,1.091,1.063
			c0.409,0.293,0.84,0.531,1.295,0.717c0.454,0.186,0.924,0.32,1.408,0.404c0.486,0.084,0.963,0.123,1.433,0.123
			c0.825,0,1.595-0.105,2.312-0.318c0.716-0.211,1.335-0.518,1.857-0.918c0.522-0.402,0.933-0.898,1.234-1.49
			c0.299-0.59,0.449-1.262,0.449-2.01c0-0.75-0.117-1.389-0.348-1.91c-0.231-0.523-0.554-0.973-0.972-1.348
			c-0.416-0.374-0.909-0.69-1.477-0.948c-0.568-0.258-1.193-0.496-1.875-0.716c-0.182-0.052-0.381-0.102-0.596-0.142
			c-0.217-0.042-0.421-0.098-0.615-0.166c-0.192-0.066-0.354-0.157-0.487-0.267c-0.133-0.108-0.207-0.262-0.222-0.46
			c-0.016-0.264,0.087-0.461,0.306-0.59c0.22-0.129,0.516-0.194,0.888-0.194c0.295,0,0.614,0.053,0.955,0.154
			c0.34,0.104,0.643,0.301,0.909,0.598c0.061,0.075,0.129,0.14,0.204,0.192s0.156,0.091,0.24,0.114
			c0.082,0.022,0.169,0.024,0.262,0.005c0.089-0.017,0.18-0.066,0.271-0.142C52.624,9.16,52.903,8.9,53.17,8.666
			c0.269-0.236,0.552-0.474,0.848-0.716c0.175-0.152,0.258-0.293,0.255-0.426s-0.07-0.274-0.199-0.427
			c-0.356-0.37-0.713-0.691-1.073-0.96c-0.36-0.269-0.729-0.489-1.108-0.659c-0.379-0.17-0.776-0.295-1.194-0.375
			c-0.417-0.08-0.863-0.12-1.34-0.12C48.571,4.983,47.854,5.083,47.211,5.284"/>
	</defs>
	<clipPath id="SVGID_15_">
		<use xlink:href="#SVGID_14_"  overflow="visible"/>
	</clipPath>
	
		<linearGradient id="SVGID_16_" gradientUnits="userSpaceOnUse" x1="-361.0396" y1="308.1426" x2="-360.8589" y2="308.1426" gradientTransform="matrix(62.7763 0 0 -62.7763 22708.2813 19356.5625)">
		<stop  offset="0" style="stop-color:#808184"/>
		<stop  offset="0.0513" style="stop-color:#808184"/>
		<stop  offset="0.3538" style="stop-color:#7C7D80"/>
		<stop  offset="0.6419" style="stop-color:#717275"/>
		<stop  offset="0.9234" style="stop-color:#5E5F62"/>
		<stop  offset="1" style="stop-color:#58595B"/>
	</linearGradient>
	<rect x="43.564" y="4.983" clip-path="url(#SVGID_15_)" fill="url(#SVGID_16_)" width="11.329" height="15.022"/>
</g>
<g>
	<defs>
		<path id="SVGID_17_" d="M72.108,5.267c-0.486,0.136-0.925,0.31-1.319,0.521C70.396,6,70.057,6.234,69.773,6.491
			c-0.285,0.256-0.5,0.502-0.643,0.736c-0.234-0.348-0.486-0.654-0.75-0.923c-0.266-0.268-0.56-0.495-0.881-0.68
			c-0.321-0.185-0.678-0.326-1.067-0.42c-0.392-0.094-0.825-0.141-1.303-0.141c-0.605,0-1.134,0.065-1.585,0.198
			c-0.45,0.133-0.838,0.3-1.165,0.504c-0.325,0.205-0.595,0.431-0.806,0.68c-0.212,0.249-0.376,0.491-0.489,0.726l-0.239-0.998
			c-0.037-0.113-0.077-0.223-0.119-0.329c-0.04-0.106-0.096-0.2-0.164-0.283s-0.152-0.148-0.25-0.199
			c-0.098-0.049-0.215-0.073-0.354-0.073h-1.714c-0.1,0-0.204,0.011-0.313,0.034c-0.11,0.022-0.215,0.076-0.313,0.159l0.068-0.034
			c-0.113,0.068-0.203,0.162-0.267,0.284c-0.065,0.121-0.096,0.252-0.096,0.396v12.708c0,0.266,0.072,0.479,0.217,0.637
			c0.143,0.16,0.377,0.238,0.704,0.238h2.567c0.113,0,0.215-0.01,0.301-0.035c0.087-0.021,0.18-0.063,0.279-0.123
			c0.098-0.068,0.173-0.166,0.222-0.297c0.049-0.129,0.073-0.256,0.073-0.385v-7.501c0.023-0.342,0.104-0.652,0.245-0.932
			c0.14-0.279,0.313-0.521,0.522-0.722c0.208-0.201,0.442-0.356,0.704-0.466c0.262-0.108,0.527-0.165,0.801-0.165
			c0.319,0,0.604,0.06,0.857,0.177c0.255,0.117,0.471,0.279,0.648,0.487c0.179,0.21,0.314,0.455,0.409,0.734
			c0.094,0.281,0.142,0.583,0.142,0.91v7.511c0,0.316,0.061,0.531,0.182,0.643c0.122,0.109,0.344,0.164,0.671,0.164h2.295h0.092
			h0.238c0.272,0,0.472-0.074,0.596-0.223c0.126-0.146,0.188-0.365,0.188-0.652v-7.442c0-0.342,0.058-0.655,0.175-0.939
			c0.119-0.281,0.276-0.526,0.472-0.725c0.198-0.201,0.425-0.358,0.684-0.474c0.257-0.112,0.529-0.169,0.817-0.169
			c0.318,0,0.608,0.06,0.869,0.177c0.262,0.117,0.484,0.279,0.666,0.487c0.18,0.21,0.323,0.455,0.426,0.734
			c0.102,0.281,0.152,0.583,0.152,0.91v7.511c0,0.316,0.062,0.531,0.182,0.643c0.122,0.109,0.346,0.164,0.671,0.164h2.625
			c0.272,0,0.472-0.074,0.596-0.223c0.126-0.146,0.188-0.365,0.188-0.652v-7.442c0-0.871-0.106-1.691-0.317-2.458
			c-0.214-0.769-0.533-1.438-0.961-2.014c-0.429-0.574-0.963-1.027-1.608-1.36c-0.643-0.333-1.397-0.498-2.261-0.498
			C73.107,5.063,72.592,5.131,72.108,5.267"/>
	</defs>
	<clipPath id="SVGID_18_">
		<use xlink:href="#SVGID_17_"  overflow="visible"/>
	</clipPath>
	
		<linearGradient id="SVGID_19_" gradientUnits="userSpaceOnUse" x1="-362.0176" y1="308.0713" x2="-361.8369" y2="308.0713" gradientTransform="matrix(119.0585 0 0 -119.0585 43158.6875 36690.8125)">
		<stop  offset="0" style="stop-color:#808184"/>
		<stop  offset="0.0513" style="stop-color:#808184"/>
		<stop  offset="0.3538" style="stop-color:#7C7D80"/>
		<stop  offset="0.6419" style="stop-color:#717275"/>
		<stop  offset="0.9234" style="stop-color:#5E5F62"/>
		<stop  offset="1" style="stop-color:#58595B"/>
	</linearGradient>
	<rect x="57.324" y="5.063" clip-path="url(#SVGID_18_)" fill="url(#SVGID_19_)" width="21.477" height="14.647"/>
</g>
<g>
	<defs>
		<path id="SVGID_20_" d="M87.135,15.796c-0.405-0.186-0.751-0.438-1.039-0.756c-0.287-0.318-0.509-0.695-0.664-1.131
			c-0.156-0.436-0.232-0.902-0.232-1.404c0-0.484,0.076-0.946,0.232-1.386c0.155-0.439,0.377-0.825,0.664-1.159
			c0.288-0.333,0.634-0.598,1.039-0.79c0.405-0.194,0.854-0.29,1.348-0.29c0.507,0,0.979,0.096,1.414,0.29
			c0.437,0.192,0.814,0.457,1.138,0.79c0.321,0.334,0.573,0.72,0.755,1.159c0.182,0.439,0.274,0.901,0.274,1.386
			c0,0.502-0.093,0.969-0.274,1.404s-0.434,0.813-0.755,1.131c-0.323,0.318-0.701,0.57-1.138,0.756
			c-0.436,0.186-0.907,0.277-1.414,0.277C87.989,16.073,87.54,15.981,87.135,15.796 M85.618,5.625
			c-0.899,0.383-1.685,0.909-2.351,1.58c-0.667,0.669-1.195,1.458-1.581,2.363c-0.387,0.907-0.579,1.886-0.579,2.938
			c0,0.699,0.086,1.367,0.261,2.006c0.175,0.643,0.423,1.238,0.744,1.789c0.322,0.555,0.706,1.057,1.155,1.508
			c0.446,0.449,0.944,0.836,1.492,1.158c0.551,0.32,1.142,0.57,1.772,0.744c0.635,0.174,1.295,0.262,1.983,0.262
			c0.386,0,0.76-0.047,1.12-0.143s0.697-0.219,1.012-0.375c0.313-0.154,0.602-0.332,0.863-0.527
			c0.261-0.199,0.493-0.398,0.699-0.604l0.146,0.512c0.046,0.129,0.091,0.25,0.131,0.357c0.042,0.109,0.093,0.203,0.154,0.279
			s0.14,0.135,0.237,0.176c0.1,0.041,0.228,0.063,0.387,0.063h2.238c0.084,0,0.182-0.01,0.297-0.035
			c0.112-0.021,0.212-0.074,0.296-0.158c0.104-0.068,0.182-0.162,0.225-0.279c0.048-0.117,0.07-0.238,0.07-0.367V6.063
			c0-0.136-0.022-0.258-0.07-0.363c-0.043-0.106-0.12-0.201-0.225-0.285c-0.084-0.083-0.184-0.137-0.296-0.159
			c-0.115-0.023-0.213-0.033-0.297-0.033h-1.691c-0.152,0-0.27,0.009-0.354,0.028c-0.082,0.019-0.153,0.057-0.209,0.114
			c-0.058,0.057-0.11,0.144-0.161,0.261c-0.049,0.118-0.11,0.271-0.187,0.46l-0.329,1.034c-0.204-0.294-0.443-0.57-0.717-0.824
			c-0.272-0.253-0.578-0.471-0.913-0.653c-0.338-0.182-0.71-0.325-1.115-0.431c-0.405-0.107-0.843-0.159-1.313-0.159
			C87.486,5.052,86.52,5.242,85.618,5.625"/>
	</defs>
	<clipPath id="SVGID_21_">
		<use xlink:href="#SVGID_20_"  overflow="visible"/>
	</clipPath>
	
		<linearGradient id="SVGID_22_" gradientUnits="userSpaceOnUse" x1="-363.3003" y1="308.1055" x2="-363.1196" y2="308.1055" gradientTransform="matrix(84.7271 0 0 -84.7271 30862.5 26117.4375)">
		<stop  offset="0" style="stop-color:#808184"/>
		<stop  offset="0.0513" style="stop-color:#808184"/>
		<stop  offset="0.3538" style="stop-color:#7C7D80"/>
		<stop  offset="0.6419" style="stop-color:#717275"/>
		<stop  offset="0.9234" style="stop-color:#5E5F62"/>
		<stop  offset="1" style="stop-color:#58595B"/>
	</linearGradient>
	<rect x="81.107" y="5.052" clip-path="url(#SVGID_21_)" fill="url(#SVGID_22_)" width="15.284" height="14.92"/>
</g>
<g>
	<defs>
		<path id="SVGID_23_" d="M100.006,0.995c-0.221,0-0.392,0.02-0.513,0.062c-0.122,0.042-0.209,0.1-0.267,0.176
			c-0.058,0.075-0.09,0.166-0.097,0.272c-0.009,0.106-0.012,0.224-0.012,0.353V18.96c0,0.016,0.014,0.061,0.04,0.143
			c0.026,0.08,0.068,0.166,0.126,0.254c0.056,0.092,0.134,0.174,0.232,0.244c0.098,0.072,0.215,0.109,0.351,0.109h2.854
			c0.159,0,0.287-0.035,0.387-0.102c0.098-0.068,0.175-0.15,0.232-0.244c0.058-0.096,0.095-0.193,0.113-0.291
			c0.02-0.098,0.028-0.178,0.028-0.238v-3.67l1.262-1.307l3.715,5.262c0.137,0.197,0.263,0.344,0.376,0.443
			c0.113,0.098,0.236,0.146,0.363,0.146h3.841c0.189,0,0.331-0.031,0.427-0.096c0.095-0.064,0.142-0.184,0.142-0.359
			c0-0.084-0.021-0.176-0.063-0.277c-0.042-0.104-0.11-0.203-0.21-0.303h0.022l-5.875-7.546l4.671-4.93
			c0.084-0.099,0.139-0.174,0.164-0.228c0.026-0.052,0.041-0.121,0.041-0.204c0-0.326-0.208-0.49-0.626-0.49h-3.488
			c-0.272,0-0.509,0.11-0.704,0.331l-4.091,4.544V1.745c0-0.076-0.011-0.157-0.03-0.245c-0.017-0.086-0.056-0.169-0.111-0.244
			c-0.058-0.076-0.133-0.139-0.229-0.188c-0.095-0.049-0.214-0.073-0.357-0.073H100.006z"/>
	</defs>
	<clipPath id="SVGID_24_">
		<use xlink:href="#SVGID_23_"  overflow="visible"/>
	</clipPath>
	
		<linearGradient id="SVGID_25_" gradientUnits="userSpaceOnUse" x1="-364.3911" y1="307.9902" x2="-364.2109" y2="307.9902" gradientTransform="matrix(80.3167 0 0 -80.3167 29365.8125 24747.125)">
		<stop  offset="0" style="stop-color:#808184"/>
		<stop  offset="0.0513" style="stop-color:#808184"/>
		<stop  offset="0.3538" style="stop-color:#7C7D80"/>
		<stop  offset="0.6419" style="stop-color:#717275"/>
		<stop  offset="0.9234" style="stop-color:#5E5F62"/>
		<stop  offset="1" style="stop-color:#58595B"/>
	</linearGradient>
	<rect x="99.118" y="0.995" clip-path="url(#SVGID_24_)" fill="url(#SVGID_25_)" width="14.488" height="18.715"/>
</g>
</svg>
